<svg width="38" height="28" viewBox="0 0 38 28" fill="none" xmlns="http://www.w3.org/2000/svg">
<path d="M19.0005 19.7617C21.4536 19.7617 23.4424 17.7725 23.4424 15.3193C23.4424 12.8662 21.4536 10.877 19.0005 10.877C16.5469 10.877 14.5581 12.8662 14.5581 15.3193C14.5581 17.7725 16.5469 19.7617 19.0005 19.7617Z" fill="currentColor"/>
<path fill-rule="evenodd" clip-rule="evenodd" d="M14.5537 2.44629C14.6475 2.35352 14.7744 2.30078 14.9062 2.30078H22.9028C23.0352 2.30078 23.1621 2.35352 23.2554 2.44629L25.7578 4.93945H30.8623C32.4995 4.93945 33.8281 6.26855 33.8281 7.90527V22.7334C33.8281 24.3701 32.4995 25.6992 30.8623 25.6992H7.13721C5.5 25.6992 4.17139 24.3701 4.17139 22.7334V7.90527C4.17139 6.26855 5.5 4.93945 7.13721 4.93945H12.0513L14.5537 2.44629ZM25.6021 15.3193C25.6021 18.9648 22.6465 21.9209 19.0005 21.9209C15.3545 21.9209 12.3989 18.9648 12.3989 15.3193C12.3989 11.6738 15.3545 8.71777 19.0005 8.71777C22.6465 8.71777 25.6021 11.6738 25.6021 15.3193ZM29.6406 10.8594C29.6406 11.792 28.8843 12.5488 27.9517 12.5488C27.0186 12.5488 26.2622 11.792 26.2622 10.8594C26.2622 9.92578 27.0186 9.16992 27.9517 9.16992C28.8843 9.16992 29.6406 9.92578 29.6406 10.8594Z" fill="currentColor"/>
</svg>
