<svg width="216" height="176" viewBox="0 0 216 176" fill="none" xmlns="http://www.w3.org/2000/svg">
<path d="M80.5118 104.761C74.2426 102.586 71.2384 96.5119 71.2384 96.5119C71.2384 96.5119 69.3653 76.7937 68.9495 70.6807C68.5202 64.5531 70.3926 62.7854 70.3926 62.7854C95.2744 60.1146 103.533 43.6186 103.533 43.6186" stroke="#00473E" stroke-miterlimit="10" stroke-linecap="round" stroke-linejoin="round"/>
<path d="M68.9458 70.6731C63.5751 66.2161 56.0292 65.5585 49.9775 69.0207L38.8154 75.4048L50.7262 84.097C55.3247 87.4529 61.2967 88.2407 66.5991 86.1908L70.1515 84.8169" stroke="#00473E" stroke-miterlimit="10" stroke-linecap="round" stroke-linejoin="round"/>
<path d="M70.3923 62.7876C70.3923 62.7876 65.5712 34.3992 50.3849 33.126C35.1984 31.8511 31.5829 56.7827 30.3176 62.7876C29.0523 68.7924 24.1011 108.337 24.1011 108.337" stroke="#00473E" stroke-miterlimit="10" stroke-linecap="round" stroke-linejoin="round"/>
<path d="M34.9106 45.738C34.9106 45.738 41.9739 18.925 66.8423 22.3818C77.7542 23.9004 86.1694 28.1942 92.1656 32.5156" stroke="#00473E" stroke-miterlimit="10" stroke-linecap="round" stroke-linejoin="round"/>
<path d="M54.0026 85.9575L40.8352 122.439C36.673 133.971 20.4993 134.048 16.2276 122.558L1 81.5939L23.2816 107.388C27.9315 112.772 36.0383 113.336 41.3789 108.649L47.8685 102.952" stroke="#00473E" stroke-miterlimit="10" stroke-linecap="round" stroke-linejoin="round"/>
<path d="M88.4399 122.583L88.8558 121.484C91.4547 114.611 96.7706 109.136 103.536 106.362L107.996 87.3144" stroke="#00473E" stroke-miterlimit="10" stroke-linecap="round" stroke-linejoin="round"/>
<path d="M107.996 123.631C107.996 119.991 104.199 120.931 100.643 120.112C97.0884 119.293 98.2172 114.653 98.2172 114.653C98.2172 114.653 95.5814 115.653 95.8835 122.054C96.1841 128.452 101.367 122.054 104.5 123.631C107.634 125.208 107.996 127.754 107.996 127.754" stroke="#00473E" stroke-miterlimit="10" stroke-linecap="round" stroke-linejoin="round"/>
<path d="M86.5163 85.8136C86.5163 87.9056 84.833 89.6001 82.7558 89.6001C80.6787 89.6001 78.9946 87.9056 78.9946 85.8136C78.9946 83.7217 80.6787 82.0272 82.7558 82.0272C84.833 82.0272 86.5163 83.7217 86.5163 85.8136Z" stroke="#00473E" stroke-miterlimit="10" stroke-linecap="round" stroke-linejoin="round"/>
<path d="M25.4797 100.346L36.0895 111.026" stroke="#00473E" stroke-miterlimit="10" stroke-linecap="round" stroke-linejoin="round"/>
<path d="M27.5012 85.2189L46.446 104.289" stroke="#00473E" stroke-miterlimit="10" stroke-linecap="round" stroke-linejoin="round"/>
<path d="M29.196 69.7628L51.6788 92.3955" stroke="#00473E" stroke-miterlimit="10" stroke-linecap="round" stroke-linejoin="round"/>
<path d="M31.8838 55.3076L47.1263 70.6514" stroke="#00473E" stroke-miterlimit="10" stroke-linecap="round" stroke-linejoin="round"/>
<path d="M36.0894 42.3802L60.3635 66.8154" stroke="#00473E" stroke-miterlimit="10" stroke-linecap="round" stroke-linejoin="round"/>
<path d="M44.8174 34.0034L69.5436 58.8948" stroke="#00473E" stroke-miterlimit="10" stroke-linecap="round" stroke-linejoin="round"/>
<path d="M71.2642 129.753L54.0049 108.505L64.9432 86.7319" stroke="#00473E" stroke-miterlimit="10" stroke-linecap="round" stroke-linejoin="round"/>
<path d="M112.469 43.6185C112.469 43.6185 120.715 60.1272 145.61 62.7981C145.61 62.7981 147.47 64.553 147.053 70.6806C146.637 76.8063 144.764 96.5245 144.764 96.5245C144.764 96.5245 141.747 102.586 135.477 104.773" stroke="#00473E" stroke-miterlimit="10" stroke-linecap="round" stroke-linejoin="round"/>
<path d="M147.053 70.6767C152.425 66.2216 159.97 65.5639 166.021 69.0243L177.184 75.4084L165.273 84.1006C160.674 87.4566 154.702 88.2461 149.4 86.1944L145.848 84.8205" stroke="#00473E" stroke-miterlimit="10" stroke-linecap="round" stroke-linejoin="round"/>
<path d="M145.606 62.7926C145.606 62.7926 150.427 34.4024 165.613 33.1292C180.8 31.8542 184.416 56.7859 185.68 62.7926C186.947 68.7975 191.897 108.34 191.897 108.34" stroke="#00473E" stroke-miterlimit="10" stroke-linecap="round" stroke-linejoin="round"/>
<path d="M123.836 32.5286C129.82 28.1944 138.234 23.9133 149.16 22.3947C174.016 18.938 181.078 45.751 181.078 45.751" stroke="#00473E" stroke-miterlimit="10" stroke-linecap="round" stroke-linejoin="round"/>
<path d="M161.998 85.9625L175.164 122.442C179.326 133.974 195.501 134.051 199.772 122.561L215 81.5971L192.718 107.393C188.068 112.775 179.961 113.34 174.62 108.652L168.13 102.957" stroke="#00473E" stroke-miterlimit="10" stroke-linecap="round" stroke-linejoin="round"/>
<path d="M127.56 122.588L127.144 121.487C124.545 114.616 119.228 109.139 112.464 106.365L108.004 87.3195" stroke="#00473E" stroke-miterlimit="10" stroke-linecap="round" stroke-linejoin="round"/>
<path d="M108.004 127.758C108.004 127.758 105.329 142.978 97.5115 142.978" stroke="#00473E" stroke-miterlimit="10" stroke-linecap="round" stroke-linejoin="round"/>
<path d="M108.004 123.635C108.004 119.995 111.801 120.934 115.356 120.116C118.911 119.297 117.782 114.657 117.782 114.657C117.782 114.657 120.417 115.657 120.116 122.057C119.815 128.456 114.633 122.057 111.499 123.635C108.366 125.212 108.004 127.758 108.004 127.758" stroke="#00473E" stroke-miterlimit="10" stroke-linecap="round" stroke-linejoin="round"/>
<path d="M129.481 85.8176C129.481 87.9095 131.167 89.604 133.244 89.604C135.321 89.604 137.004 87.9095 137.004 85.8176C137.004 83.7274 135.321 82.0311 133.244 82.0311C131.167 82.0311 129.481 83.7274 129.481 85.8176Z" stroke="#00473E" stroke-miterlimit="10" stroke-linecap="round" stroke-linejoin="round"/>
<path d="M190.52 100.35L179.91 111.03" stroke="#00473E" stroke-miterlimit="10" stroke-linecap="round" stroke-linejoin="round"/>
<path d="M188.498 85.2226L169.553 104.292" stroke="#00473E" stroke-miterlimit="10" stroke-linecap="round" stroke-linejoin="round"/>
<path d="M186.803 69.767L164.321 92.3997" stroke="#00473E" stroke-miterlimit="10" stroke-linecap="round" stroke-linejoin="round"/>
<path d="M184.116 55.3118L168.873 70.6555" stroke="#00473E" stroke-miterlimit="10" stroke-linecap="round" stroke-linejoin="round"/>
<path d="M179.91 42.3843L155.635 66.8196" stroke="#00473E" stroke-miterlimit="10" stroke-linecap="round" stroke-linejoin="round"/>
<path d="M171.182 34.0086L146.456 58.8982" stroke="#00473E" stroke-miterlimit="10" stroke-linecap="round" stroke-linejoin="round"/>
<path d="M106.872 62.1701L101.166 58.085L105.334 63.7491L92.6919 64.9215L105.355 65.9603L101.298 71.7013L106.924 67.5063L108.089 84.0847L109.12 67.4843L114.825 71.5694L110.657 65.9071L123.3 64.7329L110.636 63.696L114.693 57.9532L109.068 62.1481L107.902 45.5698L106.872 62.1701Z" stroke="#00473E" stroke-miterlimit="10" stroke-linecap="round" stroke-linejoin="round"/>
<path d="M123.837 32.5288C116.188 38.0409 112.469 43.6189 112.469 43.6189H103.533C103.533 43.6189 99.8142 38.0408 92.1658 32.5159L107.995 1.0005L123.837 32.5288Z" stroke="#00473E" stroke-miterlimit="10" stroke-linecap="round" stroke-linejoin="round"/>
<path d="M151.06 86.7446L161.998 108.505L144.738 129.768" stroke="#00473E" stroke-miterlimit="10" stroke-linecap="round" stroke-linejoin="round"/>
<path d="M144.738 129.768L108.008 175L71.2642 129.753L80.5118 104.759L88.4459 122.579L97.5116 142.977C97.5116 142.977 100.698 147.233 107.995 147.233H108.008C115.291 147.233 118.491 142.99 118.491 142.99L127.557 122.592L135.477 104.774L144.738 129.768Z" stroke="#00473E" stroke-miterlimit="10" stroke-linecap="round" stroke-linejoin="round"/>
<path d="M113.126 34.1173C114.413 34.1173 115.597 33.6996 116.547 32.9907C114.946 35.7147 112.007 37.5337 108.652 37.5337C103.579 37.5337 99.4685 33.3974 99.4685 28.3048C99.4685 23.1975 103.579 19.0612 108.652 19.0612C112.007 19.0612 114.946 20.882 116.547 23.6042C115.597 22.8971 114.413 22.4776 113.126 22.4776C109.925 22.4776 107.338 25.0844 107.338 28.3048C107.338 31.5124 109.925 34.1173 113.126 34.1173Z" stroke="#00473E" stroke-miterlimit="10" stroke-linecap="round" stroke-linejoin="round"/>
<path d="M176.163 75.2552H147.155C135.835 75.2552 125.447 81.5659 120.17 91.6448L112.464 106.362" stroke="#00473E" stroke-miterlimit="10" stroke-linecap="round" stroke-linejoin="round"/>
<path d="M107.996 127.758C107.996 127.758 110.671 142.978 118.489 142.978" stroke="#00473E" stroke-miterlimit="10" stroke-linecap="round" stroke-linejoin="round"/>
<path d="M91.1578 11.1469C86.1449 14.8454 85.825 21.2917 85.825 21.2917C85.825 21.2917 85.505 14.8454 80.4912 11.1469C85.505 7.44837 85.825 1.00018 85.825 1.00018C85.825 1.00018 86.1449 7.44837 91.1578 11.1469Z" stroke="#00473E" stroke-miterlimit="10" stroke-linecap="round" stroke-linejoin="round"/>
<path d="M55.2466 137.382C50.233 141.081 49.9131 147.527 49.9131 147.527C49.9131 147.527 49.5932 141.081 44.5808 137.382C49.5932 133.684 49.9131 127.237 49.9131 127.237C49.9131 127.237 50.233 133.684 55.2466 137.382Z" stroke="#00473E" stroke-miterlimit="10" stroke-linecap="round" stroke-linejoin="round"/>
<path d="M171.435 137.382C166.421 141.081 166.101 147.527 166.101 147.527C166.101 147.527 165.781 141.081 160.769 137.382C165.781 133.684 166.101 127.237 166.101 127.237C166.101 127.237 166.421 133.684 171.435 137.382Z" stroke="#00473E" stroke-miterlimit="10" stroke-linecap="round" stroke-linejoin="round"/>
<path d="M39.4141 75.2552H68.4227C79.7411 75.2552 90.1298 81.5659 95.4073 91.6448L103.114 106.362" stroke="#00473E" stroke-miterlimit="10" stroke-linecap="round" stroke-linejoin="round"/>
</svg>
