<svg width="34" height="34" viewBox="0 0 34 34" fill="none" xmlns="http://www.w3.org/2000/svg">
<path d="M19.497 19.1253C19.8973 19.1253 20.2886 19.0066 20.6215 18.7842C20.9543 18.5618 21.2138 18.2456 21.367 17.8758C21.5202 17.5059 21.5602 17.099 21.4821 16.7063C21.404 16.3137 21.2113 15.9531 20.9282 15.67C20.6451 15.3869 20.2845 15.1941 19.8918 15.116C19.4992 15.0379 19.0922 15.078 18.7224 15.2312C18.3525 15.3844 18.0364 15.6438 17.814 15.9767C17.5916 16.3096 17.4729 16.7009 17.4729 17.1012C17.4729 17.638 17.6862 18.1529 18.0657 18.5324C18.4453 18.912 18.9601 19.1253 19.497 19.1253ZM19.497 16.1396C19.6871 16.1396 19.8731 16.196 20.0312 16.3017C20.1893 16.4074 20.3126 16.5575 20.3853 16.7332C20.4581 16.9089 20.4772 17.1023 20.44 17.2888C20.4029 17.4753 20.3114 17.6467 20.1769 17.7811C20.0424 17.9156 19.8711 18.0072 19.6846 18.0443C19.498 18.0814 19.3047 18.0624 19.129 17.9896C18.9533 17.9168 18.8031 17.7936 18.6975 17.6354C18.5918 17.4773 18.5354 17.2914 18.5354 17.1012C18.534 16.974 18.5578 16.8479 18.6055 16.73C18.6532 16.6121 18.7238 16.5048 18.8133 16.4144C18.9027 16.324 19.0092 16.2522 19.1265 16.2032C19.2439 16.1542 19.3698 16.129 19.497 16.129V16.1396Z" fill="#00473E"/>
<path d="M26.7166 20.0442H26.2916C26.5326 19.1956 26.6559 18.318 26.6581 17.4358C26.6554 16.4797 26.5122 15.5293 26.2331 14.6149C26.604 14.26 27.0245 13.9612 27.4816 13.7277C28.1775 13.3824 28.6344 13.1486 28.6344 12.6652C28.6344 12.1817 28.1775 11.9427 27.4816 11.6027C26.4719 11.0899 25.6515 10.2695 25.1388 9.25986C24.7934 8.56393 24.5597 8.10705 24.0763 8.10705C23.5928 8.10705 23.3538 8.56924 23.0138 9.25986C22.9394 9.4033 22.8597 9.54143 22.7747 9.67955C21.4671 8.69132 19.9292 8.05272 18.3062 7.82405C16.6833 7.59539 15.0288 7.78421 13.4991 8.37268C12.8167 7.87955 12.2614 7.23132 11.8788 6.48143C11.5281 5.78549 11.2997 5.32861 10.8163 5.32861C10.3328 5.32861 10.0884 5.78549 9.75376 6.48143C9.24102 7.49105 8.42056 8.3115 7.41094 8.82424C6.71501 9.17486 6.25813 9.4033 6.25813 9.88674C6.25813 10.3702 6.71501 10.6092 7.41094 10.9492C7.95726 11.2295 8.45141 11.6015 8.87188 12.0489C8.02317 13.322 7.48962 14.7788 7.31532 16.2989C6.39067 16.2864 5.49745 16.6342 4.82477 17.2688C4.15209 17.9033 3.75277 18.7747 3.71134 19.6985C3.66991 20.6223 3.98964 21.526 4.60283 22.2182C5.21601 22.9104 6.07451 23.3368 6.99657 23.4071C6.85479 23.4703 6.73291 23.571 6.64401 23.6983C6.5551 23.8256 6.50251 23.9747 6.49188 24.1296C6.49188 24.6236 6.94876 24.8521 7.64469 25.1921C8.65541 25.7033 9.47629 26.5241 9.98751 27.5349C10.3381 28.2308 10.5666 28.6877 11.05 28.6877C11.5334 28.6877 11.7778 28.2308 12.1125 27.5349C12.3419 27.0884 12.6315 26.6755 12.9731 26.3077C14.225 26.8682 15.5806 27.1596 16.9522 27.163H26.7166C27.1959 27.1815 27.6741 27.1031 28.1224 26.9324C28.5707 26.7617 28.98 26.5023 29.3256 26.1698C29.6713 25.8372 29.9463 25.4382 30.1342 24.9968C30.322 24.5554 30.4188 24.0807 30.4188 23.601C30.4188 23.1213 30.322 22.6465 30.1342 22.2051C29.9463 21.7637 29.6713 21.3647 29.3256 21.0322C28.98 20.6996 28.5707 20.4402 28.1224 20.2695C27.6741 20.0988 27.1959 20.0204 26.7166 20.0389V20.0442ZM20.7931 25.1867C20.5415 24.6493 20.4292 24.057 20.4668 23.4647C20.5045 22.8724 20.6907 22.2992 21.0083 21.7978C21.3259 21.2965 21.7648 20.8833 22.2842 20.5963C22.8037 20.3093 23.3871 20.1578 23.9806 20.1558C24.3522 20.1583 24.7212 20.2174 25.075 20.3311C24.3248 22.4398 22.7914 24.1787 20.7931 25.1867ZM23.9434 9.71674L24.0656 9.47236L24.1931 9.71674C24.8056 10.931 25.7903 11.9176 27.0034 12.5324C27.0725 12.5642 27.1628 12.6067 27.2478 12.6546L27.0034 12.7821C25.7911 13.3954 24.8065 14.3801 24.1931 15.5924C24.1559 15.6614 24.1134 15.7517 24.0656 15.8367C24.0178 15.7517 23.9753 15.6614 23.9434 15.5924C23.3287 14.3792 22.3421 13.3945 21.1278 12.7821L20.8834 12.6546L21.1278 12.5324C22.3371 11.9105 23.3216 10.926 23.9434 9.71674ZM22.1053 10.4924C21.6863 10.9363 21.1939 11.3047 20.6497 11.5814C19.9591 11.9321 19.4969 12.1605 19.4969 12.6439C19.4969 13.1274 19.9591 13.3717 20.6497 13.7064C21.6604 14.2176 22.4813 15.0385 22.9925 16.0492C23.3431 16.7452 23.5716 17.2021 24.055 17.2021C24.5384 17.2021 24.7828 16.7452 25.1175 16.0492C25.196 15.8958 25.2829 15.7468 25.3778 15.603C25.507 16.1982 25.5729 16.8055 25.5744 17.4146C25.5746 18.0457 25.5034 18.6748 25.3619 19.2899C24.9132 19.1482 24.4458 19.0748 23.9753 19.0721C22.7556 19.0735 21.5862 19.5586 20.7237 20.4211C19.8613 21.2836 19.3761 22.4529 19.3747 23.6727C19.3745 24.3313 19.5177 24.9821 19.7944 25.5799C18.87 25.9196 17.8945 26.0993 16.9097 26.1111C15.8621 26.1065 14.8239 25.914 13.8444 25.5427C14.0269 25.4181 14.2167 25.3046 14.4128 25.2027C15.1088 24.8521 15.5656 24.6236 15.5656 24.1402C15.5656 23.6567 15.1088 23.4177 14.4128 23.0777C13.4075 22.5587 12.5942 21.7323 12.0913 20.7189C11.7459 20.023 11.5122 19.5661 11.0288 19.5661C10.5453 19.5661 10.3063 20.023 9.96626 20.7189C9.79874 21.047 9.59756 21.3568 9.36594 21.6433C8.66061 20.3575 8.29492 18.913 8.30344 17.4464H8.50532C9.33195 17.4425 10.1411 17.208 10.8417 16.7692C11.5423 16.3305 12.1065 15.7049 12.4709 14.9629C12.8352 14.2209 12.9853 13.3919 12.9042 12.5693C12.823 11.7466 12.5139 10.9629 12.0116 10.3064C13.5013 9.27578 15.2772 8.73924 17.0884 8.7726C18.8996 8.80597 20.6546 9.40755 22.1053 10.4924ZM11.1563 10.9652C11.5299 11.4675 11.7564 12.0639 11.8104 12.6876C11.8645 13.3113 11.7438 13.9377 11.4621 14.4968C11.1804 15.0558 10.7486 15.5255 10.2152 15.8531C9.68171 16.1808 9.06761 16.3535 8.44157 16.3521H8.31407C8.57975 14.2721 9.58934 12.3586 11.1563 10.9652ZM7.82532 10.0036L7.57563 9.87611L7.82532 9.74861C9.03762 9.13524 10.0223 8.15061 10.6356 6.9383C10.6728 6.86924 10.7153 6.77893 10.7631 6.69393C10.8109 6.77893 10.8534 6.86924 10.8853 6.9383C11.2536 7.65949 11.7547 8.30473 12.3622 8.84018C11.2528 9.42822 10.2677 10.2256 9.46157 11.1883C8.98902 10.7108 8.44396 10.3109 7.84657 10.0036H7.82532ZM4.78126 19.8583C4.78235 19.2097 5.03579 18.587 5.48794 18.1219C5.94008 17.6569 6.55544 17.3861 7.20376 17.3667C7.18565 19.12 7.64672 20.8448 8.53719 22.3552H7.28344C6.62074 22.3552 5.98511 22.0923 5.51601 21.6242C5.04691 21.1561 4.78266 20.521 4.78126 19.8583ZM11.1563 27.062C11.1191 27.1311 11.0766 27.2214 11.0288 27.3064C10.9809 27.2214 10.9384 27.1311 10.9066 27.062C10.2918 25.8489 9.30522 24.8642 8.09094 24.2517L7.84657 24.1242L8.09094 23.9967C9.30109 23.3786 10.2861 22.3954 10.9066 21.1864C10.9384 21.1174 10.9809 21.0324 11.0288 20.9421L11.1563 21.1864C11.7696 22.3987 12.7543 23.3834 13.9666 23.9967L14.2109 24.1242L13.9666 24.2517C12.7543 24.8651 11.7696 25.8497 11.1563 27.062ZM26.7272 26.1058H21.3244C23.41 25.0447 25.0461 23.2711 25.9356 21.1067H26.7166C27.0545 21.0912 27.3921 21.1443 27.7089 21.2628C28.0258 21.3814 28.3153 21.563 28.5599 21.7967C28.8046 22.0303 28.9993 22.3111 29.1324 22.6222C29.2654 22.9332 29.334 23.268 29.334 23.6063C29.334 23.9446 29.2654 24.2794 29.1324 24.5904C28.9993 24.9014 28.8046 25.1822 28.5599 25.4159C28.3153 25.6495 28.0258 25.8311 27.7089 25.9497C27.3921 26.0683 27.0545 26.1214 26.7166 26.1058H26.7272Z" fill="#00473E"/>
<path d="M16.2351 22.355C16.6019 22.355 16.8992 22.0577 16.8992 21.6909C16.8992 21.3242 16.6019 21.0269 16.2351 21.0269C15.8684 21.0269 15.571 21.3242 15.571 21.6909C15.571 22.0577 15.8684 22.355 16.2351 22.355Z" fill="#00473E"/>
<path d="M16.1074 13.6108C16.4742 13.6108 16.7715 13.3135 16.7715 12.9468C16.7715 12.58 16.4742 12.2827 16.1074 12.2827C15.7407 12.2827 15.4434 12.58 15.4434 12.9468C15.4434 13.3135 15.7407 13.6108 16.1074 13.6108Z" fill="#00473E"/>
<path d="M14.551 18.1636C14.9178 18.1636 15.2151 17.8663 15.2151 17.4995C15.2151 17.1328 14.9178 16.8354 14.551 16.8354C14.1843 16.8354 13.887 17.1328 13.887 17.4995C13.887 17.8663 14.1843 18.1636 14.551 18.1636Z" fill="#00473E"/>
</svg>
