<svg width="10" height="16" viewBox="0 0 10 16" fill="none" xmlns="http://www.w3.org/2000/svg">
<path d="M0.340147 15.6902C0.447251 15.7884 0.574486 15.8663 0.714565 15.9195C0.854645 15.9726 1.00482 16 1.15648 16C1.30814 16 1.45831 15.9726 1.59839 15.9195C1.73847 15.8663 1.8657 15.7884 1.97281 15.6902L9.73025 8.5949C9.81576 8.51685 9.8836 8.42414 9.92989 8.32208C9.97617 8.22002 10 8.11061 10 8.00011C10 7.88962 9.97617 7.78021 9.92989 7.67815C9.8836 7.57609 9.81576 7.48338 9.73025 7.40532L1.97281 0.31005C1.52083 -0.10335 0.792127 -0.10335 0.340147 0.31005C-0.111833 0.723449 -0.111833 1.38995 0.340147 1.80335L7.11061 7.99589L0.330923 14.1969C-0.111833 14.6103 -0.111833 15.2768 0.340147 15.6902Z" fill="#A6A6A6"/>
</svg>
