<svg width="34" height="34" viewBox="0 0 34 34" fill="none" xmlns="http://www.w3.org/2000/svg">
<rect width="32.5" height="32.5" transform="translate(0.75 0.75)" fill="#F0F0F0"/>
<path d="M16.9999 17.0002H17.0135M22.4166 8.87516V6.16683C22.4166 5.44854 22.1312 4.75966 21.6233 4.25175C21.1154 3.74384 20.4266 3.4585 19.7083 3.4585H14.2916C13.5733 3.4585 12.8844 3.74384 12.3765 4.25175C11.8686 4.75966 11.5833 5.44854 11.5833 6.16683V8.87516M30.5416 18.3543C26.5235 21.0071 21.8147 22.4213 16.9999 22.4213C12.1851 22.4213 7.47635 21.0071 3.45825 18.3543" stroke="#00473E" stroke-width="2" stroke-linecap="round" stroke-linejoin="round"/>
<path d="M27.8333 8.875H6.16659C4.67081 8.875 3.45825 10.0876 3.45825 11.5833V25.125C3.45825 26.6208 4.67081 27.8333 6.16659 27.8333H27.8333C29.329 27.8333 30.5416 26.6208 30.5416 25.125V11.5833C30.5416 10.0876 29.329 8.875 27.8333 8.875Z" stroke="#00473E" stroke-width="2" stroke-linecap="round" stroke-linejoin="round"/>
</svg>
