<svg width="103" height="132" viewBox="0 0 103 132" fill="none" xmlns="http://www.w3.org/2000/svg">
<path d="M96.0377 42.7778L96.8737 46.5222C97.2053 48.0052 98.1945 49.2562 99.5618 49.9199L102 51.1032L99.4774 52.0953C98.0631 52.6517 96.98 53.8221 96.5348 55.2749L95.4125 58.9438L94.5759 55.1994C94.2449 53.7164 93.2551 52.4654 91.8878 51.8017L89.4497 50.6178L91.9723 49.6264C93.3865 49.0705 94.4697 47.8995 94.9143 46.4462L96.0377 42.7778Z" fill="#FAAE2B"/>
<path d="M96.0377 42.7778L96.8737 46.5222C97.2053 48.0052 98.1945 49.2562 99.5618 49.9199L102 51.1032L99.4774 52.0953C98.0631 52.6517 96.98 53.8221 96.5348 55.2749L95.4125 58.9438L94.5759 55.1994C94.2449 53.7164 93.2551 52.4654 91.8878 51.8017L89.4497 50.6178L91.9723 49.6264C93.3865 49.0705 94.4697 47.8995 94.9143 46.4462L96.0377 42.7778Z" stroke="#FAAE2B" stroke-width="1.33333" stroke-miterlimit="10" stroke-linecap="round" stroke-linejoin="round"/>
<path d="M10.6185 50.3499C10.6185 50.3499 6.20581 53.1213 4.63723 54.106C3.06922 55.0902 2.04811 56.2215 1.82946 57.4249C1.61026 58.6278 2.44906 61.0352 2.59501 62.2022C2.74097 63.3693 2.77731 67.6366 2.70462 69.3142C2.63192 70.9918 2.19295 74.9303 2.19295 74.9303C2.19295 74.9303 0.499672 78.2744 0.808354 80.4737C1.11648 82.6736 2.81421 85.3975 4.23627 86.0904C5.6589 86.7832 6.4608 87.0751 7.77381 87.8771C9.08683 88.6794 12.6976 91.3782 14.047 92.1081C15.3964 92.8365 22.3618 95.6813 24.3677 97.213C26.3736 98.7452 31.2241 101.517 32.3179 102.757C33.4123 103.997 35.4909 106.039 36.1474 106.659C36.8039 107.279 36.9498 108.228 36.9498 108.228C36.9498 108.228 43.7336 118.001 44.2441 119.678C44.7547 121.356 44.4628 122.182 45.3743 123.544C46.2863 124.908 46.4686 128.87 46.4323 130.328C46.3954 131.787 46.0671 135.033 47.7447 135.944C49.4224 136.856 62.5519 135.835 64.5209 135.944C66.4904 136.054 90.269 134.996 90.269 134.996C90.269 134.996 89.0382 132.389 87.8074 130.583C86.5766 128.778 84.9079 126.344 84.2788 125.031C83.6497 123.718 81.3793 119.424 80.2855 117.563C79.1911 115.704 77.0578 113.078 76.6199 111.437C76.1826 109.795 75.7721 106.828 75.28 105.83C74.7874 104.831 71.0401 100.919 70.6023 99.7159C70.165 98.5125 70.2472 93.1107 69.9597 91.155C69.6723 89.1991 67.2107 83.0449 67.2107 83.0449L10.6185 50.3499Z" fill="#F0F0F0"/>
<path d="M2.26618 59.4268C2.25667 59.3715 2.25835 59.3144 2.25052 59.258C2.26002 59.263 2.27233 59.2686 2.28184 59.2736C2.51391 59.3877 2.75382 59.4777 3.0049 59.5426C3.48358 59.6673 4.03774 59.7612 4.5153 59.6008C4.62379 59.5639 4.69873 59.4637 4.68084 59.3469C4.66183 59.2227 4.57123 59.1618 4.45324 59.1456C4.33413 59.1299 4.22228 59.107 4.10205 59.1098C3.99972 59.112 3.89683 59.1103 3.79449 59.1047C3.58423 59.0936 3.37789 59.0634 3.1721 59.0164C2.95904 58.9672 2.74822 58.9001 2.54244 58.8235C2.42332 58.7787 2.30923 58.7239 2.19516 58.6702C2.18845 58.3918 2.19964 58.1127 2.23431 57.8359C2.63526 58.0344 3.05858 58.2022 3.48917 58.3101C3.74752 58.375 4.01762 58.4231 4.28548 58.4326C4.43478 58.4376 4.57793 58.4186 4.72556 58.3973C4.88046 58.3744 5.04431 58.3481 5.11701 58.1888C5.1651 58.0847 5.16175 57.9679 5.07731 57.8823C4.95652 57.7587 4.82511 57.7761 4.66798 57.7833C4.5416 57.7889 4.41186 57.7833 4.28548 57.7777C4.05452 57.7682 3.83083 57.7392 3.60659 57.6877C3.16985 57.5882 2.75717 57.4193 2.33273 57.2823C2.37803 57.0972 2.42835 56.9132 2.49714 56.7348C2.8595 55.797 3.56019 55.1797 4.41522 54.6898C5.34965 54.1541 6.29359 53.6435 7.20957 53.0759C7.90578 52.6442 8.5964 52.1969 9.28199 51.7422C8.46722 53.667 8.55334 55.8736 8.059 57.8834C7.50371 60.137 6.37466 62.2206 6.01174 64.5251C5.66447 66.725 5.99329 69.1313 4.70488 71.0762C4.13281 71.9391 3.38572 72.6683 2.74934 73.4819C2.8019 73.1805 2.84944 72.8785 2.89082 72.5754C3.04069 71.4878 3.10778 70.3917 3.13407 69.2946C3.16035 68.1823 3.14358 67.0695 3.11002 65.9578C3.07703 64.8439 3.07591 63.7154 2.94506 62.6076C2.81756 61.5233 2.45072 60.4983 2.26618 59.4268ZM49.7008 136.091C48.8279 136.172 47.9757 135.889 47.388 135.222C46.666 134.402 46.7314 133.235 46.7152 132.214C46.6957 131.03 46.6722 129.847 46.6576 128.663C46.6442 127.531 46.6817 126.389 46.3931 125.284C46.1236 124.249 45.6455 123.287 45.4061 122.241C45.1629 121.18 44.937 120.164 44.4146 119.197C43.8979 118.241 43.2476 117.361 42.642 116.461C42.0006 115.507 41.358 114.554 40.7267 113.594C40.0204 112.521 39.3242 111.442 38.6381 110.356C38.2891 109.803 37.9357 109.254 37.5896 108.7C37.4028 108.4 37.1953 108.07 37.0907 107.721C38.5458 108.8 39.7732 110.12 41.022 111.434C41.8026 112.255 42.5793 113.08 43.3533 113.908C44.1501 114.76 44.8911 115.719 45.7769 116.479C45.9536 116.631 46.264 116.436 46.1197 116.215C45.5672 115.368 44.8274 114.627 44.1613 113.869C43.4724 113.084 42.7823 112.301 42.08 111.529C40.7614 110.079 39.4763 108.525 37.9049 107.34C37.1813 106.794 36.4035 106.323 35.6799 105.777C34.9059 105.193 34.2735 104.477 33.6427 103.745C32.4303 102.34 31.039 101.212 29.4749 100.218C28.6115 99.6678 27.7252 99.1555 26.8455 98.6322C26.2796 98.2949 25.7394 97.9192 25.1953 97.5502C25.2015 97.4679 25.1752 97.3857 25.0963 97.3231C21.792 94.6887 17.6114 93.6021 13.9312 91.6292C13.0057 91.1338 12.1149 90.5807 11.2733 89.9527C10.406 89.3059 9.58116 88.6012 8.69482 87.9782C7.78947 87.3408 6.83602 86.8928 5.81211 86.4818C4.76024 86.059 3.96114 85.4254 3.26437 84.5352C2.62072 83.712 1.96701 82.8111 1.51965 81.865C1.01133 80.7891 1.06724 79.5935 1.28645 78.451C1.49 77.3975 1.84622 76.3747 2.3523 75.428C2.86621 74.4656 3.53725 73.6441 4.24968 72.8243C4.94421 72.0257 5.5929 71.2048 5.96813 70.2039C6.34056 69.2079 6.43954 68.1314 6.51112 67.079C6.58605 65.9796 6.64029 64.8858 6.89864 63.8104C7.16091 62.7217 7.5613 61.6732 7.94548 60.6235C8.33748 59.5515 8.70991 58.4706 8.92073 57.346C9.12875 56.236 9.21375 55.1081 9.40947 53.9958C9.52132 53.3567 9.6846 52.6783 9.94016 52.0459C10.0017 52.1035 10.0609 52.1628 10.1213 52.2204C10.411 52.4955 10.7247 52.7505 11.0575 52.9714C11.3852 53.1895 11.7374 53.3751 12.1082 53.5093C12.3045 53.5803 12.4963 53.6256 12.7043 53.643C12.9068 53.6598 13.1047 53.7056 13.2904 53.5999C13.4537 53.5076 13.4291 53.294 13.2904 53.1967C13.1517 53.0983 12.9722 53.1056 12.8128 53.0597C12.6439 53.0116 12.4722 52.9607 12.305 52.9037C11.9824 52.7941 11.6782 52.6442 11.388 52.4664C11.0927 52.2852 10.8187 52.08 10.5424 51.8725C10.4116 51.7747 10.2835 51.6718 10.1549 51.5705C10.2897 51.306 10.4451 51.0544 10.6257 50.824C10.6442 50.8011 10.6632 50.7843 10.6811 50.7619C10.7091 50.7893 10.7354 50.819 10.7628 50.8453C10.8673 50.9459 10.9758 51.0438 11.0871 51.1383C11.3175 51.3357 11.5624 51.5258 11.8314 51.669C12.0875 51.8043 12.3626 51.9117 12.6428 51.9844C12.791 52.0218 12.9397 52.0453 13.0913 52.0632C13.2646 52.0839 13.4436 52.1035 13.575 51.9637C13.6455 51.8887 13.6846 51.7422 13.6147 51.6511C13.4973 51.4967 13.3759 51.4828 13.197 51.457C13.0667 51.438 12.9369 51.4101 12.8094 51.3787C12.5472 51.3133 12.3011 51.216 12.0624 51.0902C11.8208 50.9627 11.596 50.8072 11.384 50.6356C11.2711 50.5439 11.1626 50.4465 11.0468 50.3576C11.0457 50.3571 11.0446 50.356 11.044 50.356C11.5524 49.8398 12.0987 49.4948 12.6545 49.3382C13.0997 49.2129 13.5431 49.1682 13.9989 49.2599C14.3808 49.3354 14.5452 48.7751 14.1616 48.67C13.8328 48.5794 13.509 48.5486 13.1914 48.562C13.1047 48.387 12.8956 48.2628 12.711 48.3982C12.5511 48.5151 12.3912 48.6314 12.2307 48.7482C11.4489 49.0195 10.7488 49.558 10.1996 50.2134C9.26185 50.8771 8.31399 51.5264 7.33985 52.1432C6.42667 52.7208 5.50287 53.2845 4.56956 53.8303C3.72683 54.3235 2.89137 54.7782 2.31092 55.5896C1.8026 56.2998 1.54144 57.1621 1.46763 58.026C1.37872 59.0494 1.62477 60.0408 1.87529 61.025C2.42387 63.1853 2.36796 65.4763 2.38474 67.6936C2.3948 68.9585 2.36628 70.2257 2.25612 71.4867C2.20075 72.1147 2.13589 72.7415 2.03859 73.3645C1.9905 73.6709 1.92954 73.9751 1.87529 74.2805C1.83391 74.5153 1.82161 74.7949 1.73605 75.0298C1.47322 75.5185 1.24507 76.0263 1.05382 76.548C0.671325 77.5898 0.426947 78.7111 0.391717 79.8216C0.353691 80.9909 0.704876 82.0327 1.31777 83.0169C1.89375 83.9408 2.52565 84.8841 3.27667 85.676C4.07298 86.5164 5.0281 86.9549 6.08612 87.3777C8.20886 88.2248 9.80429 89.8801 11.6726 91.1377C15.299 93.5798 19.6239 94.6815 23.3438 96.9581C23.5977 97.114 23.8499 97.2717 24.0998 97.4327C24.6322 98.0142 25.3172 98.4661 25.9709 98.891C26.751 99.3993 27.549 99.8792 28.3386 100.372C29.8759 101.333 31.3773 102.368 32.6014 103.717C33.2495 104.432 33.8378 105.203 34.5609 105.847C35.1559 106.377 35.818 106.822 36.4762 107.269C36.3241 108.124 36.9582 108.968 37.3866 109.679C38.0129 110.722 38.656 111.753 39.3074 112.781C39.9583 113.809 40.6176 114.831 41.2865 115.847C41.9357 116.833 42.6246 117.795 43.2593 118.792C43.8918 119.785 44.3039 120.79 44.5707 121.934C44.7026 122.501 44.843 123.061 45.046 123.607C45.2468 124.147 45.4799 124.674 45.6527 125.224C46.0224 126.396 46.019 127.653 46.0414 128.872C46.0649 130.125 46.0867 131.378 46.1113 132.631C46.1325 133.758 46.227 134.913 47.0614 135.757C47.7621 136.465 48.7921 136.831 49.7763 136.649C50.0878 136.59 50.0207 136.061 49.7008 136.091Z" fill="#FAAE2B"/>
<path d="M89.5303 124.212C87.9757 124.784 86.2539 124.672 84.7379 125.376C84.2743 125.591 83.8549 125.895 83.5144 126.273C83.3343 125.802 83.0888 125.354 82.8193 124.929C82.4178 124.298 81.9738 123.697 81.6058 123.045C81.2054 122.337 80.8822 121.595 80.6278 120.823C80.5366 120.547 80.12 120.447 79.9707 120.737C79.6022 121.454 78.9569 121.928 78.3311 122.408C77.711 122.884 77.145 123.394 76.6647 124.014C76.5321 124.186 76.4086 124.363 76.2906 124.544C76.1133 123.977 75.8108 123.436 75.4803 122.998C75.0385 122.412 74.524 121.888 74.0593 121.32C73.6013 120.76 73.0964 120.081 72.9527 119.357C72.9163 119.176 72.715 119.089 72.5607 119.19C71.2443 120.049 69.8703 120.868 68.6373 121.845C68.446 121.997 68.2609 122.163 68.0814 122.336C67.978 122.139 67.8628 121.952 67.7375 121.781C66.703 120.376 64.9163 119.343 64.6127 117.505C64.578 117.293 64.2794 117.184 64.1083 117.299C63.0078 118.044 61.938 118.829 60.8956 119.653C60.5417 119.933 60.1966 120.222 59.8499 120.511C59.5647 119.961 59.2068 119.46 58.802 118.965C58.2618 118.305 57.4582 117.183 58.1287 116.338C58.2746 116.153 58.2081 115.774 57.9078 115.805C56.2615 115.972 54.5839 116.146 53.0528 116.817C52.2274 117.18 51.2717 117.782 50.6672 118.565C50.3814 117.662 49.929 116.831 49.2658 116.169C47.2957 114.201 44.3465 114.139 41.7451 114.118C40.1368 114.105 38.5168 114.066 36.9918 113.499C36.6378 113.367 36.3269 113.899 36.6177 114.141C38.1169 115.392 39.6122 116.649 41.0902 117.925C42.368 119.028 43.5351 120.189 44.2436 121.746C44.3498 121.98 44.4315 122.057 45.1674 122.596C47.4736 124.286 49.3642 125.209 51.9086 126.525C53.1898 127.188 54.5296 127.751 55.9187 128.147C57.4224 128.575 58.9753 128.77 60.5215 128.976C62.0845 129.184 63.6246 129.447 65.14 129.889C66.6582 130.333 68.1401 130.886 69.6478 131.361C72.5489 132.277 75.5726 132.775 78.6163 132.788C82.0459 132.802 84.7301 132.483 87.9657 131.345C88.2654 131.238 88.5417 130.905 88.4097 129.907C88.3644 129.563 88.3454 129.209 88.3409 128.869C88.3342 128.32 88.37 127.77 88.4896 127.233C88.6988 126.299 89.1411 125.443 89.8905 124.831C90.1734 124.6 89.8692 124.088 89.5303 124.212Z" fill="#FAAE2B"/>
<path d="M88.2138 125.636C88.1954 125.581 88.1652 125.534 88.1216 125.494C88.0668 125.439 88.0019 125.401 87.9264 125.379C87.8476 125.359 87.7693 125.359 87.6904 125.379C87.6865 125.381 87.682 125.382 87.6787 125.383C87.6395 125.397 87.5998 125.411 87.5635 125.431C87.5344 125.454 87.5048 125.477 87.4751 125.5C87.4326 125.539 87.4024 125.586 87.3845 125.64C87.365 125.675 87.3549 125.711 87.3549 125.751C87.342 125.809 87.3448 125.867 87.3627 125.925C87.3773 125.96 87.3924 125.995 87.4069 126.029L87.4751 126.118C87.5148 126.16 87.5618 126.191 87.6155 126.208C87.6524 126.227 87.6932 126.229 87.7329 126.234C87.7972 126.245 87.8621 126.252 87.9264 126.234C88.0019 126.213 88.0668 126.175 88.1216 126.12L88.1915 126.031C88.2317 125.961 88.2519 125.887 88.2519 125.807C88.2541 125.746 88.2412 125.689 88.2138 125.636Z" fill="#F0F0F0"/>
<path d="M87.6901 126.234C87.6944 126.235 87.6988 126.233 87.7026 126.234C87.6944 126.233 87.6857 126.232 87.677 126.231C87.6814 126.232 87.6857 126.233 87.6901 126.234Z" fill="#F0F0F0"/>
<path d="M87.7943 126.246C87.7891 126.246 87.7834 126.245 87.7776 126.244C87.7799 126.244 87.7816 126.246 87.7845 126.246C87.788 126.246 87.7914 126.246 87.7943 126.246Z" fill="#F0F0F0"/>
<path d="M87.7771 126.245C87.7616 126.245 87.7483 126.236 87.7327 126.235C87.7233 126.233 87.7133 126.237 87.7034 126.235C87.7278 126.238 87.7527 126.241 87.7771 126.245Z" fill="#F0F0F0"/>
<path d="M85.9223 126.391C85.8993 126.31 85.8585 126.239 85.7987 126.179C85.7663 126.154 85.7338 126.129 85.7008 126.104C85.6265 126.06 85.5454 126.038 85.4587 126.038C85.3927 126.035 85.3306 126.049 85.2736 126.08C85.2138 126.099 85.1623 126.132 85.1187 126.179C85.0717 126.222 85.0387 126.274 85.0197 126.334C84.9895 126.391 84.9755 126.453 84.9778 126.519C84.9839 126.562 84.9895 126.604 84.9951 126.647C85.018 126.728 85.0594 126.799 85.1187 126.859L85.216 126.934C85.2909 126.977 85.372 126.999 85.4587 127C85.5247 127.002 85.5862 126.989 85.6438 126.958C85.7031 126.939 85.7551 126.906 85.7987 126.859C85.8451 126.815 85.8786 126.764 85.8982 126.704C85.9284 126.647 85.9418 126.585 85.939 126.519C85.9335 126.477 85.9279 126.434 85.9223 126.391Z" fill="#F0F0F0"/>
<path d="M87.7563 127.033C87.7334 126.951 87.6925 126.881 87.6327 126.821C87.6008 126.797 87.5684 126.771 87.5365 126.746C87.4616 126.703 87.3811 126.681 87.2944 126.681C87.229 126.678 87.1669 126.692 87.1104 126.722C87.0506 126.741 86.9997 126.775 86.9566 126.821C86.9097 126.865 86.8767 126.916 86.8571 126.975C86.8275 127.033 86.8135 127.093 86.8163 127.159C86.8213 127.202 86.8275 127.244 86.8331 127.287C86.856 127.368 86.8968 127.438 86.9566 127.498L87.0528 127.573C87.1277 127.616 87.2083 127.638 87.2944 127.639C87.3604 127.641 87.4225 127.627 87.4789 127.597C87.5388 127.578 87.5897 127.545 87.6327 127.498C87.6797 127.455 87.7127 127.403 87.7317 127.344C87.7619 127.287 87.7753 127.225 87.7731 127.159C87.7681 127.117 87.7619 127.075 87.7563 127.033Z" fill="#F0F0F0"/>
<path d="M80.4447 122.266L80.3966 122.152C80.3541 122.079 80.2965 122.023 80.2244 121.981L80.1103 121.932C80.0259 121.91 79.9414 121.91 79.8559 121.932C79.8408 121.935 79.8257 121.939 79.8095 121.944C79.7893 121.949 79.7698 121.957 79.7513 121.968C79.7312 121.974 79.711 121.982 79.6926 121.993C79.6909 121.993 79.6898 121.994 79.6881 121.996C79.6853 121.998 79.682 122 79.6786 122.002C79.6719 122.005 79.6652 122.01 79.6585 122.014L79.5645 122.087C79.5192 122.129 79.4868 122.178 79.4683 122.237C79.4471 122.272 79.4365 122.311 79.4365 122.353C79.4225 122.416 79.4253 122.478 79.4449 122.54L79.4918 122.65L79.5645 122.745C79.6065 122.79 79.6568 122.822 79.7138 122.841C79.7698 122.87 79.829 122.884 79.8939 122.881C79.9006 122.881 79.9084 122.882 79.9163 122.882C79.9666 122.886 80.0052 122.881 80.0639 122.866C80.0801 122.862 80.0952 122.858 80.1103 122.854C80.1729 122.84 80.2266 122.811 80.273 122.769C80.3251 122.735 80.3659 122.69 80.3966 122.634C80.4319 122.58 80.4503 122.52 80.4531 122.457C80.4676 122.393 80.4643 122.33 80.4447 122.266Z" fill="#F0F0F0"/>
<path d="M79.0097 123.527C78.9868 123.446 78.9449 123.375 78.885 123.314C78.8526 123.289 78.8202 123.264 78.7872 123.239C78.7122 123.195 78.6312 123.173 78.5439 123.173C78.4774 123.171 78.4153 123.185 78.3583 123.215C78.2979 123.234 78.2459 123.267 78.2022 123.314C78.1553 123.358 78.1223 123.41 78.1021 123.47C78.0725 123.527 78.0585 123.59 78.0608 123.656C78.0669 123.699 78.0725 123.742 78.0787 123.784C78.1016 123.866 78.143 123.937 78.2022 123.997C78.2352 124.022 78.2671 124.048 78.3001 124.073C78.3756 124.116 78.4567 124.139 78.5439 124.139C78.6105 124.142 78.672 124.127 78.7301 124.097C78.7894 124.078 78.8414 124.045 78.885 123.997C78.932 123.954 78.965 123.901 78.9851 123.842C79.0148 123.784 79.0293 123.723 79.0265 123.656C79.0209 123.613 79.0148 123.571 79.0097 123.527Z" fill="#F0F0F0"/>
<path d="M81.1986 123.734C81.1813 123.694 81.1651 123.655 81.1483 123.616C81.1047 123.542 81.0454 123.482 80.9705 123.438C80.9699 123.438 80.9694 123.438 80.9688 123.437C80.9123 123.401 80.8514 123.381 80.7848 123.379C80.7194 123.364 80.654 123.367 80.588 123.387C80.5237 123.402 80.4678 123.432 80.4197 123.476C80.366 123.511 80.3235 123.557 80.2927 123.614L80.243 123.733C80.2195 123.821 80.2195 123.908 80.243 123.996L80.2927 124.114C80.3369 124.188 80.3956 124.248 80.47 124.291L80.4717 124.292C80.5281 124.329 80.5902 124.348 80.6556 124.351C80.7211 124.365 80.7871 124.363 80.8525 124.342C80.9174 124.327 80.9733 124.297 81.0208 124.254C81.0751 124.218 81.117 124.172 81.1483 124.115C81.1651 124.076 81.1813 124.036 81.1986 123.997C81.2221 123.909 81.2221 123.822 81.1986 123.734Z" fill="#F0F0F0"/>
<path d="M72.649 120.443C72.6333 120.378 72.6043 120.322 72.5606 120.275C72.5265 120.222 72.4807 120.179 72.4231 120.148C72.3465 120.104 72.2637 120.081 72.1748 120.081C72.1636 120.08 72.153 120.08 72.1418 120.082C72.0965 120.086 72.0518 120.093 72.0065 120.1C71.9819 120.103 71.9779 120.11 71.9416 120.125C71.9192 120.13 71.8991 120.139 71.8812 120.152C71.8583 120.163 71.8448 120.186 71.8258 120.203C71.8057 120.218 71.785 120.233 71.7654 120.249C71.7336 120.275 71.7011 120.323 71.6872 120.348C71.6245 120.455 71.6066 120.587 71.6402 120.707C71.6721 120.824 71.7503 120.925 71.8543 120.986C71.8683 120.994 71.8823 120.997 71.8969 121.003C71.9153 121.015 71.9416 121.025 71.9684 121.033C71.969 121.033 71.9695 121.033 71.9707 121.034C71.9813 121.037 71.9869 121.042 71.9997 121.045C72.0439 121.05 72.087 121.056 72.1306 121.062C72.1317 121.062 72.1328 121.062 72.1345 121.062C72.1368 121.062 72.1384 121.062 72.1407 121.062C72.1491 121.061 72.1574 121.062 72.1658 121.063C72.2123 121.064 72.2587 121.059 72.3056 121.047C72.3448 121.03 72.3839 121.014 72.4231 120.997C72.4969 120.954 72.5556 120.894 72.5992 120.82C72.635 120.765 72.6546 120.703 72.6574 120.638C72.6725 120.573 72.6697 120.507 72.649 120.443Z" fill="#F0F0F0"/>
<path d="M71.0031 121.642C70.9796 121.56 70.9376 121.488 70.8772 121.426C70.8437 121.4 70.8107 121.375 70.7777 121.35C70.7011 121.305 70.6189 121.282 70.53 121.282C70.4623 121.28 70.3997 121.294 70.3409 121.325C70.28 121.344 70.2274 121.378 70.1827 121.426C70.1352 121.47 70.1016 121.523 70.082 121.584C70.0507 121.642 70.0373 121.705 70.0395 121.773C70.0451 121.817 70.0513 121.86 70.0569 121.904C70.0804 121.986 70.1223 122.059 70.1827 122.12C70.2163 122.145 70.2492 122.171 70.2822 122.197C70.3588 122.241 70.4411 122.263 70.53 122.264C70.5976 122.266 70.6608 122.252 70.719 122.221C70.7799 122.202 70.8325 122.168 70.8772 122.12C70.9253 122.075 70.9589 122.023 70.9785 121.962C71.0092 121.904 71.0232 121.841 71.0204 121.773L71.0031 121.642Z" fill="#F0F0F0"/>
<path d="M73.5861 122.06C73.5839 122.039 73.58 122.009 73.5777 121.994C73.5755 121.977 73.5727 121.949 73.5682 121.927C73.5677 121.924 73.5665 121.92 73.5649 121.915C73.5576 121.896 73.5414 121.859 73.5397 121.856C73.5352 121.844 73.5235 121.814 73.514 121.794C73.5129 121.793 73.5123 121.791 73.5112 121.789C73.4855 121.756 73.4603 121.723 73.4346 121.69C73.3904 121.642 73.3378 121.609 73.2774 121.589C73.2388 121.567 73.1975 121.556 73.1538 121.556C73.089 121.541 73.023 121.544 72.9581 121.564C72.9581 121.564 72.9581 121.564 72.9576 121.564C72.8754 121.587 72.8032 121.63 72.7428 121.69C72.7266 121.706 72.7227 121.729 72.7093 121.747C72.7048 121.751 72.6975 121.752 72.6936 121.756C72.6808 121.771 72.6662 121.792 72.6573 121.803C72.6707 121.786 72.6315 121.834 72.622 121.849C72.6209 121.85 72.6204 121.851 72.6198 121.853C72.6002 121.888 72.5812 121.928 72.5717 121.968C72.5667 121.988 72.5622 122.034 72.5622 122.032C72.5611 122.041 72.5549 122.076 72.5544 122.097C72.5527 122.141 72.5639 122.187 72.5712 122.228C72.5717 122.23 72.5717 122.232 72.5723 122.233C72.5723 122.234 72.5723 122.234 72.5728 122.235C72.5734 122.238 72.6192 122.347 72.6209 122.349C72.6231 122.353 72.6925 122.442 72.6959 122.445C72.7015 122.451 72.7842 122.514 72.7915 122.52C72.7932 122.521 72.7948 122.522 72.7971 122.523C72.8312 122.545 72.933 122.582 72.9184 122.576C72.9223 122.577 72.9257 122.578 72.9296 122.579C72.9508 122.584 72.9861 122.587 72.9973 122.588C73.0096 122.59 73.0426 122.596 73.0649 122.597C73.0666 122.597 73.0683 122.597 73.0694 122.597C73.07 122.597 73.0705 122.597 73.0716 122.597C73.0722 122.597 73.0733 122.597 73.0739 122.597C73.1164 122.591 73.1583 122.586 73.2008 122.58C73.2042 122.579 73.2075 122.578 73.2103 122.577C73.2299 122.569 73.2489 122.561 73.2679 122.553C73.2869 122.545 73.306 122.537 73.3261 122.529C73.3261 122.528 73.3266 122.528 73.3278 122.528C73.3294 122.526 73.3311 122.525 73.3328 122.524C73.3333 122.524 73.3333 122.524 73.3339 122.524C73.3663 122.498 73.3982 122.474 73.4306 122.449C73.4312 122.448 73.4323 122.447 73.4329 122.447C73.434 122.446 73.4357 122.445 73.4368 122.443C73.4642 122.411 73.4894 122.377 73.5134 122.343C73.5145 122.342 73.5151 122.34 73.5162 122.338C73.5358 122.299 73.557 122.258 73.5677 122.215C73.5682 122.214 73.5688 122.213 73.5688 122.211C73.5688 122.21 73.5688 122.21 73.5688 122.21C73.5749 122.167 73.5805 122.124 73.5861 122.082C73.5861 122.081 73.5861 122.079 73.5861 122.078C73.5867 122.074 73.5867 122.071 73.5867 122.067C73.5867 122.064 73.5867 122.063 73.5861 122.06Z" fill="#F0F0F0"/>
<path d="M73.1746 121.67C73.1682 121.667 73.1619 121.665 73.156 121.662C73.1529 121.661 73.1492 121.661 73.146 121.66C73.1555 121.664 73.165 121.666 73.1746 121.67Z" fill="#F0F0F0"/>
<path d="M64.2982 118.378C64.2798 118.32 64.2473 118.27 64.202 118.228C64.1702 118.204 64.1394 118.179 64.1075 118.155C64.0706 118.139 64.0332 118.124 63.9962 118.108C63.9135 118.086 63.8313 118.086 63.7485 118.108C63.7474 118.108 63.7457 118.108 63.7446 118.109C63.6663 118.131 63.5992 118.17 63.5416 118.227C63.4851 118.284 63.4454 118.352 63.4236 118.429C63.4231 118.431 63.4231 118.432 63.4231 118.434C63.4029 118.495 63.4001 118.557 63.4147 118.62C63.4147 118.661 63.4247 118.701 63.4465 118.737C63.4656 118.795 63.4969 118.845 63.5427 118.887L63.6367 118.96C63.6741 118.975 63.7111 118.992 63.7485 119.007C63.8106 119.026 63.8721 119.029 63.9347 119.016C63.9767 119.016 64.0153 119.004 64.0522 118.984C64.1098 118.965 64.1595 118.932 64.202 118.887C64.2261 118.856 64.2507 118.824 64.2747 118.792C64.2904 118.755 64.3066 118.718 64.3217 118.681C64.3413 118.62 64.3441 118.557 64.3301 118.495C64.3301 118.454 64.3195 118.414 64.2982 118.378Z" fill="#F0F0F0"/>
<path d="M62.8796 119.925C62.8567 119.843 62.8153 119.771 62.7549 119.711C62.7231 119.686 62.6901 119.661 62.6571 119.636C62.5821 119.592 62.501 119.57 62.4138 119.57C62.3473 119.567 62.2846 119.581 62.2276 119.611C62.1672 119.631 62.1157 119.664 62.0721 119.711C62.0252 119.755 61.9916 119.807 61.972 119.867C61.9418 119.925 61.9284 119.987 61.9307 120.053C61.9363 120.096 61.9418 120.139 61.948 120.182C61.9709 120.263 62.0123 120.334 62.0721 120.395C62.1046 120.42 62.1376 120.445 62.1694 120.47C62.2449 120.514 62.3266 120.536 62.4138 120.536C62.4804 120.539 62.5419 120.525 62.6 120.494C62.6593 120.475 62.7113 120.442 62.7549 120.395C62.8025 120.35 62.836 120.299 62.855 120.239C62.8858 120.182 62.8992 120.119 62.8964 120.053C62.8908 120.01 62.8852 119.968 62.8796 119.925Z" fill="#F0F0F0"/>
<path d="M64.9447 120.224C64.9212 120.14 64.8787 120.067 64.8172 120.005C64.7836 119.979 64.7507 119.954 64.7165 119.927C64.6394 119.883 64.556 119.86 64.4666 119.86C64.3983 119.857 64.3346 119.872 64.2753 119.903C64.2144 119.922 64.1607 119.957 64.1159 120.005C64.0678 120.05 64.0332 120.103 64.0131 120.164C63.9823 120.224 63.9678 120.287 63.9706 120.355C63.9767 120.399 63.9823 120.443 63.9884 120.488C64.0119 120.572 64.0544 120.644 64.1159 120.706C64.1489 120.732 64.183 120.758 64.216 120.784C64.2932 120.829 64.3771 120.851 64.4666 120.851C64.5348 120.854 64.5985 120.839 64.6578 120.809C64.7193 120.789 64.7724 120.755 64.8172 120.706C64.8658 120.661 64.8994 120.608 64.9195 120.546C64.9508 120.488 64.9648 120.423 64.962 120.355C64.9564 120.312 64.9508 120.267 64.9447 120.224Z" fill="#F0F0F0"/>
<path d="M57.1796 116.631C57.1567 116.55 57.1153 116.479 57.0555 116.418C57.023 116.393 56.9906 116.367 56.9576 116.342C56.8827 116.299 56.8016 116.277 56.7138 116.276C56.6478 116.274 56.5857 116.288 56.5281 116.319C56.4683 116.338 56.4163 116.371 56.3727 116.418C56.3257 116.461 56.2927 116.513 56.2726 116.574C56.2429 116.631 56.229 116.693 56.2312 116.759C56.2373 116.802 56.2429 116.845 56.2485 116.888C56.2715 116.97 56.3134 117.041 56.3727 117.101C56.4057 117.126 56.4375 117.151 56.4705 117.177C56.546 117.22 56.6271 117.242 56.7138 117.242C56.7809 117.245 56.8424 117.231 56.9 117.201C56.9598 117.181 57.0118 117.148 57.0555 117.101C57.103 117.057 57.136 117.006 57.1556 116.946C57.1852 116.888 57.1997 116.826 57.1969 116.759C57.1913 116.716 57.1852 116.674 57.1796 116.631Z" fill="#F0F0F0"/>
<path d="M54.7783 117.321C54.7554 117.239 54.7134 117.168 54.653 117.107C54.62 117.082 54.5876 117.056 54.5546 117.031C54.4786 116.987 54.3975 116.965 54.3097 116.965C54.2431 116.962 54.1799 116.976 54.1223 117.007C54.062 117.026 54.0099 117.06 53.9658 117.107C53.9182 117.151 53.8852 117.203 53.8657 117.264C53.8349 117.321 53.8215 117.384 53.8237 117.451C53.8293 117.494 53.8355 117.537 53.8411 117.58C53.864 117.663 53.9059 117.734 53.9658 117.795C53.9988 117.82 54.0318 117.845 54.0642 117.871C54.1402 117.914 54.2219 117.937 54.3097 117.937C54.3768 117.939 54.4389 117.925 54.497 117.895C54.5568 117.876 54.6094 117.842 54.653 117.795C54.7006 117.75 54.7341 117.698 54.7537 117.638C54.7839 117.58 54.7984 117.518 54.7956 117.451C54.7895 117.407 54.7839 117.365 54.7783 117.321Z" fill="#F0F0F0"/>
<path d="M56.8653 118.448C56.8563 118.405 56.806 118.31 56.8138 118.325C56.792 118.288 56.7657 118.253 56.735 118.222C56.7009 118.196 56.6668 118.17 56.6332 118.143C56.6321 118.143 56.6304 118.142 56.6293 118.142C56.5918 118.123 56.5477 118.1 56.5029 118.089C56.3833 118.059 56.3441 118.068 56.225 118.088C56.2233 118.088 56.2211 118.089 56.2183 118.09C56.1775 118.103 56.1311 118.117 56.0941 118.142C56.0606 118.168 56.0276 118.194 55.9946 118.219C55.9465 118.264 55.913 118.317 55.8934 118.378C55.871 118.416 55.8593 118.458 55.8593 118.502C55.8447 118.567 55.8481 118.632 55.8682 118.697L55.918 118.815C55.9437 118.848 55.9689 118.882 55.9946 118.914C56.0103 118.931 56.0321 118.937 56.0494 118.95L56.0679 118.964C56.0707 118.966 56.0723 118.97 56.0757 118.972C56.0913 118.987 56.1081 118.999 56.1271 119.011C56.1271 119.012 56.1299 119.013 56.1305 119.013C56.1299 119.013 56.1294 119.012 56.1288 119.012C56.1305 119.014 56.1322 119.015 56.1338 119.016C56.1355 119.017 56.1366 119.017 56.1378 119.018C56.1769 119.035 56.2166 119.052 56.2563 119.068C56.2999 119.074 56.3441 119.08 56.3877 119.086C56.4565 119.089 56.5203 119.074 56.579 119.044C56.6209 119.031 56.6578 119.01 56.6886 118.979C56.7261 118.957 56.7557 118.928 56.7775 118.89C56.8082 118.859 56.8295 118.823 56.8412 118.781C56.8726 118.721 56.8865 118.658 56.8837 118.59C56.8837 118.588 56.8843 118.587 56.8837 118.586C56.8832 118.563 56.8726 118.492 56.8653 118.448Z" fill="#F0F0F0"/>
<path d="M56.8651 118.448C56.8651 118.449 56.8656 118.45 56.8656 118.45C56.8561 118.394 56.8587 118.411 56.8651 118.448Z" fill="#F0F0F0"/>
<path d="M39.214 114.825C39.2023 114.784 39.1816 114.748 39.152 114.718C39.1179 114.666 39.0731 114.624 39.0166 114.594C38.9781 114.577 38.9395 114.562 38.9009 114.546C38.8159 114.523 38.7298 114.523 38.6442 114.546C38.6017 114.561 38.5598 114.58 38.5178 114.598C38.5133 114.6 38.5089 114.602 38.5044 114.605C38.4776 114.618 38.4535 114.641 38.4306 114.658C38.3573 114.714 38.3657 114.704 38.2986 114.802C38.2958 114.805 38.293 114.809 38.2902 114.813C38.288 114.818 38.2858 114.822 38.2835 114.827C38.2662 114.863 38.2489 114.907 38.2338 114.944C38.2332 114.947 38.2321 114.95 38.231 114.953C38.2248 114.995 38.2192 115.038 38.2136 115.08C38.2114 115.145 38.2248 115.206 38.255 115.263C38.2656 115.303 38.2863 115.338 38.316 115.368C38.3495 115.42 38.3942 115.46 38.4496 115.491L38.5631 115.539C38.6056 115.544 38.6476 115.55 38.6901 115.555C38.7555 115.558 38.817 115.544 38.8735 115.515C38.9221 115.499 38.9618 115.468 38.9999 115.433C38.9926 115.439 38.9853 115.445 38.978 115.45C38.9786 115.45 38.9786 115.45 38.9786 115.45C38.9853 115.444 38.9926 115.439 38.9999 115.433C38.9999 115.433 38.9999 115.433 39.0004 115.433C38.9926 115.439 38.9853 115.444 38.9786 115.45C38.9904 115.441 39.0032 115.433 39.0166 115.428C39.0373 115.416 39.0491 115.396 39.067 115.382C39.0698 115.379 39.0731 115.377 39.0759 115.374L39.067 115.382C39.0972 115.357 39.1302 115.337 39.152 115.303C39.1945 115.257 39.2235 115.202 39.2381 115.139C39.2437 115.096 39.2498 115.054 39.256 115.011C39.2582 114.944 39.2442 114.882 39.214 114.825Z" fill="#F0F0F0"/>
<path d="M40.3873 116.072C40.3649 115.994 40.3258 115.926 40.2682 115.869C40.2374 115.845 40.2061 115.821 40.1748 115.797C40.1027 115.755 40.0255 115.734 39.9422 115.734C39.8784 115.731 39.8197 115.744 39.7644 115.773C39.7068 115.792 39.6575 115.824 39.6156 115.869C39.5709 115.911 39.539 115.96 39.52 116.017C39.4915 116.072 39.478 116.131 39.4808 116.195C39.4864 116.235 39.492 116.276 39.497 116.318C39.5189 116.395 39.5586 116.464 39.6156 116.521C39.6469 116.545 39.6782 116.569 39.709 116.593C39.7811 116.635 39.8589 116.656 39.9422 116.657C40.0059 116.659 40.0652 116.645 40.12 116.617C40.1771 116.598 40.2268 116.567 40.2682 116.521C40.3135 116.48 40.3454 116.43 40.3638 116.373C40.3929 116.318 40.4058 116.258 40.4035 116.195L40.3873 116.072Z" fill="#F0F0F0"/>
<path d="M41.6259 114.748C41.5997 114.714 41.5734 114.681 41.5471 114.647C41.4845 114.585 41.4106 114.541 41.3256 114.517C41.2809 114.511 41.2367 114.505 41.192 114.5C41.1014 114.5 41.017 114.523 40.9387 114.568C40.9241 114.577 40.9096 114.586 40.8945 114.595C40.8369 114.626 40.7899 114.669 40.7541 114.724C40.7105 114.772 40.6809 114.828 40.6647 114.894C40.644 114.96 40.6412 115.027 40.6563 115.093C40.6591 115.159 40.6792 115.222 40.7156 115.279L40.7938 115.38C40.8559 115.442 40.9297 115.485 41.0142 115.509C41.0589 115.515 41.1031 115.521 41.1478 115.527C41.2379 115.527 41.3217 115.504 41.4 115.459C41.4151 115.451 41.4302 115.443 41.4459 115.436C41.504 115.404 41.551 115.361 41.5868 115.306C41.631 115.258 41.6612 115.201 41.6768 115.135C41.6975 115.069 41.7003 115.002 41.6852 114.935C41.6824 114.869 41.6623 114.806 41.6259 114.748Z" fill="#F0F0F0"/>
<path d="M90.8953 134.143C90.5777 133.095 90.2673 132.045 89.9369 131.001C89.6494 130.098 89.1651 129.359 88.1452 129.278C87.6486 129.239 87.1425 129.35 86.6538 129.427C86.0571 129.521 85.4604 129.615 84.8632 129.709C82.6403 130.059 80.6501 130.338 78.3982 130.367C74.7057 130.415 71.0402 128.055 67.6715 126.822C65.0125 125.849 62.2148 125.486 59.4383 125.013C56.7127 124.548 54.052 123.823 51.4691 122.836C50.0129 122.279 48.5864 121.647 47.1883 120.957C45.8848 120.314 44.5662 119.588 43.0799 119.531C42.8601 119.522 42.7074 119.789 42.8254 119.975C43.9371 121.726 44.7223 123.664 45.1355 125.697C45.3458 126.729 45.4559 127.778 45.466 128.83C45.4761 129.862 45.4 130.892 45.4229 131.924C45.4475 133.004 45.6343 134.045 46.0246 135.053C46.5693 136.457 48.0512 137.166 48.2956 137.204C56.3817 138.449 64.4387 136.489 72.4879 135.897C74.4608 135.752 76.441 135.691 78.4172 135.782C80.5237 135.88 82.5861 136.242 84.6714 136.526C85.7176 136.668 86.7678 136.779 87.8242 136.782C88.3431 136.784 88.862 136.761 89.3782 136.704C89.7836 136.659 90.2148 136.618 90.5732 136.405C91.4294 135.9 91.1291 134.914 90.8953 134.143Z" fill="#FAAE2B"/>
<path d="M90.3941 133.633C90.3639 133.351 90.3539 133.067 90.3516 132.784C90.3461 132.17 90.3606 131.557 90.2236 130.954C90.0038 129.986 89.3333 129.121 88.2988 129C87.7441 128.935 87.1893 129.07 86.6564 129.215C86.0676 129.374 85.4765 129.521 84.8776 129.639C83.6272 129.885 82.3595 130.009 81.0873 130.068C79.7525 130.13 78.3992 130.07 77.0694 130.212C76.9805 130.179 76.8904 130.146 76.8009 130.112C75.2743 129.539 73.755 128.946 72.2457 128.327C70.7878 127.73 69.3529 127.072 67.8805 126.511C66.464 125.971 64.9206 125.48 63.3934 125.648C62.5132 125.274 61.6107 124.954 60.6869 124.708C58.5401 124.137 56.3161 123.966 54.2023 123.254C52.2982 122.612 50.4858 121.731 48.6371 120.951C46.6368 120.107 44.4666 119.213 42.2588 119.231C42.0569 119.232 41.9965 119.559 42.2096 119.596C44.1551 119.931 45.9988 120.47 47.8039 121.277C49.6157 122.087 51.3733 123.017 53.226 123.732C54.1621 124.095 55.1178 124.397 56.098 124.615C57.2086 124.862 58.336 125.022 59.4494 125.253C61.5151 125.683 63.441 126.475 65.3048 127.45C66.3449 127.994 67.3504 128.598 68.3435 129.224C68.8496 129.543 69.3641 129.847 69.8657 130.173C70.3667 130.498 70.8465 130.851 71.3901 131.104C71.5718 131.189 71.7731 130.97 71.6149 130.812C70.8773 130.08 69.9412 129.517 69.1029 128.906C68.2557 128.288 67.3515 127.733 66.4495 127.2C65.7158 126.767 64.9609 126.365 64.1881 126.002C65.2746 126.209 66.3388 126.49 67.3817 126.89C68.8641 127.461 70.2991 128.157 71.7558 128.79C74.7162 130.078 77.7091 131.278 80.7489 132.368C81.5889 132.668 82.4294 132.971 83.2833 133.228C84.1076 133.477 85.0202 133.778 85.8892 133.697C86.1939 133.668 86.2683 133.258 85.9624 133.156C85.2159 132.906 84.4257 132.799 83.6702 132.57C82.9047 132.339 82.152 132.066 81.3976 131.801C80.3452 131.43 79.2984 131.044 78.2532 130.654C78.9092 130.684 79.5679 130.683 80.2239 130.679C81.415 130.672 82.61 130.61 83.7933 130.472C84.9346 130.338 86.0256 130.083 87.1396 129.807C87.6635 129.678 88.2641 129.571 88.754 129.868C89.1611 130.114 89.401 130.568 89.5196 131.014C89.6879 131.646 89.6616 132.318 89.6962 132.967C89.7236 133.487 89.7365 134.21 90.138 134.595C90.2733 134.725 90.4691 134.623 90.4847 134.451C90.5105 134.176 90.4232 133.906 90.3941 133.633Z" fill="#F0F0F0"/>
<path d="M57.1806 132.929C56.9514 132.48 56.4464 132.182 56.0281 131.925C55.569 131.644 55.0836 131.409 54.5882 131.198C53.5665 130.765 52.5029 130.445 51.4544 130.086C50.4198 129.731 49.3898 129.333 48.4688 128.732C47.4711 128.082 46.7006 127.178 46.0994 126.157C45.397 124.966 44.9966 123.658 44.4056 122.418C44.3099 122.217 44.0108 122.362 44.0583 122.564C44.3357 123.739 44.8143 124.93 45.3663 126.003C45.9165 127.071 46.6306 128.062 47.5785 128.814C49.3517 130.22 51.6143 130.704 53.6906 131.485C54.2677 131.702 54.8359 131.946 55.3755 132.246C55.9107 132.543 56.381 133.009 56.9441 133.237C57.1281 133.311 57.255 133.074 57.1806 132.929Z" fill="#F0F0F0"/>
<path d="M61.0169 134.831C60.7121 134.741 60.4174 134.759 60.102 134.744C59.7346 134.726 59.3728 134.694 59.0121 134.622C58.3215 134.484 57.6505 134.249 57.0163 133.945C56.3979 133.648 55.8141 133.291 55.2431 132.913C54.6414 132.515 54.0632 132.05 53.4095 131.739C53.268 131.672 53.1388 131.835 53.2428 131.955C53.7277 132.516 54.359 132.968 54.9629 133.393C55.5898 133.834 56.2502 134.236 56.9448 134.561C57.5918 134.863 58.269 135.102 58.9719 135.236C59.6189 135.359 60.4655 135.509 61.0594 135.159C61.1942 135.079 61.1634 134.875 61.0169 134.831Z" fill="#F0F0F0"/>
<path d="M22.5211 78.8966L57.3635 91.1432C58.8202 91.6549 60.4168 90.8892 60.9284 89.432L84.438 22.5488C84.9497 21.0915 84.1836 19.4955 82.7268 18.9838L47.8844 6.73721C46.4277 6.22498 44.8317 6.99053 44.3195 8.44727L20.8105 75.3316C20.2982 76.7878 21.0638 78.3843 22.5211 78.8966Z" fill="#FAAE2B"/>
<path d="M24.5779 77.3282L56.7406 88.6331C58.1012 89.1112 59.592 88.3959 60.0696 87.0354L82.2684 23.8815C82.7465 22.521 82.0313 21.0301 80.6702 20.552L48.508 9.24709C47.1469 8.76841 45.6566 9.48418 45.1785 10.8447L22.9797 73.9987C22.5016 75.3586 23.2168 76.8495 24.5779 77.3282Z" stroke="#F0F0F0" stroke-width="1.33333" stroke-miterlimit="10" stroke-linecap="round" stroke-linejoin="round"/>
<path d="M66.642 53.867C69.3636 46.1248 65.2932 37.6428 57.5515 34.9217C49.8093 32.2006 41.3273 36.2705 38.6062 44.0127C35.8845 51.7543 39.955 60.2364 47.6966 62.958C55.4388 65.6797 63.9209 61.6092 66.642 53.867Z" fill="#FAAE2B"/>
<path d="M51.9471 58.6274C52.1987 58.4635 52.39 58.2214 52.5024 57.9435C52.5963 57.7114 52.6959 57.4687 52.744 57.3686C52.9067 57.0258 53.0269 56.6702 53.1762 56.3234C53.3054 56.0248 53.5598 55.7726 53.9093 55.8168C54.0296 55.8319 54.1308 55.8817 54.2247 55.9443C54.2096 55.8079 54.1984 55.6675 54.237 55.5344C54.2728 55.4091 54.3847 55.2979 54.5043 55.247C54.709 55.1586 54.9332 55.2134 55.1463 55.2291C55.328 55.2431 55.4924 55.1955 55.649 55.0988C56.3089 54.6895 56.6209 53.9412 57.0068 53.2523C56.7932 53.1444 56.5907 53.0146 56.414 52.8955C56.0841 52.673 55.7715 52.4526 55.3884 52.3285C55.0121 52.2066 54.6184 52.1495 54.2404 52.0349C53.0185 51.6653 52.1009 50.6319 51.8285 49.3927C51.7452 49.0129 52.1825 48.7848 52.4828 48.9665C53.883 49.8126 55.7989 49.7841 57.165 48.872C58.1028 48.2463 58.8035 47.3186 58.9478 46.2516C59.5528 41.7595 57.1656 37.3054 53.7947 34.1252C55.6367 34.2723 57.495 34.7638 59.2855 35.6546C65.4133 38.7051 68.6891 45.7176 67.0837 52.3721C64.985 61.0733 55.923 65.8495 47.6966 62.9579C46.4546 62.5211 45.3082 61.9351 44.2681 61.2282C47.0456 61.0046 49.6868 60.0981 51.9471 58.6274Z" fill="#F0F0F0"/>
<path d="M58.8717 57.4308C59.3196 58.037 60.0835 58.3345 60.8233 58.2428C61.6219 58.1433 62.2554 57.5237 62.2828 56.7067C62.2963 56.3231 62.2191 55.9232 62.0899 55.5631C61.968 55.2248 61.7891 54.9564 61.524 54.6958C61.1952 54.3731 60.7668 54.2702 60.3961 54.2238C59.6395 54.1299 58.9287 54.6141 58.6128 55.279C58.2795 55.9803 58.4193 56.8191 58.8717 57.4308Z" fill="#FAAE2B"/>
<path d="M61.5687 46.7048C61.8421 46.5846 62.1766 46.7563 62.4316 46.8631C62.7201 46.9844 63.0014 47.1242 63.272 47.2803C63.8139 47.5901 64.3021 47.9776 64.7388 48.4222C64.9083 48.5938 65.2298 48.8589 65.2041 49.1262C65.1951 49.2162 65.1415 49.2873 65.0559 49.3135C64.9044 49.3611 64.7769 49.2492 64.6757 49.1519C64.452 48.9377 64.2451 48.7113 64.0068 48.5122C63.7703 48.3137 63.5192 48.1291 63.2609 47.9586C62.9762 47.7707 62.6776 47.6035 62.3667 47.4626C62.3186 47.4408 62.2627 47.4206 62.209 47.4011C62.2157 47.4296 62.2246 47.4592 62.2314 47.4877C62.2644 47.6292 62.2884 47.7724 62.3264 47.9133C62.3348 47.9463 62.3443 47.9793 62.3549 48.0111C62.3443 47.9798 62.3751 48.062 62.3784 48.0704C62.3919 48.1012 62.4058 48.1319 62.4215 48.1621C62.4254 48.17 62.4718 48.2471 62.4506 48.2153C62.469 48.2432 62.4903 48.2695 62.5121 48.2941C62.521 48.3047 62.5305 48.3142 62.54 48.3243C62.5428 48.3265 62.5434 48.3265 62.549 48.3305C62.5557 48.3338 62.5551 48.3338 62.5579 48.3355C62.5652 48.3394 62.573 48.3428 62.5814 48.3461C62.5865 48.3484 62.601 48.3523 62.6144 48.3562C62.62 48.3562 62.6245 48.3528 62.6306 48.3528C62.6591 48.3579 62.6882 48.364 62.7167 48.3718C62.733 48.3735 62.7503 48.3741 62.7542 48.3746C62.7648 48.3752 62.7749 48.3757 62.7855 48.3757C62.79 48.3757 62.7878 48.3757 62.79 48.3757C62.8023 48.3724 62.8157 48.3685 62.8185 48.3679L62.8392 48.3629C62.7771 48.3836 62.7906 48.3791 62.8778 48.3506C62.884 48.3489 62.8901 48.3472 62.8968 48.3456C62.922 48.3383 62.9225 48.3388 62.899 48.3467C62.875 48.3545 62.8756 48.3545 62.9013 48.3461C62.9136 48.3411 62.9264 48.336 62.9387 48.3293C63.0495 48.279 63.2005 48.3025 63.2782 48.402C63.3514 48.496 63.3766 48.6486 63.295 48.7482C63.2363 48.8198 63.1736 48.8841 63.0886 48.9254C63.0031 48.9679 62.9102 48.9786 62.8163 48.9814C62.7391 48.9836 62.667 48.9713 62.592 48.9534C62.4768 48.926 62.3941 48.8718 62.3343 48.765C62.3656 48.8019 62.3974 48.8388 62.4282 48.8751C62.1436 48.7068 61.9697 48.4255 61.8729 48.1174C61.8265 47.9686 61.7991 47.8154 61.7739 47.6616C61.7465 47.4944 61.7018 47.3362 61.661 47.1729C61.6599 47.1684 61.6615 47.1639 61.6604 47.1595C61.586 47.1091 61.5206 47.0504 61.4736 46.9761C61.4166 46.8849 61.477 46.7451 61.5687 46.7048Z" fill="#FAAE2B"/>
<path d="M61.6522 44.0727C61.8384 43.8379 62.302 43.8021 62.5811 43.7702C62.9322 43.7305 63.2857 43.7316 63.6357 43.778C63.9757 43.8233 64.3124 43.9044 64.6339 44.0252C64.9225 44.1348 65.3379 44.2863 65.5141 44.5559C65.5739 44.6481 65.5314 44.8204 65.3922 44.7969C65.0991 44.7482 64.8246 44.5514 64.5461 44.4452C64.243 44.3305 63.9282 44.2517 63.6061 44.212C63.2946 44.1739 62.9764 44.1672 62.6644 44.2002C62.5123 44.2159 62.3624 44.2422 62.2125 44.2724C62.0571 44.3037 61.8876 44.3646 61.7322 44.321C61.6332 44.293 61.5879 44.1533 61.6522 44.0727Z" fill="#FAAE2B"/>
<path d="M52.5131 50.6908C52.6501 50.7131 52.7306 50.8121 52.8346 50.8971C52.9515 50.9927 53.0773 51.0744 53.1948 51.1683C53.4257 51.3517 53.6762 51.5089 53.934 51.6509C54.1885 51.7907 54.4619 51.8986 54.7404 51.9803C54.9126 52.0306 55.0882 52.0569 55.2638 52.0832C55.2325 52.0239 55.2068 51.9635 55.2006 51.9009C55.1889 51.7812 55.2845 51.6968 55.402 51.7281C55.5513 51.7678 55.676 51.9059 55.78 52.0172C55.8952 52.1413 56.0048 52.2694 56.1244 52.3902C56.3588 52.625 56.6277 52.8498 56.9297 52.9924C57.1746 53.1076 57.4442 53.1697 57.7154 53.163C57.9989 53.1557 58.231 53.0394 58.4821 52.922C58.6056 52.8644 58.741 53.0126 58.6571 53.1283C58.2746 53.6529 57.4257 53.6182 56.8794 53.4236C56.5237 53.2961 56.2083 53.0786 55.9293 52.8258C55.8404 52.7453 55.7582 52.6575 55.6743 52.5708C55.6519 52.5848 55.6268 52.5937 55.5982 52.5976C55.2856 52.6396 54.9305 52.5484 54.6291 52.4679C54.3031 52.3812 53.9922 52.2521 53.6936 52.096C53.4045 51.9445 53.1461 51.7527 52.9045 51.534C52.7815 51.4222 52.6881 51.3003 52.5903 51.1666C52.5064 51.0514 52.3996 50.9323 52.4068 50.783C52.4096 50.7327 52.4605 50.6824 52.5131 50.6908Z" fill="#FAAE2B"/>
<path d="M54.431 55.8568C54.6284 56.0519 54.7845 56.3052 54.955 56.525C55.1189 56.7364 55.2883 56.9422 55.4611 57.1463C55.6261 57.3403 55.8017 57.5277 55.9968 57.6909C56.0947 57.772 56.197 57.8481 56.3033 57.9174C56.4134 57.9896 56.5499 58.0393 56.5952 58.1735C56.6287 58.2742 56.5885 58.3581 56.4861 58.39C56.3469 58.433 56.225 58.348 56.1109 58.2776C55.9968 58.206 55.8872 58.1266 55.7826 58.041C55.564 57.8626 55.3644 57.6613 55.1798 57.4482C54.9992 57.2397 54.8404 57.0137 54.6827 56.7873C54.5116 56.5418 54.3041 56.2946 54.1693 56.0273C54.0843 55.859 54.3097 55.7371 54.431 55.8568Z" fill="#FAAE2B"/>
<path d="M66.642 53.867C69.3636 46.1248 65.2932 37.6428 57.5515 34.9217C49.8093 32.2006 41.3273 36.2705 38.6062 44.0127C35.8845 51.7543 39.955 60.2364 47.6966 62.958C55.4388 65.6797 63.9209 61.6092 66.642 53.867Z" stroke="#F0F0F0" stroke-width="1.33333" stroke-miterlimit="10" stroke-linecap="round" stroke-linejoin="round"/>
<path d="M51.4405 75.5214L14.9926 81.4819C13.4687 81.7308 12.031 80.6974 11.7822 79.1735L0.341925 9.20737C0.0930782 7.68354 1.12593 6.24638 2.65033 5.99641L39.0977 0.0369568C40.6221 -0.211891 42.0592 0.820961 42.3087 2.34536L53.7489 72.311C53.9977 73.8354 52.9643 75.2725 51.4405 75.5214Z" fill="#FAAE2B"/>
<path d="M49.6907 73.6177L16.0455 79.1192C14.6218 79.3518 13.2797 78.3867 13.047 76.9635L2.24431 10.8994C2.01168 9.4757 2.97687 8.13361 4.40061 7.90098L38.0452 2.39951C39.469 2.16632 40.8111 3.13151 41.0437 4.55469L51.8459 70.6193C52.0785 72.0425 51.1139 73.3851 49.6907 73.6177Z" stroke="#F0F0F0" stroke-width="1.33333" stroke-miterlimit="10" stroke-linecap="round" stroke-linejoin="round"/>
<path d="M44.9112 37.6516C44.0171 37.6712 43.2526 37.1008 42.453 36.7782C41.4771 36.385 40.5578 36.5137 39.5568 36.7351C39.0329 36.8509 38.5156 36.9442 37.9799 36.8565C37.4128 36.7631 36.8816 36.5204 36.3263 36.3778C36.0892 36.3168 35.7895 36.2682 35.4808 36.2559C35.3035 35.9248 35.1078 35.6083 34.8953 35.3041C35.0485 35.0922 35.1922 34.8702 35.3365 34.6627C35.9186 33.8256 36.6467 33.098 37.4788 32.5092C38.2226 31.983 39.2269 31.705 39.8336 31.0083C40.4605 30.2886 40.2821 29.3541 40.1887 28.4885C40.0763 27.4534 40.4672 26.3898 41.419 25.8647C41.7299 25.693 41.6091 25.1909 41.2311 25.2496C40.1177 25.4235 38.9551 25.631 37.972 26.2148C37.5107 26.4888 37.1142 26.8388 36.7899 27.2666C36.4426 27.7246 36.1708 28.2173 35.6687 28.5271C35.195 28.8195 34.6677 29.0018 34.2036 29.3139C33.783 29.5957 33.4112 29.9503 33.0941 30.3451C32.574 30.9954 32.201 31.794 32.0668 32.6244C31.3829 32.2011 30.6448 31.8661 29.8692 31.6251C30.3557 30.6666 31.724 30.4396 32.3106 29.523C32.8944 28.6098 32.7647 27.5009 33.0074 26.4888C33.2563 25.4475 34.038 24.6741 34.6845 23.8633C35.3673 23.0072 35.8269 22.1085 35.7632 20.9879C35.7196 20.2318 35.525 19.497 35.5686 18.7359C35.6133 17.9586 35.8331 17.2188 36.191 16.5293C36.3202 16.2816 36.0098 16.0943 35.8023 16.1653C33.1948 17.0578 32.7127 20.0982 31.4075 22.156C30.1404 24.153 27.6603 25.1019 26.6934 27.3248C26.1594 28.5517 26.1901 30.0011 26.7734 31.2034C26.6269 31.2079 26.4798 31.2113 26.3316 31.223C26.2975 31.1503 26.2662 31.0771 26.2242 31.0066C25.9564 30.5592 25.5191 30.2081 25.3155 29.7232C24.9247 28.7927 25.5342 27.7453 25.2361 26.7829C24.9448 25.8395 24.0238 25.6052 23.2308 25.2194C22.0442 24.6423 21.8977 23.2979 21.8708 22.113C21.8658 21.9072 21.7042 21.7769 21.5034 21.8485C20.4818 22.2114 20.281 23.4092 20.1954 24.3492C20.1434 24.9152 20.0993 25.5068 20.2827 26.0554C20.4661 26.6056 20.9526 26.977 21.1399 27.516C21.3172 28.0255 21.1226 28.5903 21.0488 29.1019C20.9767 29.6036 21.0063 30.099 21.2456 30.5548C21.6399 31.3052 22.349 31.7571 23.119 32.0428C22.8964 32.1429 22.6789 32.2508 22.4658 32.3666C22.0157 32.0411 21.4945 32.0221 20.9873 31.8314C20.4404 31.6245 20.21 31.0167 19.9114 30.5598C19.5893 30.0683 19.2056 29.6192 18.7795 29.2171C17.9536 28.4387 16.9806 27.8913 15.9102 27.5261C14.7717 27.1386 13.6919 26.8103 12.9079 25.8379C12.1138 24.8537 11.5568 23.7168 10.718 22.7617C10.5285 22.5447 10.1957 22.7622 10.2986 23.0251C10.7063 24.0669 10.548 25.2306 10.6045 26.3216C10.6677 27.5244 11.1682 28.4695 11.7934 29.4727C12.4577 30.538 13.1215 31.6038 13.7864 32.6697C14.3584 33.5885 14.9048 34.5413 15.7833 35.2057C16.5444 35.7811 17.5616 36.2447 18.5402 36.3985C18.5128 36.451 18.4832 36.503 18.4569 36.5573C18.061 36.3129 17.5649 36.2044 17.1159 36.1787C16.1283 36.1211 15.1956 36.4628 14.2282 36.5892C13.6908 36.6596 13.1858 36.6177 12.659 36.4969C12.1865 36.389 11.7162 36.243 11.2303 36.2117C10.4552 36.1602 9.6203 36.3811 9.17293 37.0606C9.03816 37.2652 9.14498 37.5912 9.41619 37.6052C11.0692 37.6891 12.4214 38.8506 14.0537 39.0508C14.5234 39.1084 14.9987 39.0597 15.4696 39.0989C15.9869 39.1408 16.465 39.3321 16.9638 39.4573C17.1528 39.5054 17.3547 39.5373 17.5566 39.5479C17.5152 39.875 17.4922 40.2067 17.485 40.5411C16.2782 39.974 14.7985 40.758 13.802 41.5186C13.0728 42.075 12.3621 42.7331 11.4662 43.0088C10.7851 43.2185 9.49001 42.9954 9.58339 44.0926C9.60241 44.3157 9.8697 44.4275 10.0565 44.3442C10.7689 44.026 11.5792 44.3912 12.22 44.7178C12.8307 45.0293 13.4318 45.3765 14.1197 45.4833C14.8243 45.5929 15.5574 45.4252 16.1994 45.1327C16.5589 44.9694 16.8973 44.7603 17.2227 44.5377C17.4895 44.356 17.8076 44.163 18.0179 43.9052C18.1118 44.1759 18.2187 44.4387 18.335 44.6965C17.7344 44.7944 17.1478 45.1607 16.7765 45.5963C16.4655 45.9614 16.3022 46.4071 16.1339 46.8495C15.9477 47.3393 15.7101 47.7436 15.3309 48.1077C14.6392 48.7709 13.8887 49.3089 13.3977 50.1544C12.9123 50.9915 12.6529 51.9399 12.6736 52.9085C12.6814 53.2915 13.1746 53.4537 13.3469 53.0706C13.5353 52.6535 13.8496 52.2973 14.2438 52.0624C14.7068 51.7873 15.2235 51.7705 15.7403 51.6799C16.7245 51.5065 17.2747 50.8959 17.8943 50.1706C18.1801 49.8351 18.4832 49.5236 18.8992 49.3558C19.3947 49.1562 19.9136 49.0952 20.3688 48.7977C20.6154 48.6372 20.8363 48.427 21.0359 48.191C21.1769 48.3056 21.315 48.4236 21.462 48.5299C20.9286 48.9627 20.5634 49.598 20.3643 50.2617C20.0204 51.4126 20.1552 52.6177 20.1848 53.7987C20.2161 55.039 20.0657 56.2654 19.4735 57.372C19.2118 57.8602 18.8998 58.3199 18.656 58.8182C18.397 59.3466 18.2595 59.9131 18.2019 60.4974C18.137 61.1651 18.0973 61.8932 18.1717 62.5615C18.236 63.1464 18.5128 63.6732 19.0636 63.9215C19.2716 64.0149 19.4674 63.8113 19.4461 63.6105C19.3225 62.4513 20.5282 61.7311 21.391 61.2518C22.3685 60.7094 23.2448 60.1155 23.6603 59.0301C24.0898 57.9078 23.9958 56.6988 23.9058 55.5272C23.8554 54.873 23.7856 54.1963 23.903 53.5454C24.0159 52.9196 24.3794 52.5321 24.857 52.1457C25.4576 51.6598 25.9312 51.0793 26.2013 50.4021C26.2254 50.9937 26.4653 51.5904 26.8047 52.0551C27.0748 52.4259 27.4377 52.7127 27.7279 53.0656C28.0109 53.4095 28.1624 53.8233 28.3101 54.2383C28.5958 55.0379 28.9672 55.7341 29.5784 56.3342C30.1952 56.9392 30.9182 57.4056 31.6469 57.8613C32.0517 58.1147 32.4325 57.5734 32.0758 57.2652C31.4411 56.7172 31.7033 55.7554 31.9024 55.0664C32.1322 54.2712 32.3252 53.5079 32.0652 52.6943C31.9388 52.2978 31.714 51.9226 31.6195 51.5183C31.5132 51.0603 31.5742 50.5861 31.6251 50.1259C31.6273 50.1052 31.6301 50.0811 31.6323 50.0599C32.2111 50.5128 32.8738 50.8545 33.5856 51.0681C34.1186 51.2275 34.6666 51.3214 35.2224 51.3388C35.7688 51.3561 36.3257 51.3091 36.867 51.4103C38.0235 51.6279 38.477 52.8481 39.2979 53.5516C40.1295 54.2651 41.2138 54.6006 42.2701 54.8092C43.6413 55.081 45.0505 55.1363 46.3529 55.6877C46.7583 55.8588 47.0345 55.2884 46.7074 55.0306C45.8328 54.3417 44.9705 53.6393 44.1501 52.8867C43.3432 52.1479 42.6861 51.3097 42.038 50.4329C41.4609 49.6522 40.8296 48.9236 39.9259 48.5187C39.4461 48.304 38.9199 48.172 38.4887 47.8605C38.0621 47.5518 37.7657 47.1022 37.471 46.6744C37.1092 46.1482 36.6764 45.5924 36.1311 45.2596C36.262 45.2568 36.3951 45.2507 36.5287 45.235C36.9929 45.183 37.4514 45.0768 37.9184 45.0527C38.4105 45.0276 38.8925 45.1377 39.3611 45.2753C40.205 45.5225 41.0605 45.8401 41.9553 45.7271C42.8595 45.6125 43.4864 44.8593 44.366 44.7144C44.744 44.6177 44.6641 44.0395 44.267 44.106C43.4333 44.3112 42.7471 43.5854 42.1186 43.1559C41.4011 42.6655 40.6221 42.6744 39.8146 42.4491C38.8081 42.1678 37.6908 41.5281 36.5847 41.3827C36.5875 41.3469 36.5947 41.3128 36.5964 41.2764C36.8883 41.3452 37.1852 41.3866 37.4615 41.381C38.4121 41.3609 39.1794 40.947 39.8437 40.2889C40.182 39.9533 40.4974 39.5865 40.8905 39.3114C41.2988 39.0267 41.7713 38.9412 42.2589 38.9071C43.2554 38.8366 44.2676 38.949 45.1053 38.2953C45.3323 38.118 45.2333 37.6449 44.9112 37.6516Z" fill="#F0F0F0"/>
<path d="M22.6647 42.1011C22.2862 41.7415 21.751 41.51 21.2254 41.6482C20.9413 41.7225 20.6645 41.8774 20.5023 42.1307C20.3642 42.3455 20.2971 42.596 20.3166 42.8504C20.2904 43.0669 20.325 43.2967 20.4167 43.4689C20.6583 43.9219 21.1437 44.1746 21.6487 44.183C22.1866 44.1931 22.7593 44.032 23.0053 43.5081C23.2329 43.0255 23.0338 42.4512 22.6647 42.1011Z" fill="#FAAE2B"/>
<path d="M33.3797 39.947C32.967 39.5936 32.3899 39.5321 31.8866 39.6948C31.3705 39.862 30.931 40.3927 31.0204 40.9541C31.0165 40.9899 31.0104 41.0268 31.0098 41.0615C31.0053 41.3881 31.1351 41.7057 31.4186 41.8863C31.6428 42.0295 31.9045 42.0854 32.1657 42.1184C32.7109 42.1872 33.3601 42.0681 33.6783 41.5687C33.8416 41.3126 33.9098 40.9949 33.8422 40.6952C33.7745 40.3943 33.6129 40.1461 33.3797 39.947Z" fill="#FAAE2B"/>
<path d="M28.7651 41.7877C28.3563 41.6294 27.8832 41.7027 27.5169 41.9364C27.3 42.0751 27.1948 42.2932 27.0036 42.4509C26.6396 42.7506 26.6921 42.1047 26.7011 41.9107C26.7525 40.7794 26.5641 39.6291 26.2095 38.5566C25.8863 37.5802 25.4278 36.5211 24.6689 35.8014C24.0051 35.1723 23.0103 34.8267 22.1474 35.2539C21.8869 35.3825 22.0664 35.7689 22.3359 35.6627C23.4124 35.2388 24.3798 36.0334 24.9077 36.9119C25.463 37.8369 25.8125 38.8966 26.011 39.9529C26.1139 40.497 26.1659 41.0456 26.1804 41.5986C26.1905 42.013 26.1105 42.5197 26.4645 42.8211C26.7447 43.0604 27.1294 42.9877 27.3827 42.7478C27.5471 42.5924 27.6651 42.4106 27.872 42.3055C28.1265 42.1757 28.3832 42.1881 28.6583 42.23C28.9183 42.2703 29.0044 41.8805 28.7651 41.7877Z" fill="#FAAE2B"/>
<path d="M28.1037 43.8941C28.0606 43.8315 27.9667 43.8024 27.8945 43.8152C27.8202 43.8292 27.762 43.8611 27.7139 43.9198C27.6994 43.9372 27.6871 43.9567 27.6731 43.9746C27.6541 43.9992 27.6351 44.0233 27.6166 44.0479C27.5752 44.0881 27.5288 44.1234 27.4807 44.1558C27.4466 44.1748 27.4108 44.1916 27.3739 44.2045C27.3023 44.2223 27.2285 44.2302 27.1586 44.2531C27.0999 44.2732 27.0591 44.3426 27.0529 44.4002C27.0462 44.4662 27.0759 44.5282 27.1279 44.5679C27.2257 44.6429 27.3667 44.6462 27.483 44.6395C27.5797 44.6334 27.6793 44.6054 27.7676 44.5674C27.8744 44.5204 27.9645 44.4376 28.0416 44.351C28.0808 44.3073 28.1098 44.2598 28.1345 44.2061C28.1507 44.1709 28.1647 44.1318 28.168 44.0926C28.1742 44.016 28.1456 43.955 28.1037 43.8941Z" fill="#FAAE2B"/>
<path d="M30.8718 44.7656C30.6694 44.6604 30.3412 44.8707 30.1482 44.9439C29.9201 45.0301 29.6886 45.1056 29.4498 45.1548C29.2362 45.1989 29.0153 45.2319 28.7972 45.2275C28.6904 45.2252 28.5819 45.2191 28.4751 45.2062C28.4382 45.2017 28.4002 45.1939 28.3616 45.1866C28.3437 45.0446 28.2329 44.9249 28.0601 44.9479C27.8421 44.9769 27.7252 45.1878 27.5563 45.3052C27.5507 45.3091 27.5513 45.3086 27.549 45.3102C27.5468 45.3119 27.5474 45.3113 27.5418 45.3141C27.5194 45.327 27.4965 45.3393 27.4735 45.3505C27.4361 45.3695 27.398 45.3846 27.3589 45.3991C27.3533 45.4019 27.3427 45.4053 27.3365 45.407C27.3147 45.4131 27.2924 45.4182 27.27 45.4232C27.2241 45.4327 27.1777 45.4388 27.1313 45.4428C27.1252 45.4433 27.1145 45.4439 27.1078 45.4439C27.091 45.4439 27.0737 45.4433 27.0558 45.4422C27.0122 45.44 26.9691 45.4344 26.9261 45.4271C26.9071 45.4237 26.8881 45.4198 26.8685 45.4165C26.8618 45.4148 26.8629 45.4154 26.8612 45.4154C26.8562 45.4137 26.8545 45.4131 26.8422 45.4087C26.8053 45.3958 26.7689 45.384 26.7326 45.3695C26.7097 45.36 26.6879 45.3494 26.6661 45.3393C26.6599 45.3365 26.6599 45.3365 26.6577 45.3354C26.6554 45.3343 26.6565 45.3343 26.6521 45.3315C26.614 45.3097 26.5777 45.2851 26.5425 45.2588C26.4653 45.2012 26.396 45.1291 26.3026 45.0961C26.1415 45.0407 25.9788 45.171 25.981 45.3292C25.8418 45.4059 25.7031 45.4864 25.5694 45.5719C25.4442 45.6519 25.3267 45.7414 25.1931 45.8079C25.065 45.8711 24.9336 45.9203 24.795 45.9539C24.6423 45.9925 24.455 46.0036 24.3157 46.0814C24.1412 46.1781 24.1865 46.4113 24.3761 46.451C24.5344 46.4846 24.7295 46.4381 24.8855 46.4052C25.0477 46.3716 25.2127 46.3263 25.3642 46.2575C25.5163 46.1882 25.6517 46.0853 25.7887 45.9908C25.9178 45.9013 26.0504 45.8286 26.1958 45.7677C26.217 45.7593 26.2332 45.7436 26.2494 45.7296C26.4921 45.9254 26.8249 46.031 27.1168 46.0243C27.3505 46.0193 27.5843 45.9673 27.7901 45.8527C27.893 45.7945 27.9942 45.728 28.0803 45.6469C28.1161 45.6133 28.1558 45.577 28.1944 45.5389C28.3515 45.6178 28.5601 45.648 28.7044 45.6603C28.9616 45.6832 29.2261 45.6704 29.4789 45.62C29.7478 45.5669 30.0107 45.483 30.2673 45.3868C30.3954 45.3388 30.5223 45.2867 30.6487 45.2331C30.7706 45.1822 30.925 45.1106 30.9647 44.9741C30.991 44.883 30.9552 44.8092 30.8718 44.7656Z" fill="#FAAE2B"/>
<path d="M28.4057 46.6702C28.1049 46.8458 27.799 46.928 27.4512 46.9453C27.2901 46.9531 27.1274 46.9436 26.9669 46.924C26.7779 46.9011 26.5503 46.8212 26.3697 46.9089C26.2299 46.9772 26.1896 47.1941 26.3328 47.2842C26.434 47.3474 26.5548 47.3669 26.67 47.3932C26.7684 47.4156 26.8668 47.4357 26.9664 47.4508C27.1626 47.4805 27.36 47.4916 27.5585 47.4833C27.9606 47.4654 28.3571 47.3524 28.6926 47.1259C28.9443 46.9554 28.6725 46.5141 28.4057 46.6702Z" fill="#FAAE2B"/>
<path d="M31.6418 34.0541C30.9886 33.7197 30.2315 33.7096 29.5235 33.8433C29.1466 33.9143 28.7753 34.0189 28.4174 34.157C28.0886 34.2834 27.6485 34.4456 27.4175 34.7224C27.3331 34.823 27.417 35.0204 27.5607 34.9891C27.8951 34.917 28.2177 34.6955 28.5365 34.5658C28.858 34.4349 29.1913 34.3287 29.5313 34.2577C30.1834 34.1223 30.8729 34.1011 31.4818 34.4036C31.7044 34.5138 31.861 34.166 31.6418 34.0541Z" fill="#FAAE2B"/>
<path d="M23.129 37.3983C22.7375 37.297 22.331 37.2646 21.9289 37.3166C21.5319 37.3686 21.1348 37.5023 20.7915 37.7086C20.5091 37.8786 20.0097 38.1839 19.9756 38.5497C19.97 38.6106 19.9952 38.6861 20.0511 38.7185C20.064 38.7264 20.0774 38.7331 20.0902 38.7403C20.2239 38.7946 20.3257 38.6721 20.4157 38.5961C20.5622 38.473 20.7015 38.3439 20.8597 38.2365C20.877 38.2242 20.8972 38.2175 20.9145 38.2069C20.9676 38.3198 21.0403 38.4261 21.1097 38.5284C21.174 38.624 21.2344 38.7236 21.3082 38.8119C21.476 39.0127 21.7041 39.1072 21.9625 39.1201C22.2063 39.1312 22.4417 39.0926 22.6721 39.0121C22.8986 38.9338 23.1458 38.8007 23.2844 38.6C23.3527 38.5004 23.351 38.3629 23.2738 38.2689C23.2017 38.1823 23.0546 38.137 22.9511 38.1951C22.8583 38.2482 22.7739 38.3109 22.6861 38.3718C22.6788 38.3769 22.6464 38.397 22.671 38.3813C22.6486 38.3948 22.6263 38.4071 22.6033 38.4194C22.5625 38.4412 22.5206 38.4607 22.4775 38.4781C22.3813 38.5183 22.3601 38.5245 22.2544 38.5446C22.2085 38.5536 22.1627 38.5603 22.1168 38.5648C22.0961 38.5664 22.076 38.5681 22.0553 38.5692C22.0458 38.5698 22.0458 38.5703 22.0447 38.5703C22.0391 38.5698 22.0363 38.5698 22.0212 38.5692C21.9815 38.567 21.9412 38.5664 21.9015 38.5614C21.8406 38.553 21.8601 38.5575 21.812 38.5385C21.7958 38.5306 21.7942 38.5306 21.8076 38.5385C21.7986 38.5329 21.7902 38.5273 21.7824 38.5217C21.7662 38.5105 21.7505 38.4982 21.7354 38.4859C21.7544 38.5021 21.7142 38.4641 21.7103 38.4596C21.6963 38.4451 21.6834 38.4294 21.6706 38.4143C21.552 38.2728 21.4424 38.1235 21.3149 37.991C21.4978 37.9133 21.6879 37.8518 21.8819 37.8171C22.227 37.755 22.5826 37.7645 22.9243 37.8462C23.1033 37.8892 23.2794 37.9547 23.4455 38.0335C23.6177 38.1152 23.7469 38.2225 23.9421 38.2281C24.0796 38.232 24.1792 38.1073 24.1238 37.9748C23.9823 37.6326 23.4634 37.4838 23.129 37.3983Z" fill="#FAAE2B"/>
<path d="M28.9313 36.449C29.2702 36.2287 29.6449 36.0687 30.0425 35.9899C30.4351 35.9122 30.8544 35.9122 31.2459 35.9994C31.568 36.0704 32.1384 36.2002 32.2871 36.5368C32.3117 36.5916 32.3123 36.6727 32.2692 36.7208C32.2597 36.732 32.2491 36.7431 32.239 36.7532C32.1306 36.8472 31.9941 36.7644 31.8845 36.7208C31.7072 36.6509 31.5333 36.5726 31.3493 36.5206C31.3292 36.5155 31.308 36.5155 31.2884 36.5105C31.2739 36.6341 31.2392 36.7577 31.2056 36.8774C31.1754 36.9881 31.1491 37.1022 31.1072 37.2095C31.0127 37.4533 30.8265 37.6155 30.5855 37.7094C30.3579 37.7978 30.1224 37.8364 29.8781 37.8336C29.6382 37.8308 29.3619 37.7844 29.1668 37.6379C29.07 37.5652 29.0281 37.4343 29.0717 37.3208C29.112 37.2157 29.2372 37.1256 29.3535 37.1486C29.4581 37.1687 29.5588 37.2017 29.6611 37.2313C29.6695 37.2336 29.7075 37.242 29.6784 37.2358C29.7036 37.2408 29.7293 37.2453 29.7545 37.2498C29.8003 37.2576 29.8468 37.2621 29.8932 37.2654C29.9966 37.2727 30.019 37.2722 30.1258 37.2582C30.1717 37.2515 30.2175 37.2431 30.2623 37.233C30.2824 37.228 30.3025 37.2229 30.3221 37.2174C30.3316 37.2146 30.331 37.2151 30.3322 37.2151C30.3377 37.2129 30.34 37.2123 30.354 37.2067C30.3914 37.1916 30.4295 37.1782 30.4652 37.1609C30.5206 37.134 30.5033 37.1441 30.543 37.1105C30.5558 37.0982 30.5575 37.0977 30.5474 37.1089C30.5536 37.101 30.5597 37.0938 30.5659 37.0854C30.5771 37.0697 30.5888 37.0529 30.5983 37.0362C30.586 37.0574 30.6118 37.0088 30.6146 37.0037C30.6224 36.9853 30.6302 36.9668 30.6375 36.9478C30.7051 36.7756 30.7605 36.6 30.8399 36.4339C30.6414 36.4177 30.4418 36.4205 30.2466 36.4484C29.8999 36.4999 29.5655 36.6224 29.268 36.8086C29.112 36.9064 28.9655 37.025 28.8335 37.1525C28.6965 37.2845 28.6081 37.4271 28.4253 37.4947C28.2955 37.5417 28.1619 37.4556 28.1714 37.3124C28.1965 36.9428 28.6417 36.6369 28.9313 36.449Z" fill="#FAAE2B"/>
<path d="M28.4553 49.2796C27.5768 49.3104 26.705 49.3713 25.8282 49.2634C24.9939 49.1611 24.1791 48.9441 23.4029 48.622C21.8064 47.9588 20.447 46.8354 19.4622 45.4166C17.5106 42.6055 17.2774 38.7794 19.1071 35.8537C19.5612 35.1284 20.1142 34.4679 20.7568 33.9032C21.4334 33.3065 22.1889 32.8709 22.9863 32.4604C23.2911 32.3027 23.0831 31.8766 22.7671 31.9834C21.2209 32.5102 19.8604 33.7208 18.9119 35.0249C17.9166 36.3944 17.2835 38.0413 17.1655 39.7334C16.8977 43.5735 19.0998 47.304 22.5171 49.0302C23.4247 49.4893 24.4078 49.7975 25.411 49.9596C26.4383 50.1246 27.5489 50.1766 28.5538 49.8785C28.9301 49.7673 28.8485 49.2651 28.4553 49.2796Z" fill="#FAAE2B"/>
<path d="M36.1357 37.8614C35.478 35.681 34.0509 33.8306 32.1496 32.5886C31.1224 31.9176 29.9833 31.3511 28.7569 31.1883C28.5975 31.1665 28.5405 31.4064 28.6909 31.4618C29.6673 31.8236 30.6241 32.2156 31.4914 32.8011C32.3644 33.3905 33.1098 34.1466 33.7579 34.9731C35.1565 36.758 36.0803 39.0715 35.5681 41.3525C35.4243 41.9933 35.1872 42.6146 34.9222 43.2146C34.642 43.8482 34.2573 44.4488 34.0112 45.0947C33.8737 45.4559 34.3837 45.7406 34.6096 45.4179C34.9753 44.8962 35.2431 44.2738 35.5105 43.6967C35.7856 43.1056 36.03 42.4972 36.2016 41.8669C36.5662 40.5232 36.5377 39.1951 36.1357 37.8614Z" fill="#FAAE2B"/>
<path d="M70.6022 100.359C70.6022 100.29 70.2605 96.803 70.3013 95.5723C70.3427 94.3414 70.3427 91.4285 69.1941 87.8725C68.045 84.3166 63.828 76.4989 56.2424 73.2158C48.6567 69.9338 46.1582 68.165 45.1192 66.9437C44.0796 65.7219 42.4384 63.971 41.1986 63.0779C39.9588 62.1843 37.1505 60.5246 36.1109 58.9381C35.0714 57.3517 33.1203 53.7593 30.8958 52.7751C28.6713 51.7904 25.8814 51.754 24.5136 52.3557C23.1458 52.9574 21.7964 54.5439 21.7964 54.5439C21.7964 54.5439 25.0224 60.6487 25.1835 61.619C25.3446 62.5886 26.3371 63.8977 26.7381 64.354C27.1396 64.8098 31.1514 67.7825 32.3911 69.4602C33.6309 71.1378 37.2417 75.4772 37.5515 78.7049C37.8618 81.9321 37.807 83.4459 38.4635 84.9591C39.12 86.4729 41.0711 89.8651 41.5632 91.8339C42.0559 93.8036 41.9166 95.8637 41.9166 95.8637L70.6022 100.359Z" fill="#F0F0F0"/>
<path d="M90.5188 134.777C89.4502 132.256 87.7441 130.032 86.2454 127.759C85.4776 126.595 84.7506 125.408 84.1031 124.173C83.4287 122.887 82.8108 121.572 82.1336 120.287C81.4429 118.98 80.7048 117.698 79.9208 116.446C79.1658 115.238 78.2857 114.096 77.5934 112.851C76.3083 110.539 76.5689 107.748 75.4343 105.378C74.8711 104.202 73.9479 103.24 73.0604 102.303C72.211 101.406 71.4404 100.491 70.8141 99.431C70.7179 98.5022 70.7151 97.5634 70.7151 96.6227C70.7163 94.0471 70.4791 91.5032 69.8422 89.0018C68.6421 84.285 66.1766 79.803 62.4691 76.5976C58.5155 73.1803 53.401 71.8846 48.9374 69.3313C47.8391 68.7027 46.7867 67.9909 45.8416 67.1465C44.7434 66.1656 43.8212 65.0081 42.7252 64.025C40.7305 62.235 38.1665 61.1602 36.4604 59.0436C34.9869 57.215 34.0614 54.9278 32.2362 53.3906C30.1945 51.6704 27.5383 51.6117 25.0196 51.9903C24.3558 51.5854 23.6725 51.2136 22.9545 50.9116C22.3578 50.66 21.7511 50.4598 21.1158 50.3267C20.5096 50.1992 19.8553 50.0762 19.2374 50.1751C19.1424 50.1908 19.1032 50.2601 19.092 50.3356C18.7957 50.698 18.8952 51.3114 18.9606 51.7359C19.0495 52.3074 19.2464 52.8493 19.4807 53.3755C19.9459 54.4201 20.5778 55.3959 21.1745 56.3689C21.7516 57.3106 22.3533 58.2422 23.0411 59.1079C23.3834 59.5385 23.7536 59.9506 24.1439 60.3376C24.239 60.4321 24.3396 60.5204 24.4375 60.611C24.5957 60.9247 24.7456 61.2429 24.8865 61.5678C25.2271 62.3496 25.5621 63.1437 26.072 63.8337C27.0417 65.1468 28.4543 66.0085 29.675 67.0604C32.0606 69.116 34.0133 71.6363 35.4544 74.4346C36.23 75.9394 36.9268 77.5662 37.2265 79.2399C37.3954 80.1788 37.4077 81.1356 37.5257 82.0806C37.6336 82.944 37.8383 83.7856 38.1235 84.6071C38.7671 86.4564 39.8235 88.1071 40.6215 89.8839C40.8161 90.3166 41.0168 90.7493 41.2002 91.1866C41.4133 91.6949 41.5324 92.2262 41.6325 92.7671C41.8254 93.8123 41.8696 94.826 41.8277 95.8851C41.8215 96.0535 42.0782 96.0865 42.1196 95.9248C42.3321 95.1039 42.2974 94.2479 42.1727 93.4134C42.0452 92.5606 41.7186 91.7533 41.4759 90.93C40.9933 89.2904 40.1758 87.7521 39.4941 86.1902C38.7822 84.5601 38.2896 82.9228 38.1464 81.1451C38.0726 80.2218 38.0089 79.2975 37.793 78.3938C37.5973 77.574 37.3126 76.7766 36.9995 75.9953C36.1199 73.8055 34.9226 71.7633 33.458 69.9218C33.7175 69.8592 33.9742 69.7859 34.2225 69.6853C34.4266 69.6019 34.6094 69.508 34.7968 69.3928C34.9746 69.2849 35.1692 69.1758 35.2978 69.0097C35.3515 68.9404 35.3755 68.856 35.328 68.7743C35.2855 68.7011 35.1905 68.6602 35.1088 68.6849C34.9058 68.7452 34.7319 68.8655 34.5435 68.9594C34.3718 69.0444 34.1934 69.1221 34.0184 69.201C33.7298 69.3307 33.4278 69.4286 33.1214 69.5086C32.8094 69.1339 32.4906 68.7637 32.1556 68.4075C32.8172 68.3566 33.4776 68.1838 34.0939 67.9663C34.4948 67.8248 34.8862 67.6565 35.262 67.4585C35.4466 67.3612 35.6238 67.2538 35.7966 67.137C35.975 67.0173 36.1763 66.9021 36.2932 66.7187C36.3888 66.5694 36.2317 66.396 36.0734 66.4329C35.8805 66.4782 35.7167 66.6119 35.5467 66.7097C35.3666 66.8126 35.1832 66.9127 34.9992 67.0095C34.6402 67.1996 34.2689 67.3674 33.887 67.5072C33.2002 67.7588 32.4928 67.8885 31.7782 68.0177C30.7515 66.9781 29.6303 66.0683 28.4755 65.1708C27.8632 64.6938 27.2536 64.2 26.7565 63.5994C26.2051 62.9329 25.8495 62.1349 25.4977 61.352C25.4916 61.338 25.4849 61.3246 25.4787 61.3106C25.4832 61.31 25.4871 61.3072 25.491 61.3072C26.0267 61.3436 26.5994 61.2195 27.106 61.0886C27.6591 60.9454 28.2736 60.7665 28.7478 60.4371C29.2165 60.1111 29.524 59.5827 29.7572 59.0721C29.9938 58.5554 30.1274 57.7982 29.9803 56.8705C29.8881 56.29 29.661 55.7616 29.3031 55.2975C28.5415 54.3105 27.3873 53.5863 26.3763 52.8783C26.1397 52.7117 25.8987 52.5501 25.656 52.3907C27.507 52.167 29.396 52.2229 31.0149 53.1837C33.0621 54.3983 34.0821 56.7016 35.3823 58.5901C36.0908 59.619 36.9117 60.5266 37.892 61.3039C38.941 62.1354 40.0802 62.8423 41.1522 63.6425C42.298 64.4986 43.2391 65.5471 44.2149 66.5834C45.1348 67.5597 46.1347 68.4343 47.2441 69.1904C51.4488 72.0591 56.584 73.2027 60.7031 76.2213C64.6108 79.0855 67.3152 83.3931 68.7288 87.9848C69.4485 90.3234 69.8534 92.7552 69.9244 95.2013C69.9697 96.72 69.8892 98.2444 70.0872 99.7561C70.27 101.151 70.7202 102.488 71.3918 103.724C71.72 104.326 72.0969 104.843 72.5795 105.33C72.7367 105.489 72.971 105.289 72.8781 105.1C72.2451 103.822 71.5215 102.596 71.1373 101.212C71.1138 101.126 71.0959 101.039 71.0747 100.954C71.3783 101.383 71.7211 101.786 72.065 102.175C72.8491 103.061 73.7002 103.902 74.3421 104.903C75.7759 107.139 75.5366 109.894 76.513 112.297C77.0397 113.594 77.9155 114.707 78.676 115.871C79.4729 117.089 80.225 118.337 80.9324 119.61C82.3259 122.119 83.4712 124.754 85.0168 127.178C85.8562 128.494 86.7548 129.77 87.616 131.071C88.4772 132.372 89.2707 133.7 90.0128 135.073C90.1967 135.413 90.6609 135.113 90.5188 134.777Z" fill="#FAAE2B"/>
<path d="M43.4902 102.279C43.2643 101.886 42.9791 101.531 42.7532 101.136C42.5384 100.761 42.3433 100.362 42.1638 99.9691C41.7869 99.1443 41.5084 98.2721 41.3087 97.3874C41.089 96.4149 40.9671 95.4205 40.9016 94.4258C40.8686 93.9286 40.8507 93.4314 40.8424 92.9332C40.8323 92.3936 40.8642 91.8388 40.7948 91.3032C40.7708 91.1175 40.4711 91.0269 40.4297 91.2541C40.2451 92.2739 40.3201 93.3941 40.3654 94.4258C40.4112 95.4726 40.5236 96.5182 40.7406 97.5438C40.9357 98.466 41.2187 99.3669 41.609 100.225C41.9759 101.034 42.4831 101.944 43.1642 102.53C43.3375 102.678 43.6132 102.492 43.4902 102.279Z" fill="#FAAE2B"/>
</svg>
