<svg width="26" height="26" viewBox="0 0 26 26" fill="none" xmlns="http://www.w3.org/2000/svg">
<path d="M15.167 4.3335H10.8337C6.74815 4.3335 4.7054 4.3335 3.4362 5.6027C2.52236 6.51654 2.26649 7.83139 2.19485 10.021H23.8058C23.7342 7.83139 23.4783 6.51654 22.5645 5.6027C21.2952 4.3335 19.2525 4.3335 15.167 4.3335Z" fill="#FAAE2B"/>
<path d="M10.8337 21.6668H15.167C19.2525 21.6668 21.2952 21.6668 22.5645 20.3976C23.8337 19.1284 23.8337 17.0857 23.8337 13.0002C23.8337 12.5214 23.8337 12.0707 23.8316 11.646H2.16903C2.16699 12.0707 2.16699 12.5214 2.16699 13.0002C2.16699 17.0857 2.16699 19.1284 3.4362 20.3976C4.7054 21.6668 6.74815 21.6668 10.8337 21.6668Z" fill="#FAAE2B"/>
<path fill-rule="evenodd" clip-rule="evenodd" d="M5.68783 17.3335C5.68783 16.8848 6.05159 16.521 6.50033 16.521H10.8337C11.2824 16.521 11.6462 16.8848 11.6462 17.3335C11.6462 17.7822 11.2824 18.146 10.8337 18.146H6.50033C6.05159 18.146 5.68783 17.7822 5.68783 17.3335Z" fill="white"/>
<path fill-rule="evenodd" clip-rule="evenodd" d="M12.7295 17.3335C12.7295 16.8848 13.0933 16.521 13.542 16.521H15.167C15.6157 16.521 15.9795 16.8848 15.9795 17.3335C15.9795 17.7822 15.6157 18.146 15.167 18.146H13.542C13.0933 18.146 12.7295 17.7822 12.7295 17.3335Z" fill="white"/>
</svg>
