<svg width="20" height="20" viewBox="0 0 20 20" fill="none" xmlns="http://www.w3.org/2000/svg">
<path d="M9.99996 1.04169C5.05996 1.04169 1.04163 5.06085 1.04163 10C1.04163 14.9392 5.05996 18.9584 9.99996 18.9584C14.94 18.9584 18.9583 14.9392 18.9583 10C18.9583 5.06085 14.94 1.04169 9.99996 1.04169ZM9.99996 17.7084C5.74913 17.7084 2.29163 14.2509 2.29163 10C2.29163 5.74919 5.74913 2.29169 9.99996 2.29169C14.2508 2.29169 17.7083 5.74919 17.7083 10C17.7083 14.2509 14.2508 17.7084 9.99996 17.7084ZM13.3583 7.61334C13.6025 7.85751 13.6025 8.25337 13.3583 8.49754L9.46913 12.3867C9.34746 12.5084 9.18747 12.57 9.02747 12.57C8.86747 12.57 8.70747 12.5092 8.5858 12.3867L6.64163 10.4425C6.39746 10.1984 6.39746 9.8025 6.64163 9.55833C6.88579 9.31416 7.28163 9.31416 7.5258 9.55833L9.02831 11.0609L12.475 7.61421C12.7191 7.37004 13.1141 7.37001 13.3583 7.61334Z" fill="white"/>
</svg>
