<svg width="32" height="32" viewBox="0 0 32 32" fill="none" xmlns="http://www.w3.org/2000/svg">
<path d="M6.25 6.75C4.4575 6.75 3 5.2925 3 3.5C3 1.7075 4.4575 0.25 6.25 0.25C8.0425 0.25 9.5 1.7075 9.5 3.5C9.5 5.2925 8.0425 6.75 6.25 6.75ZM6.25 1.75C5.285 1.75 4.5 2.535 4.5 3.5C4.5 4.465 5.285 5.25 6.25 5.25C7.215 5.25 8 4.465 8 3.5C8 2.535 7.215 1.75 6.25 1.75Z" fill="#00473E"/>
<path d="M26.5 19.25C25.1225 19.25 24 18.1275 24 16.75C24 15.3725 25.1225 14.25 26.5 14.25C27.8775 14.25 29 15.3725 29 16.75C29 18.1275 27.8775 19.25 26.5 19.25ZM26.5 15.75C25.9475 15.75 25.5 16.1975 25.5 16.75C25.5 17.3025 25.9475 17.75 26.5 17.75C27.0525 17.75 27.5 17.3025 27.5 16.75C27.5 16.1975 27.0525 15.75 26.5 15.75Z" fill="#00473E"/>
<path d="M16 6.75C14.2075 6.75 12.75 5.2925 12.75 3.5C12.75 1.7075 14.2075 0.25 16 0.25C17.7925 0.25 19.25 1.7075 19.25 3.5C19.25 5.2925 17.7925 6.75 16 6.75ZM16 1.75C15.035 1.75 14.25 2.535 14.25 3.5C14.25 4.465 15.035 5.25 16 5.25C16.965 5.25 17.75 4.465 17.75 3.5C17.75 2.535 16.965 1.75 16 1.75Z" fill="#00473E"/>
<path d="M31.4876 26.865L31.0476 24.4475C30.6526 22.28 28.9176 20.6425 26.7301 20.3775C24.0526 20.0525 21.9876 17.9525 21.7101 15.2725L21.4376 12.665C21.1451 9.8625 18.8026 7.75 15.9851 7.75C14.8201 7.75 13.7076 8.11 12.7676 8.7925C12.4326 9.035 12.3576 9.505 12.6001 9.84C12.8426 10.175 13.3126 10.25 13.6476 10.0075C14.3301 9.5125 15.1376 9.25 15.9851 9.25C18.0326 9.25 19.7351 10.785 19.9476 12.82L20.2201 15.4275C20.4451 17.5825 21.5851 19.435 23.2526 20.605V24.5C23.2526 25.4125 23.6326 26.24 24.2426 26.83L24.5051 31.0475C24.5301 31.445 24.8601 31.75 25.2526 31.75C25.2676 31.75 25.2851 31.75 25.3001 31.7475C25.7126 31.7225 26.0276 31.365 26.0026 30.9525L25.7976 27.67C26.0251 27.72 26.2601 27.75 26.5051 27.75H27.2076L27.0076 30.9525C26.9826 31.365 27.2951 31.7225 27.7101 31.7475C27.7251 31.7475 27.7426 31.75 27.7576 31.75C28.1501 31.75 28.4801 31.445 28.5051 31.0475L28.7551 27.0475C28.7676 26.84 28.6951 26.6375 28.5526 26.4875C28.4101 26.3375 28.2076 26.25 28.0001 26.25H26.5001C25.5351 26.25 24.7501 25.465 24.7501 24.5V21.415C25.3176 21.6375 25.9201 21.7925 26.5501 21.8675C28.0826 22.0525 29.2976 23.1975 29.5726 24.715L30.0126 27.1325C30.0776 27.495 30.3951 27.7475 30.7501 27.7475C30.7951 27.7475 30.8401 27.7425 30.8851 27.735C31.2926 27.665 31.5626 27.2725 31.4876 26.865Z" fill="#00473E"/>
<path d="M19.25 18.75C18.835 18.75 18.5 19.085 18.5 19.5V23.75H13.5C13.5 23.335 13.165 23 12.75 23C12.335 23 12 23.335 12 23.75C12 24.5775 12.6725 25.25 13.5 25.25H13.555L14.0025 31.0575C14.0325 31.45 14.36 31.75 14.75 31.75C14.77 31.75 14.79 31.75 14.8075 31.7475C15.22 31.715 15.53 31.355 15.4975 30.9425L15.06 25.25H16.94L16.5025 30.9425C16.47 31.355 16.78 31.715 17.1925 31.7475C17.2125 31.75 17.2325 31.75 17.25 31.75C17.6375 31.75 17.9675 31.45 17.9975 31.0575L18.445 25.25H18.5C19.3275 25.25 20 24.5775 20 23.75V19.5C20 19.085 19.665 18.75 19.25 18.75Z" fill="#00473E"/>
<path d="M11.9375 12.665C11.645 9.8625 9.3025 7.75 6.485 7.75C3.46 7.75 1 10.21 1 13.235V20.5C1 21.4775 1.6275 22.3125 2.5 22.6225V29.5C2.5 30.74 3.51 31.75 4.75 31.75C5.3275 31.75 5.8525 31.53 6.25 31.1725C6.6475 31.53 7.1725 31.75 7.75 31.75C8.99 31.75 10 30.74 10 29.5V23C10 22.585 9.665 22.25 9.25 22.25C8.835 22.25 8.5 22.585 8.5 23V29.5C8.5 29.9125 8.1625 30.25 7.75 30.25C7.3375 30.25 7 29.9125 7 29.5V20.5C7 20.085 6.665 19.75 6.25 19.75C5.835 19.75 5.5 20.085 5.5 20.5V29.5C5.5 29.9125 5.1625 30.25 4.75 30.25C4.3375 30.25 4 29.9125 4 29.5V22C4 21.585 3.665 21.25 3.25 21.25C2.8375 21.25 2.5 20.9125 2.5 20.5V13.235C2.5 11.0375 4.2875 9.25 6.485 9.25C8.52 9.25 10.215 10.7675 10.4425 12.785V20.5C10.4425 20.915 10.7775 21.25 11.1925 21.25C11.6075 21.25 11.9425 20.915 11.9425 20.5V12.7425C11.9425 12.7175 11.94 12.6925 11.9375 12.665Z" fill="#00473E"/>
</svg>
