<svg width="24" height="24" viewBox="0 0 24 24" fill="none" xmlns="http://www.w3.org/2000/svg">
<path d="M18.5297 17.4698C18.8227 17.7628 18.8227 18.2378 18.5297 18.5308C18.3837 18.6768 18.1917 18.7508 17.9997 18.7508C17.8077 18.7508 17.6158 18.6778 17.4698 18.5308L11.9997 13.0608L6.52975 18.5308C6.38375 18.6768 6.19175 18.7508 5.99975 18.7508C5.80775 18.7508 5.61575 18.6778 5.46975 18.5308C5.17675 18.2378 5.17675 17.7628 5.46975 17.4698L10.9398 11.9998L5.46975 6.52981C5.17675 6.23681 5.17675 5.76177 5.46975 5.46877C5.76275 5.17577 6.23775 5.17577 6.53075 5.46877L12.0008 10.9388L17.4707 5.46877C17.7637 5.17577 18.2387 5.17577 18.5317 5.46877C18.8247 5.76177 18.8247 6.23681 18.5317 6.52981L13.0617 11.9998L18.5297 17.4698Z" fill="#727272"/>
</svg>
