<svg width="20" height="21" viewBox="0 0 20 21" fill="none" xmlns="http://www.w3.org/2000/svg">
<path d="M17.9412 1.08826H2.05885C1.24666 1.08826 0.588257 1.74666 0.588257 2.55885V18.4412C0.588257 19.2534 1.24666 19.9118 2.05885 19.9118H17.9412C18.7534 19.9118 19.4118 19.2534 19.4118 18.4412V2.55885C19.4118 1.74666 18.7534 1.08826 17.9412 1.08826ZM17.2059 2.55892C17.6117 2.55892 17.9412 2.88833 17.9412 3.29421C17.9412 3.70009 17.6117 4.02951 17.2059 4.02951C16.7999 4.02951 16.4706 3.70009 16.4706 3.29421C16.4706 2.88833 16.7999 2.55892 17.2059 2.55892ZM2.79416 2.55892C3.20004 2.55892 3.52945 2.88829 3.52945 3.29421C3.52945 3.70006 3.20004 4.02951 2.79416 4.02951C2.38827 4.02951 2.05886 3.70006 2.05886 3.29421C2.05886 2.88829 2.38827 2.55892 2.79416 2.55892ZM2.7941 18.4413C2.38818 18.4413 2.05881 18.1119 2.05881 17.706C2.05881 17.3001 2.38818 16.9707 2.7941 16.9707C3.19995 16.9707 3.5294 17.3001 3.5294 17.706C3.5294 18.1119 3.19995 18.4413 2.7941 18.4413ZM9.95661 18.4845C5.55404 18.4845 1.97207 14.9027 1.97207 10.5001C1.97207 6.09738 5.55404 2.51555 9.95661 2.51555C14.3592 2.51555 17.9412 6.09738 17.9412 10.5001C17.9412 14.9027 14.3592 18.4845 9.95661 18.4845ZM17.2059 18.4413C16.8 18.4413 16.4706 18.1118 16.4706 17.706C16.4706 17.3001 16.8 16.9707 17.2059 16.9707C17.6118 16.9707 17.9412 17.3001 17.9412 17.706C17.9412 18.1118 17.6118 18.4413 17.2059 18.4413Z" fill="#3F3C6D"/>
<path d="M9.91329 11.983C10.6849 11.983 11.3104 11.3575 11.3104 10.5859C11.3104 9.81433 10.6849 9.18884 9.91329 9.18884C9.14172 9.18884 8.51624 9.81433 8.51624 10.5859C8.51624 11.3575 9.14172 11.983 9.91329 11.983Z" fill="#55C5FB"/>
<path d="M6.22633 6.29878C7.15847 7.11135 7.98606 7.92391 8.57926 8.75145C7.99604 9.16518 7.61718 9.84813 7.61718 10.6208C7.61718 10.7205 7.62217 10.8202 7.63714 10.9149C6.97908 10.6906 5.42369 10.6607 3.86842 10.6258C3.67405 10.6208 3.49953 10.4862 3.45462 10.2968C3.10569 8.67167 4.97009 5.90997 6.22633 6.29878Z" fill="#55C5FB"/>
<path d="M4.66825 12.7983C5.7291 12.1629 6.75763 11.6269 7.72797 11.3185C7.94123 12.001 8.47368 12.5724 9.20857 12.8111C9.30336 12.8419 9.39973 12.868 9.49444 12.883C9.07773 13.4396 8.56865 14.9096 8.05485 16.378C7.99007 16.5613 7.80812 16.6857 7.61408 16.6698C5.96067 16.4995 3.91027 13.8729 4.66825 12.7983Z" fill="#55C5FB"/>
<path d="M10.3683 16.2886C10.0918 15.0833 9.89984 13.9395 9.90635 12.9213C10.6214 12.9294 11.3293 12.5996 11.7835 11.9745C11.8421 11.8938 11.8966 11.8102 11.9402 11.7248C12.3407 12.2931 13.5815 13.2315 14.8192 14.1739C14.9735 14.2922 15.0356 14.5036 14.9606 14.6833C14.2877 16.2032 11.156 17.3415 10.3683 16.2886Z" fill="#55C5FB"/>
<path d="M15.4492 11.9462C14.2174 11.8367 13.0703 11.6658 12.104 11.3449C12.3326 10.6674 12.2377 9.8922 11.7835 9.26707C11.7249 9.18643 11.6623 9.10869 11.5945 9.04087C12.2587 8.83556 13.5346 7.94552 14.8134 7.05959C14.9736 6.94936 15.1939 6.95567 15.3415 7.08253C16.5791 8.19219 16.694 11.5223 15.4492 11.9462Z" fill="#55C5FB"/>
<path d="M12.8893 5.77208C12.4045 6.9097 11.8875 7.94788 11.2838 8.76776C10.71 8.34095 9.94345 8.19166 9.20856 8.43044C9.11376 8.46124 9.02048 8.4968 8.93502 8.54031C8.94502 7.84513 8.49283 6.35663 8.04541 4.86669C7.99007 4.68031 8.06416 4.47273 8.23044 4.37148C9.6682 3.53744 12.8709 4.45718 12.8893 5.77208Z" fill="#55C5FB"/>
</svg>
