<svg width="121" height="136" viewBox="0 0 121 136" fill="none" xmlns="http://www.w3.org/2000/svg">
<path d="M18.5691 72.343L13.1291 71.639L18.1243 75.7758C15.9317 81.0175 12.9494 84.3481 12.9494 84.3481C10.2363 81.3898 7.84585 78.9167 6.20701 76.1956L8.90068 73.6677L5.69624 74.4758C3.9412 71.2996 2.84401 68.3031 2.24124 65.5113L7.21767 62.934L1.27356 62.9544C-0.770756 49.4178 9.31282 41.9949 9.31282 41.9949C25.0101 45.8964 22.6365 61.2443 18.5691 72.343Z" stroke="#FAAE2B" stroke-width="0.7" stroke-miterlimit="10" stroke-linecap="round" stroke-linejoin="round"/>
<path d="M12.9492 84.3481C9.81134 63.0043 8.17553 41.4802 10.7572 20.0386C11.4829 14.0149 10.9896 7.99663 11.1778 1.9609" stroke="#FAAE2B" stroke-width="0.7" stroke-miterlimit="10" stroke-linecap="round" stroke-linejoin="round"/>
<path d="M18.5691 72.343L13.1291 71.639L18.1243 75.7758C15.9317 81.0175 12.9494 84.3481 12.9494 84.3481C10.2363 81.3898 7.84585 78.9167 6.20701 76.1956L8.90068 73.6677L5.69624 74.4758C3.9412 71.2996 2.84401 68.3031 2.24124 65.5113L7.21767 62.934L1.27356 62.9544C-0.770756 49.4178 9.31282 41.9949 9.31282 41.9949C25.0101 45.8964 22.6365 61.2443 18.5691 72.343Z" stroke="#FAAE2B" stroke-width="0.7" stroke-miterlimit="10" stroke-linecap="round" stroke-linejoin="round"/>
<path d="M4.46898 71.9825C6.0358 70.3906 8.33913 69.2736 10.8289 68.8984" stroke="#FAAE2B" stroke-width="0.7" stroke-miterlimit="10" stroke-linecap="round" stroke-linejoin="round"/>
<path d="M1.02046 59.0608C3.0563 56.882 6.19963 55.3869 9.56445 54.9961" stroke="#FAAE2B" stroke-width="0.7" stroke-miterlimit="10" stroke-linecap="round" stroke-linejoin="round"/>
<path d="M21.521 55.9602C18.4049 53.2914 14.2606 51.8965 9.70115 52.065" stroke="#FAAE2B" stroke-width="0.7" stroke-miterlimit="10" stroke-linecap="round" stroke-linejoin="round"/>
<path d="M8.94058 79.9025C9.68253 78.5182 10.6539 77.0565 11.7329 76.3249C11.7329 76.3249 14.055 77.5034 16.4915 79.1442C14.691 82.4013 12.9493 84.3481 12.9493 84.3481C11.4969 82.7644 10.1425 81.3206 8.94058 79.9025Z" fill="#282828" stroke="#FAAE2B" stroke-width="0.7"/>
<path d="M19.3623 70.0468C15.3305 68.7473 10.7081 67.9533 10.7081 67.9533C8.91497 68.2026 5.96531 69.6905 3.92644 70.8201C3.42172 69.6096 3.01382 68.4307 2.68823 67.2822C6.22795 65.7328 10.4304 65.284 10.4304 65.284C12.5382 64.9151 16.9331 65.6268 20.4292 66.3361C20.1163 67.5959 19.7544 68.8383 19.3623 70.0468Z" fill="#282828" stroke="#FAAE2B" stroke-width="0.7"/>
<path d="M20.6744 65.3009C17.6576 64.028 13.2887 62.468 10.1714 62.5561L9.96932 60.203C9.96932 60.203 15.2871 59.3882 21.3867 61.1646C21.2282 62.5421 20.9825 63.9288 20.6744 65.3009Z" fill="#282828" stroke="#FAAE2B" stroke-width="0.7"/>
<path d="M11.0647 37.57C11.1422 36.7841 10.4093 36.0971 9.42707 36.0351C8.44546 35.9732 7.5867 36.5595 7.50924 37.3448C7.43117 38.1306 8.16466 38.8177 9.14627 38.8797C10.1279 38.9416 10.9866 38.3553 11.0647 37.57Z" fill="#282828" stroke="#FAAE2B" stroke-width="0.7"/>
<path d="M11.0219 33.7747C11.0897 33.0934 10.4536 32.4979 9.60274 32.4442C8.75185 32.3904 8.00688 32.8988 7.9403 33.5795C7.87252 34.2608 8.50797 34.8563 9.35947 34.91C10.2104 34.9638 10.9547 34.4554 11.0219 33.7747Z" fill="#282828" stroke="#FAAE2B" stroke-width="0.7"/>
<path d="M9.45488 47.787C10.5012 47.7735 15.707 47.789 19.6897 49.3112C20.0129 49.9116 20.2901 50.5338 20.5249 51.1758C18.4406 50.2079 14.844 49.0212 9.5741 48.8697C9.54081 48.5085 9.50632 48.1473 9.45488 47.787Z" fill="#282828" stroke="#FAAE2B" stroke-width="0.7"/>
<path d="M81.5603 69.0022C81.5603 68.0373 82.538 67.2544 83.7444 67.2544C84.951 67.2544 85.9287 68.0373 85.9287 69.0022C85.9287 69.9672 84.951 70.7496 83.7444 70.7496C82.538 70.7496 81.5603 69.9672 81.5603 69.0022Z" fill="#282828" stroke="#FAAE2B" stroke-width="0.7"/>
<path d="M81.367 65.9785C81.367 65.2028 82.1535 64.5739 83.1229 64.5739C84.0927 64.5739 84.8789 65.2028 84.8789 65.9785C84.8789 66.7541 84.0927 67.3831 83.1229 67.3831C82.1535 67.3831 81.367 66.7541 81.367 65.9785Z" fill="#282828" stroke="#FAAE2B" stroke-width="0.7"/>
<path d="M84.5625 110.267C84.5625 110.267 82.3567 111.232 79.5412 112.727C81.4609 117.893 83.147 121.74 83.147 121.74C85.1887 118.588 86.8459 115.583 88.1792 112.725L84.5625 110.267Z" fill="#282828" stroke="#FAAE2B" stroke-width="0.7"/>
<path d="M84.5625 110.267C84.5625 110.267 82.3567 111.232 79.5412 112.727C81.4609 117.893 83.147 121.74 83.147 121.74C85.1887 118.588 86.8459 115.583 88.1792 112.725L84.5625 110.267Z" stroke="#FAAE2B" stroke-width="0.7" stroke-miterlimit="10" stroke-linecap="round" stroke-linejoin="round"/>
<path d="M92.8642 91.6577C89.1194 90.625 85.3498 90.2183 85.3498 90.2183L85.3862 93.6477C87.7816 93.9261 90.5416 94.9966 92.8094 96.0623C92.9226 94.5211 92.9346 93.0526 92.8642 91.6577Z" fill="#282828" stroke="#FAAE2B" stroke-width="0.7"/>
<path d="M92.8642 91.6577C89.1194 90.625 85.3498 90.2183 85.3498 90.2183L85.3862 93.6477C87.7816 93.9261 90.5416 94.9966 92.8094 96.0623C92.9226 94.5211 92.9346 93.0526 92.8642 91.6577Z" stroke="#FAAE2B" stroke-width="0.7" stroke-miterlimit="10" stroke-linecap="round" stroke-linejoin="round"/>
<path d="M75.4264 99.8861C78.2585 98.7139 82.0036 97.4342 85.3496 97.1757L85.386 95.345C85.386 95.345 79.7514 95.2351 74.7007 96.6784C74.9047 97.7156 75.1487 98.789 75.4264 99.8861Z" fill="#282828" stroke="#FAAE2B" stroke-width="0.7"/>
<path d="M75.4264 99.8861C78.2585 98.7139 82.0036 97.4342 85.3496 97.1757L85.386 95.345C85.386 95.345 79.7514 95.2351 74.7007 96.6784C74.9047 97.7156 75.1487 98.789 75.4264 99.8861Z" stroke="#FAAE2B" stroke-width="0.7" stroke-miterlimit="10" stroke-linecap="round" stroke-linejoin="round"/>
<path d="M82.8391 64.5961C83.023 60.9594 82.4634 57.3446 81.6892 53.7685" stroke="#FAAE2B" stroke-width="0.7" stroke-miterlimit="10" stroke-linecap="round" stroke-linejoin="round"/>
<path d="M83.0505 121.511V121.5C83.6847 117.766 84.1784 114.032 84.545 110.275V110.263H84.5592C84.9963 105.909 85.2644 101.543 85.3488 97.1771C85.3488 97.1654 85.3488 97.1543 85.3488 97.1432C85.363 96.5452 85.3769 95.9473 85.3769 95.3493C85.3769 94.7852 85.3911 94.21 85.3911 93.646C85.3911 92.4951 85.3769 91.3558 85.3488 90.2161C85.2923 86.9106 85.123 83.6163 84.8554 80.3108C84.8131 79.8146 84.7708 79.3067 84.7283 78.7992C84.5169 76.3963 84.2491 74.0044 83.9105 71.6015V71.5904C83.8821 71.3081 83.8542 71.0263 83.8119 70.744" stroke="#FAAE2B" stroke-width="0.7" stroke-miterlimit="10" stroke-linecap="round" stroke-linejoin="round"/>
<path d="M83.3042 67.36C83.3042 67.3377 83.3042 67.315 83.2903 67.2922" stroke="#FAAE2B" stroke-width="0.7" stroke-miterlimit="10" stroke-linecap="round" stroke-linejoin="round"/>
<path d="M74.1511 93.0492C74.4093 95.8071 75.1641 99.1213 76.1336 102.502C79.1632 101.457 82.4561 100.322 82.4513 100.322C82.4452 100.322 79.3152 102.6 76.7174 104.466C79.4006 113.194 83.1469 121.74 83.1469 121.74C86.8016 116.098 89.2313 110.926 90.754 106.228C89.2909 104.899 87.6498 103.487 87.016 103.234C87.016 103.234 89.1972 103.058 91.5336 103.569C93.082 97.6658 93.1818 92.5728 92.5258 88.3067C90.0991 86.6755 87.7233 85.0603 87.7233 85.0603C87.7233 85.0603 89.7235 85.3465 92.0603 85.898C89.9051 76.7011 83.9185 71.5911 83.9185 71.5911C73.6842 75.785 73.162 82.4976 74.1511 93.0492Z" stroke="#FAAE2B" stroke-width="0.7" stroke-miterlimit="10" stroke-linecap="round" stroke-linejoin="round"/>
<path d="M74.3337 94.8992C78.0141 94.0034 81.3994 93.5948 85.2461 93.5812" stroke="#FAAE2B" stroke-width="0.7" stroke-miterlimit="10" stroke-linecap="round" stroke-linejoin="round"/>
<path d="M74.2173 93.0128C78.0188 92.2764 81.4859 92.1641 85.3496 92.6516" stroke="#FAAE2B" stroke-width="0.7" stroke-miterlimit="10" stroke-linecap="round" stroke-linejoin="round"/>
<path d="M73.9437 86.3605C76.1573 83.5 80.2371 80.9658 84.9292 80.3049" stroke="#FAAE2B" stroke-width="0.7" stroke-miterlimit="10" stroke-linecap="round" stroke-linejoin="round"/>
<path d="M91.4111 83.5005C89.6379 82.3225 87.3543 81.6471 85.0501 81.6185" stroke="#FAAE2B" stroke-width="0.7" stroke-miterlimit="10" stroke-linecap="round" stroke-linejoin="round"/>
<path d="M74.1981 81.8766C76.9184 79.8401 80.9979 78.7057 84.7214 78.804" stroke="#FAAE2B" stroke-width="0.7" stroke-miterlimit="10" stroke-linecap="round" stroke-linejoin="round"/>
<path d="M56.334 98.954C56.334 97.9886 55.3558 97.2062 54.1496 97.2062C52.9434 97.2062 51.9655 97.9886 51.9655 98.954C51.9655 99.919 52.9434 100.701 54.1496 100.701C55.3558 100.701 56.334 99.919 56.334 98.954Z" fill="#282828" stroke="#FAAE2B" stroke-width="0.7"/>
<path d="M56.5271 95.93C56.5271 95.1544 55.7411 94.5254 54.7714 94.5254C53.8016 94.5254 53.0155 95.1544 53.0155 95.93C53.0155 96.7061 53.8016 97.3351 54.7714 97.3351C55.7411 97.3351 56.5271 96.7061 56.5271 95.93Z" fill="#282828" stroke="#FAAE2B" stroke-width="0.7"/>
<path d="M45.0301 121.609C48.775 120.577 52.5447 120.171 52.5447 120.171L52.5084 123.599C50.1124 123.878 47.3528 124.948 45.0852 126.014C44.972 124.473 44.9599 123.005 45.0301 121.609Z" fill="#282828" stroke="#FAAE2B" stroke-width="0.7"/>
<path d="M45.0301 121.609C48.775 120.577 52.5447 120.171 52.5447 120.171L52.5084 123.599C50.1124 123.878 47.3528 124.948 45.0852 126.014C44.972 124.473 44.9599 123.005 45.0301 121.609Z" stroke="#FAAE2B" stroke-width="0.7" stroke-miterlimit="10" stroke-linecap="round" stroke-linejoin="round"/>
<path d="M62.4676 129.839C59.6355 128.666 55.8907 127.386 52.5446 127.127L52.5083 125.297C52.5083 125.297 58.1427 125.187 63.1936 126.63C62.9891 127.667 62.7453 128.741 62.4676 129.839Z" fill="#282828" stroke="#FAAE2B" stroke-width="0.7"/>
<path d="M62.4676 129.839C59.6355 128.666 55.8907 127.386 52.5446 127.127L52.5083 125.297C52.5083 125.297 58.1427 125.187 63.1936 126.63C62.9891 127.667 62.7453 128.741 62.4676 129.839Z" stroke="#FAAE2B" stroke-width="0.7" stroke-miterlimit="10" stroke-linecap="round" stroke-linejoin="round"/>
<path d="M55.0557 94.5476C54.8716 90.9115 55.4309 87.2961 56.2051 83.72" stroke="#FAAE2B" stroke-width="0.7" stroke-miterlimit="10" stroke-linecap="round" stroke-linejoin="round"/>
<path d="M54.844 151.464V151.452C54.2095 147.718 53.7157 143.983 53.3489 140.227V140.216H53.335C52.8981 135.861 52.63 131.495 52.5453 127.129C52.5453 127.118 52.5453 127.107 52.5453 127.095C52.5313 126.497 52.5174 125.9 52.5174 125.302C52.5174 124.737 52.5029 124.162 52.5029 123.598C52.5029 122.447 52.5174 121.308 52.5453 120.168C52.6015 116.863 52.771 113.569 53.0391 110.263C53.0815 109.767 53.1238 109.259 53.1662 108.752C53.3774 106.348 53.6455 103.957 53.9838 101.554V101.543C54.0122 101.26 54.0401 100.979 54.0824 100.696" stroke="#FAAE2B" stroke-width="0.7" stroke-miterlimit="10" stroke-linecap="round" stroke-linejoin="round"/>
<path d="M54.5903 97.3115C54.5903 97.2893 54.5903 97.2665 54.6045 97.2438" stroke="#FAAE2B" stroke-width="0.7" stroke-miterlimit="10" stroke-linecap="round" stroke-linejoin="round"/>
<path d="M63.7432 123.001C63.4848 125.758 62.7299 129.073 61.7607 132.454C58.7307 131.409 55.4379 130.273 55.4429 130.273C55.4488 130.273 58.579 132.552 61.1766 134.417C58.4934 143.145 54.7474 151.691 54.7474 151.691C51.0927 146.049 48.6629 140.878 47.1403 136.179C48.603 134.851 50.2442 133.439 50.8779 133.186C50.8779 133.186 48.6968 133.01 46.3608 133.521C44.8121 127.617 44.7123 122.524 45.3683 118.258C47.7951 116.627 50.171 115.012 50.171 115.012C50.171 115.012 48.1709 115.298 45.8337 115.85C47.9887 106.652 53.9752 101.543 53.9752 101.543C64.2101 105.737 64.732 112.449 63.7432 123.001Z" stroke="#FAAE2B" stroke-width="0.7" stroke-miterlimit="10" stroke-linecap="round" stroke-linejoin="round"/>
<path d="M63.5605 124.851C59.8801 123.956 56.495 123.547 52.6482 123.534" stroke="#FAAE2B" stroke-width="0.7" stroke-miterlimit="10" stroke-linecap="round" stroke-linejoin="round"/>
<path d="M63.677 122.965C59.8755 122.229 56.4082 122.116 52.5446 122.604" stroke="#FAAE2B" stroke-width="0.7" stroke-miterlimit="10" stroke-linecap="round" stroke-linejoin="round"/>
<path d="M63.9502 116.313C61.7367 113.452 57.6572 110.918 52.9647 110.257" stroke="#FAAE2B" stroke-width="0.7" stroke-miterlimit="10" stroke-linecap="round" stroke-linejoin="round"/>
<path d="M46.4831 113.451C48.2563 112.274 50.5403 111.598 52.8442 111.57" stroke="#FAAE2B" stroke-width="0.7" stroke-miterlimit="10" stroke-linecap="round" stroke-linejoin="round"/>
<path d="M63.6958 111.829C60.9758 109.792 56.8963 108.658 53.1727 108.756" stroke="#FAAE2B" stroke-width="0.7" stroke-miterlimit="10" stroke-linecap="round" stroke-linejoin="round"/>
<path d="M130 33.8384C118.952 43.4125 104.332 50.5163 88.3394 52.9822C72.347 55.4481 55.043 53.0597 41.6531 45.6416C27.697 37.9098 18.8075 25.3726 14.1179 12.3192C9.42892 -0.73365 8.52779 -14.4368 7.65451 -28" stroke="#FAAE2B" stroke-width="0.7" stroke-miterlimit="10" stroke-linecap="round" stroke-linejoin="round"/>
<path d="M109.627 46.7107L101.564 53.1865L98.1592 47.1939L109.627 46.7107Z" fill="#282828" stroke="#FAAE2B" stroke-width="0.7"/>
<path d="M69.6188 27.5657C69.6188 29.0115 71.2017 30.1033 73.0726 30.1033C74.9437 30.1033 76.3938 29.0115 76.3938 27.5657C76.3938 26.1205 74.8217 25.0262 72.9508 25.0262C71.0797 25.0262 69.6188 26.1205 69.6188 27.5657Z" fill="#282828" stroke="#FAAE2B" stroke-width="0.7"/>
<path d="M73.3968 -18.6012C74.6598 9.83973 72.9829 38.3639 68.3884 66.5846C67.6733 70.976 66.8185 75.5152 63.823 79.2399C60.47 83.4087 53.9482 85.0316 48.2377 83.0988C41.7132 80.8914 39.9582 75.2702 38.9784 70.1578C33.4343 41.2225 29.0812 11.7067 30.2425 -17.612" stroke="#FAAE2B" stroke-width="0.7" stroke-miterlimit="10" stroke-linecap="round" stroke-linejoin="round"/>
<path d="M70.3454 14.9686C71.2391 12.8179 72.6102 10.5998 73.5038 8.44866C74.9168 10.5166 76.0649 12.7007 76.9235 14.955C77.2273 15.7525 77.497 16.5726 77.4734 17.4059C77.41 19.6413 75.3158 21.4614 73.3499 23.0504C72.7298 20.8823 69.8653 19.3261 69.7904 17.1023C69.7663 16.3722 70.0573 15.6619 70.3454 14.9686Z" fill="#282828" stroke="#FAAE2B" stroke-width="0.7"/>
<path d="M70.3454 14.9686C71.2391 12.8179 72.6102 10.5998 73.5038 8.44866C74.9168 10.5166 76.0649 12.7007 76.9235 14.955C77.2273 15.7525 77.497 16.5726 77.4734 17.4059C77.41 19.6413 75.3158 21.4614 73.3499 23.0504C72.7298 20.8823 69.8653 19.3261 69.7904 17.1023C69.7663 16.3722 70.0573 15.6619 70.3454 14.9686Z" stroke="#FAAE2B" stroke-width="0.7" stroke-miterlimit="10" stroke-linecap="round" stroke-linejoin="round"/>
<path d="M77.0666 35.1525C77.0666 35.1525 77.315 38.6923 71.9457 38.2948C66.5761 37.8973 67.4711 34.9138 67.4711 34.9138L77.0666 35.1525Z" fill="#282828" stroke="#FAAE2B" stroke-width="0.7"/>
<path d="M75.8726 17.3242C75.4018 17.7008 74.2584 20.4989 74.2584 20.4989C74.2584 20.4989 71.5682 17.2162 71.5682 17.0549C71.5682 16.8937 73.8317 12.1043 73.8317 12.1043L75.8726 17.3242Z" fill="#282828" stroke="#FAAE2B" stroke-width="0.7"/>
<path d="M44.3092 81.8778C44.3092 83.3236 45.8924 84.4154 47.763 84.4154C49.6342 84.4154 51.0842 83.3236 51.0842 81.8778C51.0842 80.4321 49.512 79.3379 47.6413 79.3379C45.7701 79.3379 44.3092 80.4321 44.3092 81.8778Z" fill="#282828" stroke="#FAAE2B" stroke-width="0.7"/>
<path d="M26.6662 111.866C26.6662 113.312 28.2488 114.403 30.12 114.403C31.9907 114.403 33.4407 113.312 33.4407 111.866C33.4407 110.421 31.8684 109.326 29.9978 109.326C28.1272 109.326 26.6662 110.421 26.6662 111.866Z" fill="#282828" stroke="#FAAE2B" stroke-width="0.7"/>
<path d="M27.521 106.278C27.521 107.159 28.4856 107.824 29.6258 107.824C30.7654 107.824 31.6489 107.159 31.6489 106.278C31.6489 105.398 30.6909 104.731 29.5514 104.731C28.4112 104.731 27.521 105.398 27.521 106.278Z" fill="#282828" stroke="#FAAE2B" stroke-width="0.7"/>
<path d="M28.4529 35.6744C28.9951 66.9971 29.5373 98.3193 30.0796 129.642" stroke="#FAAE2B" stroke-width="0.7" stroke-miterlimit="10" stroke-linecap="round" stroke-linejoin="round"/>
<path d="M26.7667 122.91C27.6606 120.759 29.0313 118.541 29.9252 116.39C31.3383 118.458 32.4857 120.641 33.345 122.896C33.6489 123.693 33.9182 124.514 33.8946 125.347C33.831 127.582 31.7365 129.402 29.7708 130.991C29.1505 128.823 26.2868 127.267 26.2117 125.043C26.1869 124.313 26.4786 123.603 26.7667 122.91Z" fill="#282828" stroke="#FAAE2B" stroke-width="0.7"/>
<path d="M26.7667 122.91C27.6606 120.759 29.0313 118.541 29.9252 116.39C31.3383 118.458 32.4857 120.641 33.345 122.896C33.6489 123.693 33.9182 124.514 33.8946 125.347C33.831 127.582 31.7365 129.402 29.7708 130.991C29.1505 128.823 26.2868 127.267 26.2117 125.043C26.1869 124.313 26.4786 123.603 26.7667 122.91Z" stroke="#FAAE2B" stroke-width="0.7" stroke-miterlimit="10" stroke-linecap="round" stroke-linejoin="round"/>
<path d="M32.2939 125.265C31.8231 125.641 30.6793 128.439 30.6793 128.439C30.6793 128.439 27.9893 125.157 27.9893 124.996C27.9893 124.834 30.2533 120.046 30.2533 120.046L32.2939 125.265Z" fill="#282828" stroke="#FAAE2B" stroke-width="0.7"/>
<path d="M18.7167 147.6C19.0193 147.222 18.8177 146.706 18.2852 146.565C18.1357 146.526 17.9814 146.495 17.8222 146.472L14.0556 145.956L17.8222 145.438C17.9814 145.416 18.1357 145.385 18.2852 145.346C18.8177 145.205 19.0193 144.689 18.7167 144.311C18.6652 144.247 18.6102 144.185 18.5527 144.123L16.2621 141.693L19.2989 143.526C19.3019 143.528 19.3049 143.529 19.3085 143.531C19.8145 143.835 20.5649 143.562 20.6399 143.06C20.6424 143.04 20.6448 143.021 20.6472 143.001L20.9431 140.508L21.5895 135.06L22.2358 140.508L22.5318 143.001C22.5342 143.021 22.5366 143.04 22.5396 143.06C22.6141 143.562 23.3645 143.835 23.8704 143.531C23.8741 143.529 23.8771 143.528 23.8801 143.526L26.9175 141.693L24.6263 144.123C24.5688 144.185 24.5137 144.247 24.4629 144.311C24.1597 144.689 24.3618 145.205 24.8944 145.346C25.0433 145.385 25.1976 145.416 25.3568 145.438L29.124 145.956L25.3568 146.472C25.1976 146.495 25.0433 146.526 24.8944 146.565C24.3618 146.706 24.1597 147.222 24.4629 147.6C24.5137 147.664 24.5688 147.727 24.6263 147.788L26.9175 150.217L23.8801 148.385C23.8771 148.383 23.8741 148.381 23.8704 148.38C23.3645 148.077 22.6141 148.348 22.5396 148.851C22.5366 148.87 22.5342 148.89 22.5318 148.909L22.2358 151.403L21.5895 156.851L20.9431 151.403L20.6472 148.909C20.6448 148.89 20.6424 148.87 20.6399 148.851C20.5649 148.348 19.8145 148.077 19.3085 148.38C19.3049 148.381 19.3019 148.383 19.2989 148.385L16.2621 150.217L18.5527 147.788C18.6102 147.727 18.6652 147.664 18.7167 147.6Z" stroke="#FAAE2B" stroke-width="0.7"/>
</svg>
