<svg width="32" height="32" viewBox="0 0 32 32" fill="none" xmlns="http://www.w3.org/2000/svg">
<g clip-path="url(#clip0_259_2331)">
<path d="M15.9999 25.0001C14.6009 25.0032 13.2152 24.7291 11.9227 24.1936C10.6303 23.658 9.45677 22.8717 8.46994 21.8801L3.28994 16.7101C3.19621 16.6171 3.12182 16.5065 3.07105 16.3847C3.02028 16.2628 2.99414 16.1321 2.99414 16.0001C2.99414 15.8681 3.02028 15.7374 3.07105 15.6155C3.12182 15.4937 3.19621 15.3831 3.28994 15.2901L8.46994 10.1201C10.4671 8.12325 13.1757 7.00146 15.9999 7.00146C18.8242 7.00146 21.5327 8.12325 23.5299 10.1201L28.7099 15.2901C28.8037 15.3831 28.8781 15.4937 28.9288 15.6155C28.9796 15.7374 29.0057 15.8681 29.0057 16.0001C29.0057 16.1321 28.9796 16.2628 28.9288 16.3847C28.8781 16.5065 28.8037 16.6171 28.7099 16.7101L23.5299 21.8801C22.5431 22.8717 21.3696 23.658 20.0771 24.1936C18.7847 24.7291 17.3989 25.0032 15.9999 25.0001ZM5.40994 16.0001L9.87994 20.4701C11.505 22.0895 13.7057 22.9989 15.9999 22.9989C18.2942 22.9989 20.4949 22.0895 22.1199 20.4701L26.5899 16.0001L22.1199 11.5301C20.4949 9.91063 18.2942 9.0013 15.9999 9.0013C13.7057 9.0013 11.505 9.91063 9.87994 11.5301L5.40994 16.0001Z" fill="#00473E"/>
<path d="M16 20C15.2089 20 14.4355 19.7654 13.7777 19.3259C13.1199 18.8864 12.6072 18.2616 12.3045 17.5307C12.0017 16.7998 11.9225 15.9956 12.0769 15.2196C12.2312 14.4437 12.6122 13.731 13.1716 13.1716C13.731 12.6122 14.4437 12.2312 15.2196 12.0769C15.9956 11.9225 16.7998 12.0017 17.5307 12.3045C18.2616 12.6072 18.8864 13.1199 19.3259 13.7777C19.7654 14.4355 20 15.2089 20 16C20 17.0609 19.5786 18.0783 18.8284 18.8284C18.0783 19.5786 17.0609 20 16 20ZM16 14C15.6044 14 15.2178 14.1173 14.8889 14.3371C14.56 14.5568 14.3036 14.8692 14.1522 15.2346C14.0009 15.6001 13.9613 16.0022 14.0384 16.3902C14.1156 16.7781 14.3061 17.1345 14.5858 17.4142C14.8655 17.6939 15.2219 17.8844 15.6098 17.9616C15.9978 18.0387 16.3999 17.9991 16.7654 17.8478C17.1308 17.6964 17.4432 17.44 17.6629 17.1111C17.8827 16.7822 18 16.3956 18 16C18 15.4696 17.7893 14.9609 17.4142 14.5858C17.0391 14.2107 16.5304 14 16 14Z" fill="#00473E"/>
</g>
<defs>
<clipPath id="clip0_259_2331">
<rect width="32" height="32" fill="white"/>
</clipPath>
</defs>
</svg>
