<svg width="32" height="32" viewBox="0 0 32 32" fill="none" xmlns="http://www.w3.org/2000/svg">
<rect width="30.3333" height="30.3333" transform="translate(0.833008 0.833984)" fill="#F0F0F0"/>
<path d="M17.1846 20.7401C17.1846 20.9744 17.1151 21.2035 16.9849 21.3983C16.8547 21.5932 16.6696 21.7451 16.4531 21.8348C16.2366 21.9244 15.9984 21.9479 15.7685 21.9022C15.5387 21.8565 15.3275 21.7436 15.1618 21.5779C14.9961 21.4122 14.8833 21.2011 14.8375 20.9712C14.7918 20.7414 14.8153 20.5031 14.905 20.2866C14.9947 20.0701 15.1465 19.885 15.3414 19.7548C15.5362 19.6247 15.7653 19.5552 15.9997 19.5552C16.3139 19.5552 16.6153 19.68 16.8375 19.9022C17.0597 20.1244 17.1846 20.4258 17.1846 20.7401ZM26.1898 14.5786V18.8442C26.1898 21.5468 25.1162 24.1387 23.2052 26.0497C21.2942 27.9607 18.7023 29.0343 15.9997 29.0343C13.2971 29.0343 10.7052 27.9607 8.79418 26.0497C6.88317 24.1387 5.80957 21.5468 5.80957 18.8442V9.83901C5.80997 9.28666 5.95887 8.74458 6.24067 8.26952C6.52247 7.79446 6.92681 7.4039 7.41135 7.13874C7.89589 6.87357 8.44281 6.74355 8.99484 6.7623C9.54687 6.78104 10.0837 6.94786 10.5492 7.24528V6.04735C10.5491 5.28708 10.8301 4.55363 11.3382 3.9881C11.8464 3.42256 12.5456 3.06488 13.3016 2.98386C14.0575 2.90284 14.8167 3.1042 15.4331 3.54921C16.0496 3.99423 16.4797 4.65145 16.6407 5.39447C17.1038 5.08048 17.6437 4.89856 18.2025 4.86823C18.7612 4.83789 19.3176 4.9603 19.812 5.2223C20.3064 5.4843 20.7201 5.87601 21.0087 6.35537C21.2974 6.83473 21.45 7.38364 21.4502 7.94318V11.9849C21.9156 11.6874 22.4525 11.5206 23.0045 11.5019C23.5565 11.4831 24.1035 11.6132 24.588 11.8783C25.0725 12.1435 25.4769 12.534 25.7587 13.0091C26.0405 13.4842 26.1894 14.0262 26.1898 14.5786ZM24.7679 14.5786C24.7679 14.1386 24.5931 13.7167 24.282 13.4056C23.9709 13.0945 23.549 12.9197 23.1091 12.9197C22.6691 12.9197 22.2472 13.0945 21.9361 13.4056C21.625 13.7167 21.4502 14.1386 21.4502 14.5786V15.0526C21.4502 15.2411 21.3753 15.4219 21.242 15.5553C21.1086 15.6886 20.9278 15.7635 20.7393 15.7635C20.5507 15.7635 20.3699 15.6886 20.2366 15.5553C20.1032 15.4219 20.0283 15.2411 20.0283 15.0526V7.94318C20.0283 7.50323 19.8535 7.08129 19.5425 6.77019C19.2314 6.4591 18.8094 6.28433 18.3695 6.28433C17.9295 6.28433 17.5076 6.4591 17.1965 6.77019C16.8854 7.08129 16.7106 7.50323 16.7106 7.94318V13.1567C16.7106 13.3453 16.6357 13.5261 16.5024 13.6594C16.3691 13.7928 16.1882 13.8677 15.9997 13.8677C15.8111 13.8677 15.6303 13.7928 15.497 13.6594C15.3636 13.5261 15.2887 13.3453 15.2887 13.1567V6.04735C15.2887 5.60739 15.114 5.18546 14.8029 4.87436C14.4918 4.56327 14.0698 4.38849 13.6299 4.38849C13.1899 4.38849 12.768 4.56327 12.4569 4.87436C12.1458 5.18546 11.971 5.60739 11.971 6.04735V14.1046C11.971 14.2932 11.8961 14.474 11.7628 14.6073C11.6295 14.7407 11.4486 14.8156 11.2601 14.8156C11.0715 14.8156 10.8907 14.7407 10.7574 14.6073C10.6241 14.474 10.5492 14.2932 10.5492 14.1046V9.83901C10.5492 9.39906 10.3744 8.97712 10.0633 8.66603C9.75219 8.35493 9.33026 8.18016 8.8903 8.18016C8.45034 8.18016 8.02841 8.35493 7.71731 8.66603C7.40622 8.97712 7.23145 9.39906 7.23145 9.83901V18.8442C7.23145 21.1697 8.15524 23.3999 9.7996 25.0443C11.444 26.6887 13.6742 27.6124 15.9997 27.6124C18.3252 27.6124 20.5554 26.6887 22.1998 25.0443C23.8441 23.3999 24.7679 21.1697 24.7679 18.8442V14.5786ZM22.3235 20.4225C22.3727 20.5211 22.3983 20.6298 22.3983 20.7401C22.3983 20.8503 22.3727 20.959 22.3235 21.0576C22.2382 21.2282 20.1824 25.2427 15.9997 25.2427C11.817 25.2427 9.7612 21.2282 9.67589 21.0576C9.62665 20.959 9.60102 20.8503 9.60102 20.7401C9.60102 20.6298 9.62665 20.5211 9.67589 20.4225C9.7612 20.2519 11.817 16.2375 15.9997 16.2375C20.1824 16.2375 22.2382 20.2519 22.3235 20.4225ZM20.8672 20.7401C20.3388 19.8964 18.6858 17.6593 15.9997 17.6593C13.3135 17.6593 11.657 19.8929 11.1321 20.7401C11.6606 21.5849 13.3135 23.8208 15.9997 23.8208C18.6858 23.8208 20.3423 21.5873 20.8672 20.7401Z" fill="#00473E"/>
</svg>
