<svg width="34" height="34" viewBox="0 0 34 34" fill="none" xmlns="http://www.w3.org/2000/svg">
<rect width="32.5" height="32.5" transform="translate(0.75 0.75)" fill="#F0F0F0"/>
<path d="M26.0284 18.5201L18.8362 25.9781C18.3593 26.4724 17.7127 26.75 17.0384 26.75C16.3641 26.75 15.7175 26.4724 15.2407 25.9781L8.04839 18.5214C7.45385 17.9104 6.98157 17.1836 6.65867 16.3828C6.33576 15.5821 6.1686 14.7231 6.16676 13.8551C6.16493 12.9872 6.32847 12.1274 6.64798 11.3252C6.9675 10.523 7.4367 9.79409 8.02866 9.18037C8.62061 8.56665 9.32366 8.0802 10.0974 7.74893C10.8712 7.41766 11.7005 7.24812 12.5376 7.25002C13.3748 7.25192 14.2033 7.42523 14.9757 7.76C15.7481 8.09478 16.449 8.58443 17.0384 9.20083C18.2355 7.9906 19.8443 7.31808 21.5163 7.32894C23.1883 7.3398 24.7888 8.03318 25.9712 9.25886C27.1536 10.4845 27.8226 12.1438 27.8333 13.8773C27.844 15.6108 27.1955 17.2788 26.0284 18.5201Z" stroke="#00473E" stroke-width="2" stroke-linecap="round" stroke-linejoin="round"/>
</svg>
