<svg width="78" height="118" viewBox="0 0 78 118" fill="none" xmlns="http://www.w3.org/2000/svg">
<path d="M42.795 78.6013C42.6195 79.3467 42.3162 80.0223 41.5518 80.3119C42.2081 80.3722 42.6332 81.1029 42.7861 81.6753C42.9344 82.2304 42.9433 82.8162 43.0874 83.3726C43.2248 82.4274 43.3265 81.2343 44.1688 80.627C44.3824 80.4728 44.624 80.3656 44.8642 80.2583C44.6585 80.1738 44.4503 80.0867 44.2665 79.9607C43.8471 79.6738 43.5819 79.2032 43.4451 78.7139C43.3647 78.427 43.301 78.1267 43.2702 77.8304C43.253 77.6615 43.2435 77.4926 43.2248 77.325C43.2127 77.2245 43.1219 76.9872 43.149 76.8987C42.9788 77.4591 42.9276 78.0342 42.795 78.6013Z" fill="#282828"/>
<path d="M46.7438 19.9017C46.5683 20.6471 46.2645 21.3227 45.5 21.6137C46.1569 21.674 46.5819 22.4046 46.7344 22.9758C46.8827 23.5321 46.8915 24.1166 47.0356 24.6743C47.173 23.7292 47.2749 22.536 48.1175 21.9287C48.3311 21.7745 48.5728 21.666 48.813 21.56C48.6068 21.4742 48.399 21.3871 48.2147 21.2624C47.7959 20.9755 47.5307 20.505 47.3933 20.0156C47.3135 19.7288 47.2503 19.4284 47.219 19.1322C47.2012 18.9632 47.1917 18.7943 47.173 18.6267C47.1615 18.5262 47.0712 18.2876 47.0978 18.2004C46.9271 18.7608 46.8769 19.3359 46.7438 19.9017Z" fill="#282828"/>
<path d="M31.3775 31.3987C31.0392 32.8385 30.4522 34.1443 28.9756 34.7047C30.2444 34.8227 31.0658 36.2316 31.3608 37.339C31.6463 38.4128 31.6641 39.543 31.9435 40.6182C32.2077 38.7909 32.4045 36.4864 34.0326 35.3133C34.4446 35.0157 34.9124 34.8079 35.3761 34.6015C34.9782 34.4366 34.5761 34.269 34.2206 34.025C33.4113 33.4726 32.8986 32.5637 32.6337 31.6186C32.4792 31.0635 32.3565 30.4831 32.296 29.9106C32.262 29.5848 32.2448 29.2591 32.2077 28.9333C32.1858 28.7416 32.0103 28.2804 32.062 28.1115C31.7325 29.1947 31.635 30.3047 31.3775 31.3987Z" fill="#282828"/>
<path d="M35.9429 66.6052C35.768 67.3492 35.4647 68.0262 34.7002 68.3158C35.3565 68.3761 35.7816 69.1068 35.9346 69.6792C36.0818 70.2342 36.0917 70.8201 36.2358 71.3765C36.3732 70.43 36.4749 69.2381 37.3172 68.6308C37.5308 68.4767 37.7726 68.3694 38.0122 68.2622C37.807 68.1764 37.5987 68.0906 37.4149 67.9645C36.9956 67.679 36.7298 67.2071 36.5935 66.7178C36.5132 66.4322 36.4494 66.1306 36.4187 65.8343C36.4003 65.6654 36.3919 65.4965 36.3721 65.3289C36.3612 65.2283 36.2703 64.9911 36.2969 64.9026C36.1267 65.4643 36.0761 66.0381 35.9429 66.6052Z" fill="#282828"/>
<path d="M36.1952 93.5766C36.0015 93.6664 35.8071 93.7576 35.6254 93.8621C35.4959 93.9265 35.3665 93.9922 35.237 94.082C34.0846 94.9266 33.942 96.5635 33.7478 97.876C33.5536 97.1091 33.5405 96.3034 33.3333 95.5379C33.2815 95.369 33.2298 95.1733 33.1394 94.9923C32.8545 94.3421 32.3489 93.7187 31.6367 93.6543C32.6858 93.2522 33.1134 92.3298 33.3462 91.2908C33.3854 91.1085 33.424 90.9262 33.4502 90.7452C33.5661 90.1607 33.657 89.5762 33.825 89.0051C33.825 89.1472 33.929 89.4072 33.942 89.5373C33.9682 89.7705 33.9806 90.0038 34.0068 90.2384C34.0198 90.4074 34.046 90.5763 34.0846 90.7452C34.1238 90.9785 34.175 91.2117 34.2397 91.4463C34.4344 92.122 34.7968 92.7709 35.3795 93.1731C35.6254 93.342 35.9106 93.4599 36.1952 93.5766Z" fill="#282828"/>
<path d="M2.52838 2.69987C1.56234 2.69987 0.777028 3.48813 0.777028 4.45472V8.55034C0.777028 9.51827 1.56234 10.3066 2.52838 10.3066H75.4728C76.4377 10.3066 77.223 9.51827 77.223 8.55034V4.45472C77.223 3.48813 76.4377 2.69987 75.4728 2.69987H2.52838ZM75.4728 11.0854H2.52838C1.1342 11.0854 0 9.94861 0 8.55034V4.45472C0 3.05779 1.1342 1.92096 2.52838 1.92096H75.4728C76.8659 1.92096 78 3.05779 78 4.45472V8.55034C78 9.94861 76.8659 11.0854 75.4728 11.0854Z" fill="#282828"/>
<path d="M6.13775 2.7002C6.13454 2.7002 6.13093 2.7002 6.12679 2.7002C5.91211 2.69349 5.74342 2.51519 5.74917 2.29935C5.76801 1.69339 6.01343 1.12228 6.44051 0.693284C6.88697 0.245515 7.4802 0.00015831 8.11139 0.00015831H69.7738C71.0609 0.00015831 72.0979 1.00967 72.1344 2.29935C72.1412 2.51519 71.972 2.69349 71.758 2.7002C71.5355 2.69483 71.3636 2.53663 71.3584 2.32213C71.3334 1.45743 70.6374 0.777727 69.7738 0.777727H8.11139C7.68792 0.777727 7.29012 0.943962 6.9899 1.24426C6.70317 1.5325 6.53876 1.91458 6.52619 2.32213C6.52044 2.53395 6.34761 2.7002 6.13775 2.7002Z" fill="#282828"/>
<path d="M2.52838 107.693C1.56234 107.693 0.777028 108.481 0.777028 109.449V113.544C0.777028 114.512 1.56234 115.301 2.52838 115.301H75.4728C76.4377 115.301 77.223 114.512 77.223 113.544V109.449C77.223 108.481 76.4377 107.693 75.4728 107.693H2.52838ZM75.4728 116.08H2.52838C1.1342 116.08 0 114.943 0 113.544V109.449C0 108.052 1.1342 106.915 2.52838 106.915H75.4728C76.8659 106.915 78 108.052 78 109.449V113.544C78 114.943 76.8659 116.08 75.4728 116.08Z" fill="#282828"/>
<path d="M69.8884 118H8.22603C6.93904 118 5.90203 116.989 5.8654 115.699C5.85912 115.485 6.02781 115.305 6.24249 115.3C6.45543 115.3 6.63668 115.462 6.6419 115.677C6.66636 116.543 7.36291 117.221 8.22603 117.221H69.8884C70.3113 117.221 70.7109 117.056 71.0106 116.755C71.2977 116.468 71.4622 116.084 71.4737 115.677C71.4804 115.462 71.648 115.289 71.8731 115.3C72.0877 115.305 72.2564 115.485 72.2506 115.699C72.2323 116.305 71.988 116.875 71.5598 117.306C71.1128 117.753 70.5192 118 69.8884 118Z" fill="#282828"/>
<path d="M35.7088 55.2146C35.0665 53.319 34.088 51.544 32.7085 49.7743C31.2502 48.0717 29.5605 46.7204 27.7715 45.2886C26.6438 44.3864 25.4788 43.452 24.3651 42.417C19.9556 38.2973 17.4643 31.3099 17.7024 23.726C17.8355 19.4239 19.6782 14.7747 22.7569 10.9726L22.8435 10.8654V10.8077C22.8514 10.7756 22.8446 10.7461 22.8435 10.7126C22.8414 10.6509 22.8347 10.5906 22.8038 10.5329C22.7981 10.5208 22.8033 10.5088 22.7961 10.498C22.7912 10.4913 22.7814 10.4913 22.7772 10.4846C22.763 10.4659 22.7594 10.4431 22.7422 10.4257C22.6967 10.3801 22.6351 10.3747 22.5783 10.3573C22.5611 10.3519 22.5474 10.3399 22.5302 10.3372C22.4513 10.3251 22.3726 10.3492 22.2979 10.3814C22.2796 10.3908 22.2576 10.3814 22.2404 10.3935C19.8422 11.9298 17.8664 14.1325 16.6743 16.5939C15.6274 18.7603 14.9742 21.2297 14.7335 23.9324C14.453 27.0641 14.7502 30.3447 15.5924 33.4187C16.621 37.1778 18.519 40.465 21.0812 42.9264C22.3521 44.1464 23.7986 45.172 25.1973 46.1627C25.5473 46.4121 25.8976 46.6587 26.2453 46.9108C28.9913 48.8936 32.3535 51.6539 33.9899 55.4157C34.4128 56.3823 34.8999 57.6612 34.9193 58.9657C34.9366 60.2433 34.4315 61.5705 33.9899 62.584C32.3535 66.3458 28.9913 69.1048 26.2453 71.0876C25.8976 71.3396 25.5473 71.5877 25.1973 71.837C23.7986 72.8277 22.3521 73.8533 21.0812 75.0733C18.519 77.5347 16.621 80.8219 15.5924 84.581C14.7502 87.6537 14.453 90.9342 14.7335 94.0672C14.9742 96.7699 15.6274 99.238 16.6753 101.406C16.8549 101.777 17.0529 102.143 17.2669 102.501C18.4757 104.525 20.1884 106.284 22.228 107.597C22.2373 107.602 22.2456 107.61 22.2551 107.617L22.2603 107.61C22.3209 107.654 22.3866 107.693 22.4676 107.693C22.6827 107.693 22.8561 107.519 22.8561 107.305L22.8503 107.133L22.7569 107.034C21.5904 105.594 20.5873 104.011 19.7759 102.331L19.4056 101.525C18.3499 99.1026 17.7771 96.6654 17.7024 94.2777C17.6632 93.0805 17.6936 91.9035 17.7917 90.776C18.293 84.471 20.6265 79.0764 24.3651 75.5867C25.4851 74.541 26.6567 73.6026 27.7904 72.695C29.5725 71.2699 31.2565 69.9226 32.719 68.2052C34.0849 66.4665 35.0623 64.6955 35.7082 62.7905C36.0848 61.6845 36.5187 60.2553 36.5311 58.9992C36.5187 57.7497 36.0848 56.3206 35.7088 55.2146Z" fill="#282828"/>
<path d="M56.9187 75.0736C55.6477 73.8536 54.2014 72.8281 52.8031 71.8374C52.4533 71.588 52.1024 71.34 51.7546 71.0879C49.0086 69.1051 45.646 66.3461 44.0101 62.5844C43.4769 61.359 42.9862 60.0733 43.0013 58.9821C43.02 57.7836 43.4889 56.6119 44.0101 55.416C45.646 51.6542 49.0075 48.8952 51.753 46.9111C52.0992 46.6618 52.4481 46.4151 52.7963 46.1684C54.1978 45.1763 55.6457 44.1494 56.9187 42.9268C59.4819 40.464 61.3788 37.1768 62.407 33.4191C63.2492 30.3477 63.5458 27.0672 63.2664 23.9328C63.0257 21.2301 62.3726 18.7607 61.3251 16.5942C60.135 14.1328 58.1587 11.9302 55.7077 10.3603C55.525 10.2531 55.3115 10.3241 55.1998 10.5051C55.111 10.6499 55.1621 10.8202 55.2681 10.9489L55.2483 10.9663C58.3285 14.7844 60.1695 19.4336 60.3012 23.721C60.5319 31.3076 58.0382 38.2949 53.6292 42.412C52.5144 43.455 51.3462 44.3907 50.2163 45.297C48.4333 46.7275 46.7477 48.0788 45.2846 49.7935C43.9041 51.547 42.9255 53.3193 42.2906 55.2136C41.8703 56.4631 41.4792 57.7876 41.4688 59.0022C41.4792 60.2128 41.8703 61.536 42.2906 62.7868C42.926 64.6824 43.9052 66.4547 45.2951 68.219C46.7493 69.9229 48.4333 71.2716 50.2154 72.702C51.3453 73.6083 52.5144 74.5441 53.6292 75.5871C58.0382 79.7041 60.5319 86.6928 60.3012 94.2781C60.2229 96.8252 59.5351 99.544 58.3123 102.141C57.4961 103.878 56.4649 105.525 55.241 107.041L55.2222 107.066C55.0927 107.235 55.1324 107.464 55.2995 107.597C55.3678 107.651 55.4494 107.676 55.5318 107.676C55.6107 107.676 55.6864 107.644 55.7543 107.6L55.7595 107.607C58.1593 106.068 60.1356 103.866 61.3251 101.405C62.3726 99.2397 63.0257 96.7703 63.2664 94.0676C63.5458 90.9332 63.2492 87.6527 62.407 84.5813C61.3788 80.8236 59.4819 77.535 56.9187 75.0736Z" fill="#282828"/>
<path d="M39.1882 35.8848C37.9826 35.8848 36.7894 35.7319 35.6245 35.5831L34.0132 35.3767C33.8002 35.3485 33.6509 35.1541 33.678 34.9396C33.7057 34.7265 33.904 34.5709 34.1139 34.6045L35.7231 34.8109C37.2537 35.0067 38.8367 35.2064 40.3865 35.0455C41.5933 34.9209 42.8015 34.5682 43.9345 34.217C45.1636 33.8376 46.3923 33.4341 47.6209 33.0319C51.6958 31.6966 55.909 30.3145 60.1744 29.7997C60.374 29.7688 60.5803 29.927 60.6063 30.1402C60.6319 30.3533 60.4795 30.5477 60.2669 30.5732C56.0777 31.0786 51.9021 32.4487 47.8622 33.7733C46.6293 34.1768 45.3972 34.5803 44.1632 34.9611C42.9926 35.323 41.7441 35.6877 40.467 35.8204C40.0398 35.866 39.6127 35.8848 39.1882 35.8848Z" fill="#282828"/>
<path d="M29.849 34.7661C29.8276 34.7661 29.8062 34.7648 29.7843 34.7607C27.9891 34.4591 26.4154 34.1253 24.9727 33.7419C24.2391 33.5475 23.5012 33.3316 22.7597 33.1158C21.1933 32.6586 19.5741 32.1854 17.9904 31.92C17.7789 31.8851 17.6359 31.684 17.6714 31.4708C17.7063 31.2577 17.9111 31.1129 18.1183 31.1518C19.7485 31.4239 21.3896 31.9039 22.9764 32.3677C23.7111 32.5822 24.4437 32.7967 25.1716 32.9884C26.5907 33.3665 28.1421 33.695 29.9133 33.9926C30.1247 34.0274 30.2678 34.2285 30.2318 34.4417C30.2004 34.6321 30.0354 34.7661 29.849 34.7661Z" fill="#282828"/>
<path d="M38.9265 66.0537C38.8482 66.0537 38.7695 66.0497 38.6895 66.0376C38.0891 65.9559 37.6024 65.5644 37.1946 65.2024C36.4234 64.5174 35.694 63.7613 35.0282 62.9542C34.8903 62.788 34.9144 62.5426 35.0794 62.4059C35.2448 62.2691 35.4897 62.2893 35.6261 62.4568C36.2673 63.2331 36.968 63.961 37.7089 64.6192C38.0311 64.9048 38.4082 65.2145 38.7945 65.2654C39.3908 65.3512 39.9912 64.8498 40.4968 64.3511C41.1394 63.7157 41.7546 63.032 42.3222 62.3187C42.4558 62.1512 42.7013 62.1257 42.8683 62.2584C43.0354 62.3925 43.0631 62.6365 42.9294 62.8054C42.3414 63.5427 41.7065 64.2493 41.0419 64.9062C40.4899 65.4505 39.7641 66.0537 38.9265 66.0537Z" fill="#282828"/>
<path d="M58.663 102.697C58.6072 102.697 58.5502 102.685 58.4959 102.66C57.177 102.031 55.8042 101.461 54.4769 100.912C51.558 99.7023 48.539 98.4515 45.8885 96.4821L45.3095 96.0464C43.9217 95.0007 42.4862 93.9188 40.8566 93.4738C39.7011 93.156 38.4035 93.2485 37.0032 93.7486C36.8444 93.8049 36.6868 93.8679 36.528 93.9296C36.2633 94.0328 35.9985 94.136 35.7301 94.2192C35.3663 94.3304 34.9825 94.4712 34.6456 94.746C34.4812 94.8828 34.2358 94.8573 34.0989 94.6897C33.9633 94.5235 33.9888 94.2768 34.1553 94.1414C34.596 93.7808 35.0847 93.6025 35.5041 93.4724C35.7531 93.3974 35.9991 93.2995 36.2455 93.203C36.4105 93.1386 36.576 93.0743 36.7425 93.0153C38.2961 92.4603 39.7497 92.3637 41.0613 92.7217C42.8335 93.2056 44.3294 94.3331 45.7764 95.4244L46.3522 95.8561C48.9249 97.7678 51.898 98.9998 54.773 100.192C56.1102 100.745 57.4929 101.318 58.8301 101.956C59.0233 102.048 59.1063 102.28 59.0145 102.475C58.9476 102.615 58.8082 102.697 58.663 102.697Z" fill="#282828"/>
<path d="M19.0494 102.071C18.8975 102.071 18.7524 101.98 18.6908 101.829C18.6087 101.63 18.7027 101.402 18.9012 101.32C20.3157 100.736 21.7819 100.168 23.3849 99.5866L23.9316 99.3869C24.5247 99.1737 25.1216 98.9565 25.7116 98.7112C27.2321 98.0597 28.6836 97.1748 30.0872 96.3182C31.0078 95.7565 31.9596 95.176 32.9314 94.6598L33.0399 94.6156C33.2687 94.5526 33.5277 94.743 33.5277 94.9923C33.5277 95.1465 33.4242 95.2872 33.2875 95.3529C32.3382 95.857 31.3999 96.4295 30.4914 96.9845C29.0643 97.8545 27.5887 98.7554 26.0129 99.4284C25.4087 99.6818 24.8005 99.9017 24.1952 100.12L23.6501 100.319C22.057 100.898 20.6008 101.461 19.1978 102.04C19.1492 102.061 19.099 102.071 19.0494 102.071Z" fill="#282828"/>
<path d="M8.19815 105.741C7.98294 105.741 7.80957 105.567 7.80957 105.352V12.6455C7.80957 12.431 7.98294 12.2567 8.19815 12.2567C8.41162 12.2567 8.58606 12.431 8.58606 12.6455V105.352C8.58606 105.567 8.41162 105.741 8.19815 105.741Z" fill="#282828"/>
<path d="M5.17862 105.741C4.96395 105.741 4.79004 105.567 4.79004 105.352V12.6455C4.79004 12.431 4.96395 12.2567 5.17862 12.2567C5.39263 12.2567 5.56707 12.431 5.56707 12.6455V105.352C5.56707 105.567 5.39263 105.741 5.17862 105.741Z" fill="#282828"/>
<path d="M8.71518 13.0356H4.66162C3.86802 13.0356 3.22266 12.3881 3.22266 11.5918V10.6949C3.22266 10.4804 3.3971 10.3062 3.61057 10.3062C3.82578 10.3062 3.99901 10.4804 3.99901 10.6949V11.5918C3.99901 11.9591 4.29616 12.2567 4.66162 12.2567H8.71518C9.0801 12.2567 9.37725 11.9591 9.37725 11.5918V10.6949C9.37725 10.4804 9.55169 10.3062 9.7657 10.3062C9.98037 10.3062 10.1541 10.4804 10.1541 10.6949V11.5918C10.1541 12.3881 9.50825 13.0356 8.71518 13.0356Z" fill="#282828"/>
<path d="M9.82389 107.693C9.60975 107.693 9.43584 107.519 9.43584 107.303V106.406C9.43584 106.04 9.13883 105.741 8.77271 105.741H4.72035C4.35489 105.741 4.05828 106.04 4.05828 106.406V107.303C4.05828 107.519 3.88437 107.693 3.66983 107.693C3.45569 107.693 3.28125 107.519 3.28125 107.303V106.406C3.28125 105.611 3.92715 104.964 4.72035 104.964H8.77271C9.56698 104.964 10.2123 105.611 10.2123 106.406V107.303C10.2123 107.519 10.0384 107.693 9.82389 107.693Z" fill="#282828"/>
<path d="M72.7634 105.741C72.5494 105.741 72.375 105.567 72.375 105.352V12.6455C72.375 12.431 72.5494 12.2567 72.7634 12.2567C72.9781 12.2567 73.1519 12.431 73.1519 12.6455V105.352C73.1519 105.567 72.9781 105.741 72.7634 105.741Z" fill="#282828"/>
<path d="M69.7434 105.741C69.5299 105.741 69.3555 105.567 69.3555 105.352V12.6455C69.3555 12.431 69.5299 12.2567 69.7434 12.2567C69.9586 12.2567 70.132 12.431 70.132 12.6455V105.352C70.132 105.567 69.9586 105.741 69.7434 105.741Z" fill="#282828"/>
<path d="M73.2801 13.0356H69.2277C68.434 13.0356 67.7881 12.3881 67.7881 11.5918V10.6949C67.7881 10.4804 67.962 10.3062 68.1767 10.3062C68.3907 10.3062 68.5651 10.4804 68.5651 10.6949V11.5918C68.5651 11.9591 68.8623 12.2567 69.2277 12.2567H73.2801C73.6457 12.2567 73.9427 11.9591 73.9427 11.5918V10.6949C73.9427 10.4804 74.1161 10.3062 74.3313 10.3062C74.5447 10.3062 74.7192 10.4804 74.7192 10.6949V11.5918C74.7192 12.3881 74.0738 13.0356 73.2801 13.0356Z" fill="#282828"/>
<path d="M74.3887 107.693C74.1747 107.693 74.0003 107.519 74.0003 107.303V106.406C74.0003 106.04 73.7031 105.741 73.3377 105.741H69.2848C68.9192 105.741 68.6222 106.04 68.6222 106.406V107.303C68.6222 107.519 68.4478 107.693 68.2336 107.693C68.0191 107.693 67.8457 107.519 67.8457 107.303V106.406C67.8457 105.611 68.4911 104.964 69.2848 104.964H73.3377C74.1313 104.964 74.7768 105.611 74.7768 106.406V107.303C74.7768 107.519 74.6034 107.693 74.3887 107.693Z" fill="#282828"/>
</svg>
