<svg width="28" height="28" viewBox="0 0 28 28" fill="none" xmlns="http://www.w3.org/2000/svg">
<path d="M19.8333 16.3333C20.4776 16.3333 20.9999 15.811 20.9999 15.1666C20.9999 14.5223 20.4776 14 19.8333 14C19.1889 14 18.6666 14.5223 18.6666 15.1666C18.6666 15.811 19.1889 16.3333 19.8333 16.3333Z" fill="#00473E"/>
<path d="M19.8333 21C20.4776 21 20.9999 20.4776 20.9999 19.8333C20.9999 19.189 20.4776 18.6666 19.8333 18.6666C19.1889 18.6666 18.6666 19.189 18.6666 19.8333C18.6666 20.4776 19.1889 21 19.8333 21Z" fill="#00473E"/>
<path d="M15.1666 15.1666C15.1666 15.811 14.6443 16.3333 13.9999 16.3333C13.3556 16.3333 12.8333 15.811 12.8333 15.1666C12.8333 14.5223 13.3556 14 13.9999 14C14.6443 14 15.1666 14.5223 15.1666 15.1666Z" fill="#00473E"/>
<path d="M15.1666 19.8333C15.1666 20.4776 14.6443 21 13.9999 21C13.3556 21 12.8333 20.4776 12.8333 19.8333C12.8333 19.189 13.3556 18.6666 13.9999 18.6666C14.6443 18.6666 15.1666 19.189 15.1666 19.8333Z" fill="#00473E"/>
<path d="M8.16659 16.3333C8.81092 16.3333 9.33325 15.811 9.33325 15.1666C9.33325 14.5223 8.81092 14 8.16659 14C7.52225 14 6.99992 14.5223 6.99992 15.1666C6.99992 15.811 7.52225 16.3333 8.16659 16.3333Z" fill="#00473E"/>
<path d="M8.16659 21C8.81092 21 9.33325 20.4776 9.33325 19.8333C9.33325 19.189 8.81092 18.6666 8.16659 18.6666C7.52225 18.6666 6.99992 19.189 6.99992 19.8333C6.99992 20.4776 7.52225 21 8.16659 21Z" fill="#00473E"/>
<path fill-rule="evenodd" clip-rule="evenodd" d="M8.16659 2.04163C8.64983 2.04163 9.04159 2.43338 9.04159 2.91663V3.80647C9.81392 3.79161 10.6648 3.79162 11.6006 3.79163H16.3991C17.3349 3.79162 18.1859 3.79161 18.9583 3.80647V2.91663C18.9583 2.43338 19.35 2.04163 19.8333 2.04163C20.3165 2.04163 20.7083 2.43338 20.7083 2.91663V3.88156C21.0115 3.90468 21.2987 3.93375 21.5704 3.97028C22.9383 4.15418 24.0454 4.54165 24.9185 5.41474C25.7916 6.28783 26.179 7.39494 26.3629 8.76277C26.5416 10.0918 26.5416 11.7901 26.5416 13.9341V16.3991C26.5416 18.5431 26.5416 20.2414 26.3629 21.5705C26.179 22.9383 25.7916 24.0454 24.9185 24.9185C24.0454 25.7916 22.9383 26.1791 21.5704 26.363C20.2414 26.5417 18.5431 26.5416 16.3991 26.5416H11.6008C9.45674 26.5416 7.75847 26.5417 6.42939 26.363C5.06157 26.1791 3.95446 25.7916 3.08137 24.9185C2.20828 24.0454 1.82081 22.9383 1.63691 21.5705C1.45822 20.2414 1.45823 18.5432 1.45825 16.3991V13.9341C1.45823 11.7901 1.45822 10.0918 1.63691 8.76277C1.82081 7.39494 2.20828 6.28783 3.08137 5.41474C3.95446 4.54165 5.06157 4.15418 6.42939 3.97028C6.70114 3.93375 6.98832 3.90468 7.29159 3.88156V2.91663C7.29159 2.43338 7.68334 2.04163 8.16659 2.04163ZM6.66258 5.70468C5.48881 5.86249 4.81255 6.15843 4.31881 6.65218C3.82506 7.14592 3.52911 7.82218 3.3713 8.99595C3.34458 9.19473 3.32223 9.404 3.30355 9.62496H24.6963C24.6776 9.404 24.6553 9.19473 24.6285 8.99595C24.4707 7.82218 24.1748 7.14592 23.681 6.65218C23.1873 6.15843 22.511 5.86249 21.3373 5.70468C20.1383 5.54348 18.5579 5.54163 16.3333 5.54163H11.6666C9.44196 5.54163 7.86152 5.54348 6.66258 5.70468ZM3.20825 14C3.20825 13.0036 3.20863 12.1365 3.22352 11.375H24.7763C24.7912 12.1365 24.7916 13.0036 24.7916 14V16.3333C24.7916 18.5579 24.7897 20.1384 24.6285 21.3373C24.4707 22.5111 24.1748 23.1873 23.681 23.6811C23.1873 24.1748 22.511 24.4708 21.3373 24.6286C20.1383 24.7898 18.5579 24.7916 16.3333 24.7916H11.6666C9.44196 24.7916 7.86152 24.7898 6.66258 24.6286C5.48881 24.4708 4.81255 24.1748 4.31881 23.6811C3.82506 23.1873 3.52911 22.5111 3.3713 21.3373C3.21011 20.1384 3.20825 18.5579 3.20825 16.3333V14Z" fill="#00473E"/>
</svg>
