<svg width="25" height="24" viewBox="0 0 25 24" fill="none" xmlns="http://www.w3.org/2000/svg">
<path d="M18.9 5L18.9019 10.5M18.9 5C18.9 3.89543 18.0046 3 16.9 3H8.90002C7.79546 3 6.90002 3.89543 6.90002 5L6.90187 10.5C6.90187 14.25 9.65002 16.5 12.9 16.5M18.9 5H20.9C21.4523 5 21.9013 5.44839 21.8982 6.00067C21.8982 8.5 21.6459 10.5 18.9019 10.5M18.9019 10.5C18.9019 14.25 16.15 16.5 12.9 16.5M12.9 16.5V20M12.9 20C15.4 20 16.9 21 16.9 21M12.9 20C10.4 20 8.90002 21 8.90002 21M6.89818 5H4.89818C4.34589 5 3.89688 5.44839 3.90004 6.00067C3.90002 8.5 4.15596 10.5 6.90002 10.5" stroke-width="2" stroke-linecap="round" stroke-linejoin="round"/>
</svg>
