<svg width="28" height="28" viewBox="0 0 28 28" fill="none" xmlns="http://www.w3.org/2000/svg">
<path d="M14.0001 25.6667C20.4434 25.6667 25.6667 20.4434 25.6667 14C25.6667 7.55672 20.4434 2.33337 14.0001 2.33337C7.55676 2.33337 2.33341 7.55672 2.33341 14C2.33341 15.8663 2.77163 17.6303 3.55078 19.1946C3.75784 19.6103 3.82676 20.0855 3.70672 20.5341L3.01184 23.1311C2.71019 24.2585 3.7416 25.2899 4.86899 24.9883L7.46603 24.2934C7.91467 24.1734 8.38982 24.2423 8.80553 24.4493C10.3698 25.2285 12.1338 25.6667 14.0001 25.6667Z" stroke="#00473E" stroke-width="1.5"/>
<path d="M9.33325 12.25H18.6666" stroke="#00473E" stroke-width="1.5" stroke-linecap="round"/>
<path d="M9.33325 16.3334H15.7499" stroke="#00473E" stroke-width="1.5" stroke-linecap="round"/>
</svg>
