<svg width="28" height="28" viewBox="0 0 28 28" fill="none" xmlns="http://www.w3.org/2000/svg">
<path fill-rule="evenodd" clip-rule="evenodd" d="M14.0001 9.62504C11.5838 9.62504 9.62508 11.5838 9.62508 14C9.62508 16.4163 11.5838 18.375 14.0001 18.375C16.4163 18.375 18.3751 16.4163 18.3751 14C18.3751 11.5838 16.4163 9.62504 14.0001 9.62504ZM11.3751 14C11.3751 12.5503 12.5503 11.375 14.0001 11.375C15.4498 11.375 16.6251 12.5503 16.6251 14C16.6251 15.4498 15.4498 16.625 14.0001 16.625C12.5503 16.625 11.3751 15.4498 11.3751 14Z" fill="#00473E"/>
<path fill-rule="evenodd" clip-rule="evenodd" d="M13.9706 1.45837C13.4521 1.45837 13.0192 1.45836 12.6638 1.48261C12.2939 1.50785 11.9444 1.56226 11.6056 1.70259C10.8195 2.02822 10.1949 2.6528 9.86929 3.43893C9.69977 3.84819 9.65386 4.27951 9.63633 4.74833C9.62223 5.1252 9.43204 5.43964 9.15136 5.60169C8.87068 5.76373 8.50327 5.77123 8.16986 5.595C7.75507 5.37577 7.35858 5.19987 6.91939 5.14205C6.07576 5.03098 5.22257 5.25959 4.54751 5.77759C4.25658 6.00082 4.03473 6.27625 3.8279 6.58401C3.62921 6.87966 3.41277 7.25454 3.15351 7.70362L3.12405 7.75465C2.86477 8.20371 2.64833 8.57859 2.49164 8.89848C2.32852 9.23149 2.20093 9.56132 2.15306 9.92489C2.042 10.7685 2.27061 11.6217 2.78861 12.2968C3.05824 12.6482 3.40876 12.9036 3.80594 13.1531C4.12536 13.3538 4.30261 13.6758 4.30259 14C4.30257 14.3242 4.12532 14.6461 3.80595 14.8468C3.40872 15.0964 3.05815 15.3518 2.78849 15.7032C2.2705 16.3783 2.04188 17.2315 2.15295 18.0751C2.20081 18.4387 2.32841 18.7685 2.49152 19.1015C2.64821 19.4214 2.86465 19.7963 3.12392 20.2453L3.1534 20.2964C3.41266 20.7455 3.62909 21.1203 3.82778 21.416C4.03462 21.7238 4.25647 21.9992 4.54739 22.2224C5.22246 22.7404 6.07565 22.969 6.91927 22.858C7.35844 22.8001 7.75491 22.6243 8.16967 22.405C8.50313 22.2288 8.87058 22.2363 9.1513 22.3984C9.43202 22.5604 9.62223 22.8749 9.63633 23.2518C9.65386 23.7206 9.69978 24.1519 9.86929 24.5611C10.1949 25.3473 10.8195 25.9719 11.6056 26.2975C11.9444 26.4378 12.2939 26.4922 12.6638 26.5175C13.0192 26.5417 13.4521 26.5417 13.9706 26.5417H14.0295C14.5481 26.5417 14.981 26.5417 15.3363 26.5175C15.7063 26.4922 16.0557 26.4378 16.3945 26.2975C17.1806 25.9719 17.8052 25.3473 18.1308 24.5612C18.3004 24.1519 18.3463 23.7205 18.3638 23.2517C18.3779 22.8748 18.5681 22.5604 18.8488 22.3983C19.1295 22.2362 19.4969 22.2287 19.8304 22.405C20.2451 22.6242 20.6416 22.8001 21.0808 22.8579C21.9244 22.9689 22.7776 22.7403 23.4526 22.2223C23.7436 21.9991 23.9654 21.7237 24.1722 21.4159C24.3709 21.1203 24.5873 20.7454 24.8466 20.2964L24.8761 20.2453C25.1353 19.7963 25.3518 19.4213 25.5085 19.1014C25.6716 18.7684 25.7992 18.4386 25.8471 18.075C25.9581 17.2314 25.7295 16.3782 25.2115 15.7032C24.9419 15.3517 24.5913 15.0963 24.1941 14.8468C23.8748 14.6461 23.6975 14.3241 23.6976 14C23.6976 13.6759 23.8748 13.354 24.1941 13.1533C24.5914 12.9037 24.942 12.6483 25.2117 12.2968C25.7296 11.6218 25.9583 10.7686 25.8472 9.92497C25.7993 9.56141 25.6717 9.23157 25.5086 8.89856C25.3519 8.57869 25.1355 8.20384 24.8763 7.75482L24.8468 7.70375C24.5875 7.25467 24.371 6.87974 24.1724 6.58409C23.9655 6.27633 23.7437 6.0009 23.4528 5.77767C22.7777 5.25967 21.9245 5.03106 21.0809 5.14213C20.6417 5.19994 20.2452 5.37583 19.8305 5.59504C19.497 5.77129 19.1296 5.7638 18.8488 5.60173C18.5681 5.43965 18.3779 5.12518 18.3638 4.74827C18.3463 4.27947 18.3004 3.84818 18.1309 3.43893C17.8052 2.6528 17.1806 2.02822 16.3945 1.70259C16.0557 1.56226 15.7063 1.50785 15.3363 1.48261C14.9809 1.45836 14.5481 1.45837 14.0295 1.45837H13.9706ZM12.2753 3.31938C12.3653 3.2821 12.5021 3.24771 12.7829 3.22855C13.0716 3.20885 13.4445 3.20837 14.0001 3.20837C14.5556 3.20837 14.9285 3.20885 15.2172 3.22855C15.4981 3.24771 15.6348 3.2821 15.7248 3.31938C16.0822 3.4674 16.3661 3.7513 16.5141 4.10863C16.5608 4.22134 16.5995 4.39706 16.615 4.81367C16.6496 5.73811 17.1268 6.62821 17.9738 7.11727C18.8209 7.60633 19.8303 7.57451 20.6482 7.14223C21.0168 6.94742 21.1883 6.89308 21.3093 6.87716C21.6928 6.82667 22.0806 6.93059 22.3874 7.16604C22.4647 7.22535 22.5629 7.32659 22.7199 7.56023C22.8813 7.80041 23.0681 8.12307 23.3459 8.60421C23.6237 9.08535 23.8097 9.40849 23.937 9.66837C24.0609 9.92117 24.0994 10.0568 24.1122 10.1534C24.1626 10.5369 24.0587 10.9247 23.8233 11.2315C23.749 11.3283 23.6162 11.4497 23.2631 11.6715C22.4798 12.1637 21.9476 13.0219 21.9476 13.9999C21.9475 14.978 22.4798 15.8364 23.2631 16.3285C23.6161 16.5503 23.7489 16.6717 23.8232 16.7685C24.0586 17.0753 24.1625 17.4632 24.1121 17.8466C24.0993 17.9432 24.0607 18.0788 23.9369 18.3316C23.8096 18.5915 23.6236 18.9147 23.3458 19.3958C23.068 19.8769 22.8812 20.1996 22.7198 20.4398C22.5628 20.6734 22.4646 20.7747 22.3873 20.834C22.0805 21.0694 21.6926 21.1733 21.3092 21.1228C21.1882 21.1069 21.0167 21.0526 20.6481 20.8578C19.8302 20.4255 18.8208 20.3937 17.9737 20.8828C17.1267 21.3719 16.6496 22.2619 16.615 23.1863C16.5995 23.603 16.5608 23.7787 16.5141 23.8915C16.3661 24.2488 16.0822 24.5327 15.7248 24.6807C15.6348 24.718 15.4981 24.7524 15.2172 24.7715C14.9285 24.7912 14.5556 24.7917 14.0001 24.7917C13.4445 24.7917 13.0716 24.7912 12.7829 24.7715C12.5021 24.7524 12.3653 24.718 12.2753 24.6807C11.918 24.5327 11.6341 24.2488 11.4861 23.8915C11.4394 23.7787 11.4007 23.603 11.3851 23.1864C11.3505 22.262 10.8734 21.3719 10.0263 20.8828C9.17922 20.3938 8.1698 20.4256 7.35193 20.8579C6.98334 21.0527 6.81181 21.107 6.69085 21.1229C6.30739 21.1734 5.91957 21.0695 5.61272 20.834C5.53543 20.7747 5.43727 20.6735 5.28025 20.4399C5.11884 20.1997 4.932 19.877 4.65421 19.3959C4.37643 18.9147 4.19041 18.5916 4.06312 18.3317C3.93929 18.0789 3.90069 17.9433 3.88798 17.8467C3.83749 17.4632 3.94141 17.0754 4.17686 16.7686C4.25113 16.6718 4.38396 16.5504 4.73698 16.3286C5.52026 15.8364 6.05253 14.9782 6.05259 14.0001C6.05264 13.0219 5.52034 12.1636 4.73699 11.6714C4.38405 11.4496 4.25124 11.3282 4.17697 11.2314C3.94152 10.9246 3.83761 10.5368 3.88809 10.1533C3.90081 10.0567 3.9394 9.92109 4.06323 9.66829C4.19053 9.40841 4.37654 9.08527 4.65433 8.60413C4.93211 8.12299 5.11895 7.80032 5.28036 7.56015C5.43738 7.32651 5.53554 7.22527 5.61284 7.16596C5.91969 6.93051 6.3075 6.82659 6.69097 6.87708C6.81193 6.893 6.98347 6.94735 7.3521 7.14219C8.16994 7.57445 9.17931 7.60627 10.0263 7.11724C10.8734 6.6282 11.3505 5.73814 11.3851 4.81373C11.4007 4.39707 11.4394 4.22135 11.4861 4.10863C11.6341 3.7513 11.918 3.4674 12.2753 3.31938Z" fill="#00473E"/>
</svg>
