<svg width="25" height="24" viewBox="0 0 25 24" fill="none" xmlns="http://www.w3.org/2000/svg">
<path d="M18.6 9.5C20.0912 9.5 21.3 10.6753 21.3 12.125V13M18.6 9.5V8.625C18.6 8.40962 18.5734 8.20031 18.523 8M18.6 9.5H16.3M5.10005 6C4.10594 6 3.30005 6.7835 3.30005 7.75M3.30005 7.75C3.30005 8.7165 4.10594 9.5 5.10005 9.5H7.30005M3.30005 7.75V17.375C3.30005 18.8247 4.50888 20 6.00005 20H18.6C20.0912 20 21.3 18.8247 21.3 17.375V16.5M21.3 13H17.7C16.7059 13 15.9 13.7835 15.9 14.75C15.9 15.7165 16.7059 16.5 17.7 16.5H21.3M21.3 13V16.5M7.30005 9.5V8.5C7.30005 6.01472 9.31477 4 11.8 4V4C14.2853 4 16.3 6.01472 16.3 8.5V9.5M7.30005 9.5H11.8M16.3 9.5H11.8M11.8 9.5V8" stroke-width="2" stroke-linecap="round" stroke-linejoin="round"/>
</svg>
