<svg width="28" height="28" viewBox="0 0 28 28" fill="none" xmlns="http://www.w3.org/2000/svg">
<circle cx="10.4999" cy="7.00004" r="4.66667" stroke="#00473E" stroke-width="1.5"/>
<path d="M17.5 10.5C19.433 10.5 21 8.933 21 7C21 5.067 19.433 3.5 17.5 3.5" stroke="#00473E" stroke-width="1.5" stroke-linecap="round"/>
<path d="M6.87059 24.015C7.9639 24.3254 9.19624 24.5 10.4999 24.5C15.0102 24.5 18.6666 22.4106 18.6666 19.8333C18.6666 17.256 15.0102 15.1666 10.4999 15.1666C5.98959 15.1666 2.33325 17.256 2.33325 19.8333C2.33325 20.2361 2.42258 20.6271 2.59054 21" stroke="#00473E" stroke-width="1.5" stroke-linecap="round"/>
<path d="M21 16.3334C23.0466 16.7822 24.5 17.9188 24.5 19.25C24.5 20.4509 23.3173 21.4934 21.5833 22.0155" stroke="#00473E" stroke-width="1.5" stroke-linecap="round"/>
</svg>
