<svg width="26" height="26" viewBox="0 0 26 26" fill="none" xmlns="http://www.w3.org/2000/svg">
<path d="M16.2834 10.1207C16.2834 9.89641 16.1014 9.71549 15.8771 9.71549C15.6529 9.71658 15.4709 9.89858 15.4709 10.1228C15.4709 10.3471 15.6529 10.5291 15.8771 10.528C16.1014 10.528 16.2834 10.346 16.2834 10.1217" stroke="#FAAE2B" stroke-width="1.5" stroke-linecap="round" stroke-linejoin="round"/>
<path fill-rule="evenodd" clip-rule="evenodd" d="M13.5404 16.0171L12.4246 17.1351H10.4399V18.7266H8.85284V20.7156L7.36434 22.2084H3.7915V18.628L9.99142 12.414C9.11825 10.1455 9.58625 7.4783 11.4117 5.64855C13.8817 3.17314 17.8868 3.17314 20.3568 5.64855C22.8268 8.12397 22.8268 12.1377 20.3568 14.6142C18.5129 16.4602 15.8176 16.9261 13.5404 16.0171Z" stroke="#FAAE2B" stroke-width="1.5" stroke-linecap="round" stroke-linejoin="round"/>
</svg>
