<svg width="32" height="32" viewBox="0 0 32 32" fill="none" xmlns="http://www.w3.org/2000/svg">
<path d="M5 4.3V27.7C5 28.0448 5.15145 28.3754 5.42103 28.6192C5.69062 28.863 6.05625 29 6.4375 29H8.18904V3H6.4375C6.05625 3 5.69062 3.13696 5.42103 3.38076C5.15145 3.62456 5 3.95522 5 4.3ZM8.18904 3V29H26.5625C26.9438 29 27.3094 28.863 27.579 28.6192C27.8486 28.3754 28 28.0448 28 27.7V4.3C28 3.95522 27.8486 3.62456 27.579 3.38076C27.3094 3.13696 26.9438 3 26.5625 3H8.18904Z" fill="currentColor"/>
<path d="M8.18904 29H6.4375C6.05625 29 5.69062 28.863 5.42103 28.6192C5.15145 28.3754 5 28.0448 5 27.7V4.3C5 3.95522 5.15145 3.62456 5.42103 3.38076C5.69062 3.13696 6.05625 3 6.4375 3H8.18904M8.18904 29V3M8.18904 29H26.5625C26.9438 29 27.3094 28.863 27.579 28.6192C27.8486 28.3754 28 28.0448 28 27.7V4.3C28 3.95522 27.8486 3.62456 27.579 3.38076C27.3094 3.13696 26.9438 3 26.5625 3H8.18904"  stroke-linecap="round" stroke-linejoin="round"/>
<path d="M14.2211 16.2662V20.8408H18.7958M20.1384 23.6502L22.0138 18.0155L23.8118 23.6668M23.2104 21.7762H20.7618M11.0718 9.5815H17.3698M14.2211 8.3335V9.5815M15.9838 9.5815C15.9838 11.3042 13.9838 14.1568 11.9831 14.5922"  stroke-width="0.8" stroke-linecap="round" stroke-linejoin="round"/>
<path d="M12.2998 11.146C12.4978 12.334 14.5578 14.3147 16.3898 14.5927M13.0425 17.444L14.2211 16.266L15.3991 17.444M17.6178 19.6627L18.7958 20.8407L17.6178 22.0193"  stroke-width="0.8" stroke-linecap="round" stroke-linejoin="round"/>
</svg>
