<svg width="26" height="26" viewBox="0 0 26 26" fill="none" xmlns="http://www.w3.org/2000/svg">
<path d="M5.92548 13.5744C5.60818 13.2571 5.60818 12.7426 5.92548 12.4253L8.09214 10.2586C8.40945 9.94135 8.92389 9.94135 9.24119 10.2586C9.55849 10.5759 9.55849 11.0904 9.24119 11.4077L8.46155 12.1873L16.25 12.1873C16.6987 12.1873 17.0625 12.5511 17.0625 12.9998C17.0625 13.4486 16.6987 13.8123 16.25 13.8123L8.46155 13.8123L9.24119 14.592C9.55849 14.9093 9.55849 15.4237 9.24119 15.741C8.92389 16.0583 8.40945 16.0583 8.09214 15.741L5.92548 13.5744Z" fill="#FF6262"/>
<path fill-rule="evenodd" clip-rule="evenodd" d="M15.1075 1.354H16.3097C17.7912 1.35398 18.9854 1.35396 19.9246 1.48024C20.8997 1.61134 21.7208 1.89181 22.3729 2.54388C23.0249 3.19596 23.3054 4.01699 23.4365 4.99211C23.5628 5.93132 23.5628 7.12551 23.5627 8.60706V17.3926C23.5628 18.8742 23.5628 20.0684 23.4365 21.0076C23.3054 21.9827 23.0249 22.8037 22.3729 23.4558C21.7208 24.1079 20.8997 24.3883 19.9246 24.5194C18.9854 24.6457 17.7912 24.6457 16.3097 24.6457H15.1075C13.6259 24.6457 12.4317 24.6457 11.4925 24.5194C10.5174 24.3883 9.69636 24.1079 9.04428 23.4558C8.6121 23.0236 8.34241 22.5163 8.17163 21.9372C7.14099 21.9358 6.28232 21.9245 5.58663 21.8309C4.75901 21.7197 4.04148 21.4789 3.46873 20.9061C2.89598 20.3334 2.65517 19.6158 2.5439 18.7882C2.43745 17.9965 2.43748 16.9936 2.4375 15.7664V10.2333C2.43748 9.00612 2.43745 8.00322 2.5439 7.21146C2.65517 6.38385 2.89598 5.66632 3.46873 5.09357C4.04148 4.52082 4.75901 4.28001 5.58663 4.16874C6.28232 4.07521 7.14099 4.06387 8.17163 4.06252C8.34241 3.48342 8.6121 2.97607 9.04428 2.54388C9.69636 1.89181 10.5174 1.61134 11.4925 1.48024C12.4317 1.35396 13.6259 1.35398 15.1075 1.354ZM7.8563 18.421C7.86018 19.1193 7.87171 19.7482 7.91142 20.3113C7.00739 20.3078 6.33533 20.292 5.80316 20.2204C5.15574 20.1334 4.83828 19.9776 4.61778 19.7571C4.39728 19.5366 4.24146 19.2191 4.15441 18.5717C4.06423 17.9009 4.0625 17.0079 4.0625 15.7082V10.2915C4.0625 8.99182 4.06423 8.09878 4.15441 7.42799C4.24146 6.78057 4.39728 6.46312 4.61778 6.24262C4.83828 6.02211 5.15574 5.86629 5.80316 5.77925C6.33533 5.7077 7.00739 5.69183 7.91142 5.68832C7.87171 6.25146 7.86018 6.8804 7.8563 7.57865C7.8538 8.02737 8.21554 8.39316 8.66426 8.39566C9.11299 8.39816 9.47878 8.03642 9.48127 7.5877C9.48787 6.40307 9.51863 5.5634 9.63569 4.92613C9.74848 4.31209 9.92959 3.95667 10.1933 3.69293C10.4932 3.39311 10.9141 3.19762 11.709 3.09075C12.5273 2.98073 13.6119 2.97901 15.1669 2.97901H16.2502C17.8053 2.97901 18.8898 2.98073 19.7081 3.09075C20.503 3.19762 20.924 3.39311 21.2238 3.69293C21.5236 3.99276 21.7191 4.41371 21.826 5.20864C21.936 6.02693 21.9377 7.11147 21.9377 8.66651V17.3332C21.9377 18.8882 21.936 19.9727 21.826 20.791C21.7191 21.586 21.5236 22.0069 21.2238 22.3067C20.924 22.6066 20.503 22.8021 19.7081 22.9089C18.8898 23.0189 17.8053 23.0207 16.2502 23.0207H15.1669C13.6119 23.0207 12.5273 23.0189 11.709 22.9089C10.9141 22.8021 10.4932 22.6066 10.1933 22.3067C9.92959 22.043 9.74848 21.6876 9.63569 21.0735C9.51863 20.4363 9.48787 19.5966 9.48127 18.412C9.47878 17.9633 9.11299 17.6015 8.66426 17.604C8.21554 17.6065 7.8538 17.9723 7.8563 18.421Z" fill="#FF6262"/>
</svg>
