<svg width="24" height="25" viewBox="0 0 24 25" fill="none" xmlns="http://www.w3.org/2000/svg">
<path d="M21.1739 7.0959C21.7026 6.5453 21.9997 5.79848 21.9998 5.01971C21.9999 4.24095 21.703 3.49404 21.1744 2.9433C20.6459 2.39256 19.9289 2.08311 19.1813 2.08301C18.4337 2.08291 17.7166 2.39218 17.1879 2.94278L3.84193 16.848C3.60975 17.0891 3.43805 17.386 3.34193 17.7126L2.02093 22.2459C1.99509 22.336 1.99314 22.4317 2.01529 22.5228C2.03743 22.614 2.08285 22.6972 2.14673 22.7636C2.21061 22.83 2.29055 22.8772 2.37809 22.9002C2.46563 22.9231 2.55749 22.9209 2.64393 22.8938L6.99694 21.5188C7.3101 21.4196 7.59511 21.2418 7.82694 21.0011L21.1739 7.0959Z" stroke="#CCCCCC" stroke-width="2" stroke-linecap="round" stroke-linejoin="round"/>
</svg>
