<svg width="34" height="34" viewBox="0 0 34 34" fill="none" xmlns="http://www.w3.org/2000/svg">
<rect width="32.5" height="32.5" transform="translate(0.75 0.75)" fill="#F0F0F0"/>
<path fill-rule="evenodd" clip-rule="evenodd" d="M16.9999 4.47412C13.6778 4.47412 10.4918 5.79383 8.14268 8.14292C5.7936 10.492 4.47389 13.6781 4.47389 17.0002C4.47389 19.0057 4.94514 20.8988 5.78066 22.5766C6.1165 23.251 6.24514 24.0554 6.03389 24.8476L5.22681 27.8606C5.19292 27.9868 5.19285 28.1197 5.2266 28.246C5.26036 28.3723 5.32674 28.4875 5.41909 28.5799C5.51145 28.6724 5.62651 28.739 5.75273 28.7729C5.87895 28.8069 6.01188 28.807 6.13816 28.7733L9.15389 27.9662C9.91597 27.7708 10.7232 27.8608 11.4235 28.2194C13.1556 29.0822 15.0649 29.5296 16.9999 29.5262C20.322 29.5262 23.5081 28.2065 25.8572 25.8574C28.2063 23.5083 29.526 20.3223 29.526 17.0002C29.526 13.6781 28.2063 10.492 25.8572 8.14292C23.5081 5.79383 20.322 4.47412 16.9999 4.47412ZM2.44264 17.0002C2.44264 8.96048 8.96025 2.44287 16.9999 2.44287C25.0396 2.44287 31.5572 8.96048 31.5572 17.0002C31.5572 25.0399 25.0396 31.5575 16.9999 31.5575C14.6735 31.5575 12.4716 31.0104 10.5175 30.0381C10.2596 29.9028 9.96177 29.8644 9.67795 29.9298L6.66358 30.7355C4.59983 31.288 2.71212 29.4003 3.26462 27.3365L4.0717 24.3221C4.13707 24.0383 4.09864 23.7405 3.96337 23.4826C2.96013 21.4691 2.43947 19.2497 2.44264 17.0002ZM16.9999 10.5679C17.2693 10.5679 17.5276 10.6749 17.7181 10.8653C17.9086 11.0558 18.0156 11.3141 18.0156 11.5835V11.597C19.4902 11.9694 20.7239 13.1313 20.7239 14.7428C20.7239 15.0121 20.6169 15.2705 20.4264 15.4609C20.236 15.6514 19.9776 15.7584 19.7083 15.7584C19.4389 15.7584 19.1806 15.6514 18.9901 15.4609C18.7996 15.2705 18.6926 15.0121 18.6926 14.7428C18.6926 14.2228 18.1158 13.5024 16.9999 13.5024C15.8841 13.5024 15.3072 14.2228 15.3072 14.7428C15.3072 15.2628 15.8841 15.9845 16.9999 15.9845C18.8755 15.9845 20.7239 17.2845 20.7239 19.2576C20.7239 20.869 19.4902 22.0322 18.0156 22.4033V22.4168C18.0156 22.6862 17.9086 22.9445 17.7181 23.135C17.5276 23.3255 17.2693 23.4325 16.9999 23.4325C16.7306 23.4325 16.4722 23.3255 16.2818 23.135C16.0913 22.9445 15.9843 22.6862 15.9843 22.4168V22.4033C14.5096 22.0322 13.276 20.869 13.276 19.2576C13.276 18.9882 13.383 18.7299 13.5734 18.5394C13.7639 18.3489 14.0222 18.2419 14.2916 18.2419C14.561 18.2419 14.8193 18.3489 15.0098 18.5394C15.2002 18.7299 15.3072 18.9882 15.3072 19.2576C15.3072 19.7776 15.8841 20.498 16.9999 20.498C18.1158 20.498 18.6926 19.7776 18.6926 19.2576C18.6926 18.7376 18.1158 18.0158 16.9999 18.0158C15.1244 18.0158 13.276 16.7158 13.276 14.7428C13.276 13.1313 14.5096 11.9694 15.9843 11.597V11.5835C15.9843 11.3141 16.0913 11.0558 16.2818 10.8653C16.4722 10.6749 16.7306 10.5679 16.9999 10.5679Z" fill="#00473E"/>
</svg>
