<svg width="60" height="101" viewBox="0 0 60 101" fill="none" xmlns="http://www.w3.org/2000/svg">
<path d="M0.290316 98.314C0.273177 98.314 0.256037 98.3132 0.238898 98.3104C0.0812571 98.2849 -0.023472 98.1487 0.00452871 98.0057L0.294203 96.526C1.51129 90.2901 2.77092 83.8408 4.58787 77.5516C5.45629 74.5446 6.4143 71.5219 7.43488 68.5636C7.70073 67.7945 7.9926 67.0285 8.28576 66.2619C9.01716 64.3465 9.77348 62.3676 10.0743 60.3469C11.0066 54.1057 11.643 47.8609 12.2148 41.9983C12.3027 41.0924 12.3809 40.1849 12.4593 39.2752C12.6141 37.481 12.7745 35.6249 13.0131 33.8105C13.2981 31.6401 14.2552 29.5111 15.18 27.4544L15.4533 26.846C16.7016 24.0481 18.4096 20.4193 20.5641 17.1703C21.8902 15.1688 23.2877 13.1845 24.6399 11.2662C25.5343 9.99692 26.43 8.72587 27.3148 7.43855C28.0107 6.4143 28.7308 5.3557 29.6888 4.46795C30.389 3.81977 31.1449 3.33702 31.9363 3.03236C32.5555 2.7928 33.1157 2.78647 33.6567 2.77924C33.9417 2.77562 34.2367 2.7711 34.5441 2.73404C34.9331 2.68613 35.3308 2.60477 35.7278 2.49086C37.179 2.07954 38.5091 1.29575 39.7959 0.536377L39.8593 0.498405C40.3369 0.218155 40.7083 0.0708084 41.0644 0.0192795C41.5097 -0.0430984 41.934 0.046402 42.3625 0.292297C43.0842 0.707237 43.8304 1.13665 44.206 2.03253C44.533 2.8127 44.5455 3.73479 44.2426 4.77351C44.1826 4.98143 44.1122 5.18755 44.0336 5.38914C43.7557 6.10513 43.3793 6.79941 42.9168 7.45121C42.8312 7.57325 42.6506 7.6076 42.5167 7.52895C42.382 7.4503 42.3435 7.28757 42.4303 7.16553C42.8686 6.5499 43.2243 5.89268 43.4871 5.21467C43.5607 5.02663 43.6268 4.83498 43.6821 4.64062C43.9534 3.70948 43.948 2.89496 43.665 2.21875C43.3793 1.53802 42.8409 1.18997 42.0519 0.735252C41.7436 0.559875 41.4575 0.496597 41.1536 0.539093C40.8826 0.577057 40.5809 0.700905 40.1746 0.940468L40.1112 0.977539C38.7916 1.75499 37.4273 2.56138 35.9015 2.9926C35.474 3.11554 35.0428 3.20322 34.6217 3.25385C34.2795 3.29633 33.9669 3.30087 33.6648 3.30447C33.1355 3.31081 32.6777 3.31622 32.1628 3.51601C31.4423 3.79355 30.7491 4.23832 30.1021 4.83588C29.1901 5.68204 28.4863 6.71444 27.8067 7.71519C26.9209 9.00522 26.0236 10.279 25.1275 11.55C23.778 13.4647 22.3827 15.4445 21.0607 17.4406C18.9265 20.6589 17.2305 24.2623 15.9908 27.0422L15.7168 27.6524C14.8059 29.6783 13.864 31.7718 13.5881 33.8712C13.3506 35.6765 13.191 37.5269 13.0369 39.3168C12.9579 40.2273 12.88 41.1358 12.7913 42.0435C12.219 47.9132 11.5823 54.1664 10.6485 60.4186C10.3398 62.4904 9.57379 64.4948 8.83302 66.4339C8.54185 67.1949 8.25148 67.9551 7.98682 68.7211C6.97012 71.6698 6.01451 74.6859 5.14809 77.6844C3.33731 83.9527 2.07997 90.3911 0.863981 96.6182L0.574807 98.0978C0.549895 98.2253 0.427629 98.314 0.290316 98.314Z" fill="#FAAE2B"/>
<path d="M35.8154 2.74358C36.0339 3.12779 36.5044 3.40985 36.9895 3.47945C37.6578 3.57528 38.3335 3.3574 38.9407 3.0871C39.6714 2.76075 40.4089 2.29247 40.6386 1.58372C40.7336 1.29082 40.7336 0.976229 40.8496 0.688751C40.9103 0.53778 40.9998 0.402175 41.1092 0.279229L35.8154 2.74358Z" fill="#FAAE2B"/>
<path d="M31.8565 19.5859C31.4209 19.5859 30.9764 19.5001 30.6027 19.237C30.2481 18.9866 29.9986 18.6051 29.8405 18.0672C29.7825 17.8701 29.7409 17.6721 29.7153 17.4732C29.5307 16.0793 30.0702 14.5632 31.1947 13.313C31.9281 12.4975 32.8957 11.7788 34.1518 11.1162C34.5971 10.8802 35.0693 10.6533 35.5932 10.4255C36.1751 10.1706 36.7671 9.93284 37.3595 9.69418C38.377 9.28556 39.4292 8.86338 40.4027 8.35623C41.0621 8.01361 41.7293 7.61222 42.5023 7.09693C42.976 6.78323 43.44 6.4596 43.9035 6.13506L44.074 6.01572C44.2021 5.92713 44.3831 5.94883 44.4808 6.06273C44.5785 6.17845 44.5547 6.34298 44.4279 6.43157L44.257 6.55091C43.7895 6.87816 43.3216 7.20541 42.844 7.52092C42.0543 8.04796 41.3696 8.45929 40.6911 8.81276C39.6916 9.33348 38.6251 9.76017 37.5939 10.1742C37.0073 10.4102 36.4211 10.6461 35.8442 10.8992C35.3335 11.1207 34.8759 11.3404 34.4442 11.57C33.248 12.201 32.3321 12.8799 31.6431 13.6447C30.6327 14.7675 30.127 16.176 30.2901 17.41C30.3131 17.5863 30.3489 17.7589 30.4003 17.9307C30.5241 18.3547 30.7066 18.6458 30.9577 18.8211C31.3466 19.0942 31.9363 19.1321 32.8109 18.9341C33.1752 18.8528 33.5485 18.7533 33.9213 18.6376C34.6501 18.4134 35.4052 18.125 36.23 17.7553C37.2097 17.3196 38.1793 16.8151 39.0108 16.3767L39.1295 16.3134C40.5433 15.5667 42.0052 14.7955 43.6428 14.4574C44.1188 14.358 44.6081 14.3345 45.0815 14.3119C45.4146 14.2956 45.749 14.2794 46.0775 14.2369C47.0136 14.1058 47.8357 13.897 48.562 13.6077C50.1649 12.9676 51.3148 11.8494 51.7994 10.4581C52.1466 9.45732 52.0435 8.38334 51.523 7.58419C51.0633 6.87815 50.2588 6.29869 49.0649 5.81594C47.7399 5.28076 46.2694 4.97701 44.8144 4.93724C44.5586 4.9291 44.2827 4.93995 43.9927 4.96887C43.8359 4.97882 43.6914 4.87757 43.6747 4.73383C43.6583 4.59009 43.7736 4.45991 43.9331 4.44545C44.2469 4.41561 44.5498 4.40386 44.8316 4.412C46.3616 4.45358 47.9073 4.7727 49.3004 5.3359C50.6087 5.86565 51.4993 6.51474 52.0217 7.31751C52.6242 8.24232 52.7476 9.4754 52.3517 10.6163C51.8161 12.154 50.5535 13.3871 48.7952 14.0886C48.0225 14.396 47.1514 14.6184 46.2044 14.7513C45.8148 14.8019 45.4629 14.82 45.1122 14.8371C44.6431 14.8588 44.1998 14.8805 43.7712 14.9691C42.2205 15.29 40.7967 16.0422 39.421 16.7672L39.3016 16.8314C38.4615 17.2744 37.4818 17.7833 36.4861 18.2272C35.6388 18.6069 34.8602 18.9043 34.1079 19.1357C33.7206 19.256 33.3305 19.3599 32.9502 19.444C32.6334 19.5154 32.2488 19.5859 31.8565 19.5859Z" fill="#FAAE2B"/>
<path d="M37.2573 15.0634C36.7801 14.5662 35.9296 14.5671 35.2192 14.7063C34.0951 14.926 33.0519 15.3879 32.0959 15.9593C31.319 16.4239 29.7359 17.1499 29.9866 18.1479C30.1026 18.6089 30.5565 18.9543 31.0531 19.0989C31.5501 19.2445 32.0861 19.2201 32.6047 19.1649C33.8397 19.0338 35.1604 18.7409 36.2118 18.1163C37.1849 17.5377 38.2156 16.0614 37.2573 15.0634Z" fill="#FAAE2B"/>
<path d="M34.2981 11.6064C34.2658 11.6064 34.2328 11.6019 34.2004 11.5911C33.7368 11.441 33.2919 11.1987 32.9155 10.8896C32.3013 10.3869 31.8408 9.7053 31.5832 8.9179C31.538 8.77868 31.6255 8.63223 31.779 8.59064C31.9323 8.55177 32.0931 8.6277 32.139 8.76873C32.3659 9.46302 32.7684 10.0615 33.3036 10.4999C33.6243 10.763 34.0019 10.9682 34.3954 11.0966C34.5457 11.1463 34.6247 11.2964 34.5706 11.432C34.5281 11.5396 34.4168 11.6064 34.2981 11.6064Z" fill="#FAAE2B"/>
<path d="M34.0627 28.2612C33.8844 28.2603 33.6972 28.2549 33.5011 28.2431C32.3722 28.1645 30.9585 27.8607 30.3544 26.8519C29.8753 26.0518 29.82 24.9561 30.189 23.5956C30.2092 23.5242 30.2291 23.4537 30.2512 23.385C30.6198 22.1907 31.3073 21.3012 31.9943 20.5192C32.5556 19.8783 33.1671 19.2653 33.8125 18.6976C33.9281 18.5991 34.111 18.6009 34.2223 18.7039C34.3333 18.8079 34.3302 18.9742 34.2157 19.0755C33.5883 19.6269 32.9939 20.2227 32.4477 20.8456C31.7977 21.586 31.1496 22.4222 30.8087 23.5296C30.7872 23.5947 30.769 23.6589 30.7511 23.724C30.4182 24.9507 30.4552 25.9189 30.8636 26.6005C31.3427 27.4015 32.5606 27.6492 33.4971 27.717C33.7264 27.7297 33.8922 27.7333 34.0627 27.736C35.4216 27.736 36.7119 27.0851 37.9599 26.4559C38.1798 26.3456 38.3962 26.2362 38.6107 26.1323C40.2276 25.3458 41.6869 24.7907 43.0718 24.4345C43.7919 24.2492 44.5143 24.1624 45.2135 24.0783C46.0928 23.9717 46.9234 23.8713 47.7396 23.592C47.9291 23.5287 48.1184 23.4537 48.3052 23.3678C48.8342 23.1237 49.2118 22.8751 49.4932 22.5849C50.2479 21.8084 50.3253 20.3357 50.0677 19.2219C49.7886 18.0106 49.1456 16.8977 48.2562 16.0859C47.6104 15.4992 46.8346 15.0336 46.0133 14.7407C45.8647 14.6883 45.7907 14.5364 45.849 14.4008C45.9074 14.2661 46.0775 14.2001 46.2235 14.2517C47.1199 14.5717 47.9638 15.0761 48.666 15.7153C49.6341 16.5985 50.3331 17.8054 50.6344 19.1144C50.9003 20.2661 50.8758 21.9557 49.9275 22.9329C49.5963 23.2747 49.1639 23.5612 48.5676 23.837C48.3605 23.931 48.1514 24.0142 47.9424 24.0847C47.0651 24.3848 46.1628 24.4933 45.2897 24.5991C44.6113 24.6813 43.9091 24.7663 43.2294 24.9399C41.8862 25.2861 40.4642 25.8276 38.8839 26.5951C38.673 26.6982 38.4585 26.8058 38.2417 26.9152C36.989 27.5462 35.5715 28.2612 34.0627 28.2612Z" fill="#FAAE2B"/>
<path d="M33.4756 27.9782C33.5336 27.9538 33.5916 27.9294 33.6504 27.9041C35.4152 27.142 36.9363 25.9161 37.9511 24.4001C38.2715 23.9219 38.5501 23.3587 38.3956 22.8163C38.2707 22.3796 37.8733 22.037 37.417 21.8535C36.9616 21.6718 36.4533 21.6293 35.9554 21.6302C33.9859 21.6347 32.0354 22.3073 30.5293 23.4581C30.3639 23.5838 30.3359 23.9318 30.3083 24.1262C30.2421 24.5927 30.1756 25.0627 30.2168 25.5319C30.2577 26.0002 30.4137 26.4739 30.7474 26.8328C31.1179 27.2333 31.664 27.4548 32.1914 27.6636C32.6932 27.8634 32.989 28.2087 33.4756 27.9782Z" fill="#FAAE2B"/>
<path d="M32.7198 36.7183C32.4858 36.7183 32.2511 36.6975 32.0199 36.6597C31.424 36.5601 30.8615 36.3369 30.3932 36.0148C29.6689 35.5169 29.5661 34.5515 29.5521 33.8678C29.5401 33.33 29.6097 32.783 29.7596 32.2445C30.2403 30.5085 31.5516 28.876 33.3593 27.7632L33.4749 27.6935C33.8256 27.4847 34.174 27.3057 34.5259 27.1529C34.6691 27.0924 34.8427 27.1448 34.912 27.275C34.9809 27.4061 34.9202 27.5634 34.7761 27.6257C34.4484 27.7686 34.1218 27.9367 33.8069 28.1248L33.6875 28.1962C31.9931 29.2385 30.7677 30.7599 30.3212 32.3719C30.1842 32.8663 30.12 33.3663 30.1305 33.8579C30.1496 34.7574 30.3501 35.3263 30.7432 35.5964C31.1398 35.8687 31.617 36.0583 32.1246 36.1423C32.3426 36.1787 32.5629 36.1914 32.7821 36.1921C33.2854 36.1805 33.8088 36.0675 34.4273 35.8379C34.8271 35.6886 35.2324 35.506 35.6231 35.328C35.9708 35.1705 36.3179 35.0134 36.6702 34.875C38.467 34.1679 40.4159 33.961 42.3006 33.7594C42.8791 33.699 43.4555 33.6375 44.0266 33.5623C45.8123 33.3265 47.8189 32.9638 49.0295 31.6304C49.265 31.3694 49.458 31.089 49.6122 30.7889C49.7812 30.4644 49.8843 30.1145 49.9874 29.6887C50.161 28.9682 50.3448 28.0199 50.2155 27.077C50.0902 26.1531 49.6698 25.3594 49.0318 24.8423C48.7745 24.6352 48.4736 24.4644 48.214 24.3243C48.0513 24.2357 47.8843 24.1507 47.7142 24.0748C47.5702 24.0106 47.5114 23.8533 47.5819 23.7231C47.6527 23.592 47.8283 23.5414 47.9692 23.6029C48.1548 23.686 48.3351 23.7773 48.5107 23.8732C48.7929 24.025 49.1221 24.2131 49.4172 24.449C50.1606 25.052 50.6484 25.9623 50.7908 27.0119C50.9298 28.0334 50.7367 29.0405 50.5534 29.8017C50.4565 30.1995 50.3393 30.6226 50.1369 31.012C49.9625 31.3503 49.7438 31.6685 49.4868 31.9525C48.1985 33.3728 46.1421 33.8137 44.1098 34.0821C43.5333 34.1581 42.9518 34.2206 42.3684 34.2809C40.5249 34.478 38.6192 34.6825 36.9003 35.357C36.5581 35.4908 36.2203 35.6451 35.882 35.7981C35.4815 35.9789 35.0673 36.1678 34.6465 36.3231C33.9615 36.5791 33.3726 36.7038 32.7945 36.7176C32.7696 36.7183 32.7443 36.7183 32.7198 36.7183Z" fill="#FAAE2B"/>
<path d="M34.5382 36.0804C35.3976 35.5408 36.205 34.9387 36.9254 34.2536C37.3256 33.873 37.7038 33.4615 37.928 32.977C38.1534 32.4933 38.2095 31.9236 37.9682 31.4466C37.7265 30.9656 37.2096 30.6319 36.6541 30.4712C36.0998 30.311 35.5054 30.3038 34.9231 30.3327C34.2337 30.368 33.5425 30.4511 32.8862 30.6446C31.8022 30.9638 30.8496 31.5694 30.0408 32.3078C29.7625 32.5611 29.7162 33.0575 29.6983 33.4145C29.6679 34.0294 29.6637 34.6848 30.0186 35.2088C30.4784 35.8861 31.4156 36.1591 32.2891 36.2287C33.1162 36.2947 33.7359 36.2831 34.5382 36.0804Z" fill="#FAAE2B"/>
<path d="M34.86 43.3779C34.2508 43.3779 33.646 43.3299 33.0785 43.2088C32.9605 43.1845 32.8472 43.1545 32.7332 43.1247C31.6908 42.8355 30.4951 42.077 30.1716 41.03C29.9229 40.2348 29.9634 39.3367 30.2876 38.4338C30.3861 38.158 30.5106 37.8843 30.6581 37.6212C30.9819 37.0389 31.3845 36.5742 31.8885 36.198C32.0112 36.1059 32.1944 36.1215 32.2961 36.2345C32.398 36.3464 32.3802 36.5109 32.2564 36.6042C31.8162 36.9329 31.4619 37.3426 31.1743 37.8578C31.0403 38.0976 30.9278 38.3462 30.838 38.5966C30.5496 39.401 30.5118 40.192 30.7285 40.8873C30.9925 41.738 32.0392 42.3825 32.8998 42.6201C33.001 42.6473 33.1041 42.6745 33.2108 42.6971C34.6541 43.0061 36.4053 42.7928 37.7704 42.5749C38.501 42.4577 39.2309 42.452 39.9362 42.4467C40.4103 42.4439 40.9008 42.4393 41.3744 42.4005C42.088 42.3401 42.8006 42.4185 43.4908 42.4919C44.0633 42.5523 44.6496 42.6148 45.2275 42.5969C46.2174 42.5643 47.2069 42.32 48.0901 41.8905L48.2216 41.8249C49.1251 41.3602 49.6646 40.8774 50.1671 40.0934C51.1985 38.4853 51.5422 36.5498 51.1103 34.7834C51.0035 34.3442 50.8657 33.978 50.6887 33.6668C50.4571 33.2537 50.12 32.8578 49.6295 32.4202C49.4341 32.2476 49.2586 32.1148 49.0935 32.0163C48.9604 31.9365 48.9234 31.773 49.0126 31.6508C49.1006 31.5307 49.2803 31.4965 49.4135 31.5777C49.612 31.697 49.8094 31.8454 50.0348 32.0449C50.5719 32.5241 50.9436 32.9634 51.2044 33.4274C51.4041 33.7798 51.5583 34.1866 51.6753 34.6693C52.139 36.5632 51.7715 38.6361 50.6676 40.3576C50.1161 41.2182 49.496 41.774 48.5283 42.2712L48.366 42.3535C47.403 42.8211 46.3252 43.0867 45.2485 43.1219C44.6296 43.1428 44.0182 43.076 43.4234 43.0146C42.7325 42.9404 42.0809 42.8716 41.4262 42.9242C40.9288 42.9648 40.4266 42.9683 39.9413 42.9718C39.2597 42.9775 38.5544 42.9828 37.8712 43.093C36.9732 43.2367 35.9106 43.3779 34.86 43.3779Z" fill="#FAAE2B"/>
<path d="M33.1451 42.9531C33.4449 42.8493 33.7415 42.7391 34.035 42.6226C34.9851 42.2465 35.9345 41.7818 36.567 41.036C37.198 40.2909 37.4362 39.2007 36.8909 38.3999C36.4534 37.7572 35.5978 37.4217 34.7668 37.3817C33.9341 37.3412 33.1144 37.5555 32.3262 37.8002C31.717 37.9895 31.1044 38.2046 30.5629 38.5146C30.3531 38.6347 30.2788 38.9324 30.2718 39.1562C30.2597 39.5595 30.2519 39.9628 30.2484 40.3661C30.2469 40.5656 30.2469 40.769 30.3135 40.959C30.4127 41.2412 30.6478 41.4637 30.8857 41.6642C31.4878 42.173 32.3208 42.9531 33.1451 42.9531Z" fill="#FAAE2B"/>
<path d="M30.1244 52.7212C30.0715 52.7212 30.0177 52.7077 29.9694 52.6806C29.8348 52.6029 29.7942 52.4401 29.8799 52.3179C30.7316 51.0986 32.0196 50.0617 33.7082 49.2326C33.8693 49.1531 34.0328 49.0762 34.1966 49.002C35.9404 48.2248 37.8349 47.7547 39.5059 47.3398C40.6028 47.0665 41.8461 46.7575 42.7339 46.0551C43.0309 45.8192 43.2867 45.5434 43.556 45.2525C43.8597 44.9251 44.1741 44.585 44.5572 44.304C44.9025 44.05 45.2862 43.8555 45.6588 43.6675C45.8289 43.5817 45.9997 43.4949 46.1659 43.4035C46.8627 43.0175 47.4808 42.5295 48.0028 41.9563C48.1047 41.844 48.287 41.8295 48.4107 41.921C48.5341 42.0121 48.5516 42.1788 48.45 42.2896C47.8864 42.9101 47.2196 43.4341 46.4676 43.8512C46.2947 43.9476 46.1173 44.0363 45.9402 44.1267C45.5739 44.312 45.2278 44.4865 44.9215 44.7125C44.5817 44.9629 44.2991 45.2686 43.9994 45.5915C43.7273 45.8842 43.4462 46.1879 43.1146 46.4503C42.1267 47.2339 40.8154 47.5584 39.659 47.8458C38.0128 48.2544 36.1464 48.7185 34.4527 49.4741C34.2959 49.5444 34.1398 49.6179 33.9841 49.6944C32.3824 50.4791 31.1672 51.4567 30.3696 52.5983C30.3139 52.6777 30.2205 52.7212 30.1244 52.7212Z" fill="#FAAE2B"/>
<path d="M32.7902 63.0723C32.789 63.0723 32.7886 63.0723 32.7878 63.0723C32.6274 63.0715 32.4994 62.9522 32.501 62.8074C32.5457 58.2223 32.6605 53.7474 33.5604 49.4153C33.5908 49.2725 33.7434 49.1758 33.8995 49.2054C34.0564 49.2326 34.1603 49.3701 34.1303 49.5131C33.2386 53.8015 33.1241 58.2513 33.0793 62.812C33.0782 62.9557 32.949 63.0723 32.7902 63.0723Z" fill="#FAAE2B"/>
<path d="M30.11 100.893C30.0979 100.893 30.0858 100.892 30.0727 100.891C29.9146 100.873 29.8021 100.741 29.8228 100.597C30.9197 92.7674 31.6887 84.7993 32.1079 76.9157C32.1154 76.7698 32.2403 76.6671 32.4116 76.6649C32.5708 76.6723 32.6942 76.7953 32.6864 76.9407C32.2672 84.8381 31.4965 92.82 30.3965 100.663C30.3782 100.796 30.2536 100.893 30.11 100.893Z" fill="#FAAE2B"/>
<path d="M32.7242 68.3315C32.7218 68.3315 32.7207 68.3315 32.7187 68.3315C32.5588 68.3297 32.4311 68.2097 32.4346 68.0649C32.4435 67.6002 32.4525 67.1354 32.4588 66.6718C32.4603 66.5274 32.5895 66.4115 32.7479 66.4115C32.7487 66.4115 32.7503 66.4115 32.751 66.4115C32.9115 66.4133 33.0395 66.5326 33.0371 66.6775C33.0309 67.1418 33.0228 67.6083 33.0134 68.0741C33.0107 68.2167 32.8811 68.3315 32.7242 68.3315Z" fill="#FAAE2B"/>
<path d="M23.9973 21.6094C23.7672 21.6094 23.5375 21.6003 23.3087 21.5841C23.1495 21.5714 23.0307 21.4449 23.044 21.3002C23.0564 21.1547 23.193 21.0362 23.3558 21.0597C25.3728 21.208 27.4417 20.6439 29.0309 19.5048C29.1555 19.4126 29.3385 19.4325 29.4377 19.5482C29.537 19.6621 29.5156 19.8267 29.3907 19.9171C27.8672 21.0082 25.9341 21.6094 23.9973 21.6094Z" fill="#FAAE2B"/>
<path d="M20.0038 43.7339C19.9746 43.7339 19.9451 43.7321 19.9155 43.7222C19.7628 43.6781 19.6788 43.5305 19.7279 43.3923C20.959 39.9172 23.902 36.9873 27.6014 35.5525C27.7467 35.5003 27.9187 35.5581 27.9814 35.6909C28.0441 35.8237 27.9755 35.9784 27.8288 36.0363C24.282 37.4104 21.46 40.2209 20.2798 43.5524C20.2397 43.6636 20.1264 43.7339 20.0038 43.7339Z" fill="#FAAE2B"/>
<path d="M42.7008 13.8403C42.5618 13.8403 42.4396 13.7499 42.4155 13.6207C42.3294 13.1478 42.196 12.6814 42.02 12.233C41.9659 12.0956 42.0449 11.9455 42.1956 11.8976C42.3457 11.8434 42.5115 11.9193 42.5653 12.0558C42.7533 12.534 42.8954 13.0321 42.9869 13.5348C43.0138 13.6776 42.9062 13.8132 42.7482 13.8367C42.7323 13.8394 42.7167 13.8403 42.7008 13.8403Z" fill="#FAAE2B"/>
<path d="M41.8777 66.1352C40.5457 66.1352 39.4547 69.0333 39.4547 72.624C39.4547 76.1363 40.5064 79.0001 41.8003 79.105C35.2745 79.0877 29.9844 76.6444 29.9844 73.623C29.9844 70.6009 35.3131 66.1352 41.8777 66.1352Z" fill="#FAAE2B"/>
<path d="M53.7714 73.623C53.7714 76.6444 48.4811 79.0877 41.9551 79.105C43.2582 79.0001 44.301 76.1363 44.301 72.624C44.301 69.0333 43.2201 66.1352 41.8779 66.1352C48.4425 66.1352 53.7714 70.6009 53.7714 73.623Z" fill="#FAAE2B"/>
<path d="M41.8795 66.3933C35.4756 66.3933 30.2785 70.7687 30.2785 73.6244C30.2785 76.4992 35.4826 78.8388 41.8795 78.8388C48.2755 78.8388 53.4806 76.4992 53.4806 73.6244C53.4806 70.7687 48.2829 66.3933 41.8795 66.3933ZM41.8795 79.3643C35.163 79.3643 29.6992 76.7884 29.6992 73.6244C29.6992 70.5733 34.9296 65.8679 41.8795 65.8679C48.8295 65.8679 54.0589 70.5733 54.0589 73.6244C54.0589 76.7884 48.5951 79.3643 41.8795 79.3643Z" fill="#FAAE2B"/>
<path d="M41.8799 66.3935C40.8718 66.3935 39.7492 68.9508 39.7492 72.6221C39.7492 76.2932 40.8718 78.8506 41.8799 78.8506C42.8872 78.8506 44.0107 76.2932 44.0107 72.6221C44.0107 68.9508 42.8872 66.3935 41.8799 66.3935ZM41.8799 79.376C40.1194 79.376 39.1699 75.8962 39.1699 72.6221C39.1699 69.3478 40.1194 65.868 41.8799 65.868C43.6397 65.868 44.589 69.3478 44.589 72.6221C44.589 75.8962 43.6397 79.376 41.8799 79.376Z" fill="#FAAE2B"/>
<path d="M41.8782 79.376C41.8389 79.376 41.7843 79.376 41.7114 79.3552C41.5762 79.3153 41.4921 79.1922 41.5143 79.0638C41.5368 78.9362 41.658 78.8411 41.8007 78.8411H41.9557C42.0979 78.8411 42.2195 78.9362 42.2422 79.0638C42.2639 79.1922 42.1801 79.3153 42.045 79.3552C41.9722 79.376 41.9176 79.376 41.8782 79.376Z" fill="#FAAE2B"/>
<path d="M43.3376 66.4668C43.3344 66.4668 43.3329 66.4668 43.3298 66.4668C43.1698 66.4622 43.0437 66.3421 43.048 66.1966C43.0577 65.8947 43.0628 65.5854 43.0628 65.2725C43.0628 61.2884 42.3159 59.0672 41.932 59.0429C41.5486 59.0648 40.8009 61.2842 40.8009 65.2725C40.8009 65.5819 40.8059 65.8883 40.8153 66.1864C40.8204 66.3329 40.6942 66.4533 40.5343 66.4569C40.3949 66.4396 40.2407 66.3467 40.2368 66.203C40.2272 65.8989 40.2217 65.5871 40.2217 65.2725C40.2217 62.9365 40.5794 58.5178 41.932 58.5178C43.2846 58.5178 43.6416 62.9365 43.6416 65.2725C43.6416 65.5906 43.6369 65.9053 43.6272 66.2118C43.6229 66.3538 43.4945 66.4668 43.3376 66.4668Z" fill="#FAAE2B"/>
<path d="M53.7703 73.8872C53.6758 73.8872 53.5835 73.8463 53.5274 73.7696C53.4391 73.6474 53.4768 73.4856 53.6099 73.4052C53.8855 73.2406 54.1654 73.069 54.4464 72.8899C58.0333 70.6126 59.6156 68.7819 59.4222 68.4793C59.1819 68.2071 56.7453 68.925 53.149 71.2094L52.9576 71.3323C52.8272 71.4163 52.6458 71.3867 52.5543 71.268C52.4617 71.1504 52.4928 70.9862 52.624 70.9018L52.8163 70.7789C54.3974 69.7746 55.9719 68.9412 57.2502 68.4302C58.7118 67.8472 59.5782 67.7642 59.8966 68.1781C60.6723 69.1824 56.8874 71.9823 54.7784 73.3211C54.4928 73.5008 54.2086 73.6774 53.9288 73.8444C53.8796 73.8734 53.8248 73.8872 53.7703 73.8872Z" fill="#FAAE2B"/>
<path d="M49.8475 68.7139C49.7911 68.7139 49.7339 68.6994 49.6833 68.6679C49.5518 68.5857 49.5195 68.4211 49.6102 68.3017C49.7542 68.1135 49.8982 67.9211 50.0414 67.7251C52.4691 64.3983 53.1947 62.1742 52.8871 61.9645C52.538 61.7957 50.574 63.2753 48.1555 66.593C47.9746 66.8416 47.7994 67.0877 47.6312 67.3335C47.5472 67.4575 47.3692 67.4953 47.2322 67.4186C47.0968 67.3416 47.0547 67.1798 47.1396 67.057C47.3097 66.8084 47.488 66.557 47.672 66.303C49.0928 64.3538 52.076 60.8482 53.2067 61.5262C54.3352 62.2049 51.9452 66.0679 50.5241 68.0161C50.3789 68.2142 50.2326 68.4091 50.0862 68.6009C50.0302 68.675 49.9394 68.7139 49.8475 68.7139Z" fill="#FAAE2B"/>
<path d="M46.6502 67.188C46.6151 67.188 46.5798 67.1827 46.5451 67.1689C46.3964 67.1174 46.3225 66.9655 46.3801 66.8299C46.5412 66.4549 46.7 66.0643 46.853 65.6611C48.2873 61.9013 48.3824 59.5787 48.0293 59.4396C47.6443 59.3619 46.1461 61.2388 44.7164 64.9905C44.5389 65.4559 44.377 65.9114 44.233 66.3546C44.1883 66.4937 44.0282 66.5704 43.8734 66.5326C43.7199 66.4909 43.6327 66.3454 43.678 66.2063C43.8238 65.756 43.9882 65.2914 44.1691 64.8185C44.7994 63.1651 45.5346 61.6516 46.2396 60.5579C47.046 59.3058 47.6976 58.7817 48.2177 58.9442C48.3816 58.994 48.5108 59.1062 48.6019 59.2761C49.1238 60.2497 48.3453 63.3576 47.4007 65.8327C47.2449 66.2416 47.083 66.6393 46.9204 67.0199C46.8755 67.1248 46.7662 67.188 46.6502 67.188Z" fill="#FAAE2B"/>
<path d="M52.3405 70.8159C52.2604 70.8159 52.1794 70.7863 52.1226 70.7273C52.0175 70.6182 52.0299 70.4519 52.1502 70.3558C52.339 70.2075 52.5278 70.0549 52.7173 69.8967C55.9609 67.2126 57.2669 65.2156 57.0294 64.9409C56.7499 64.6986 54.4351 65.6994 51.1942 68.3786C50.9614 68.5714 50.7357 68.765 50.5158 68.9545C50.4009 69.0559 50.2173 69.0524 50.1066 68.9464C49.9961 68.8415 50 68.6752 50.1164 68.5749C50.3386 68.3814 50.5675 68.1861 50.8038 67.9909C52.7072 66.417 56.5467 63.6799 57.4576 64.5874C57.8323 64.96 57.5529 65.7082 56.6047 66.8746C55.776 67.8934 54.5343 69.1046 53.1081 70.2852C52.9151 70.4445 52.7228 70.5998 52.5313 70.7527C52.4756 70.7951 52.4083 70.8159 52.3405 70.8159Z" fill="#FAAE2B"/>
<path d="M29.9903 73.8262C29.9358 73.8262 29.8802 73.8117 29.8308 73.7821C29.5844 73.6344 29.3356 73.479 29.0849 73.3208C26.9752 71.9811 23.191 69.1821 23.9664 68.1778C24.7409 67.1724 28.9367 69.4389 31.046 70.7786L31.1678 70.8556C31.299 70.9396 31.3298 71.1042 31.2375 71.2225C31.1444 71.3401 30.9635 71.369 30.8342 71.285L30.7154 71.2098C27.1122 68.9219 24.6806 68.2096 24.4405 68.479C24.2482 68.7817 25.8297 70.6123 29.4166 72.8896C29.6626 73.0461 29.907 73.1969 30.1507 73.3434C30.2838 73.4229 30.3208 73.5867 30.2325 73.7078C30.1768 73.7845 30.0849 73.8262 29.9903 73.8262Z" fill="#FAAE2B"/>
<path d="M33.9801 68.6689C33.8883 68.6689 33.7984 68.6301 33.7416 68.5559C33.6065 68.3797 33.4718 68.1989 33.3379 68.0153C31.9172 66.0682 29.5272 62.2052 30.656 61.5265C31.786 60.8527 34.7695 64.3541 36.1899 66.3033C36.3674 66.5456 36.5371 66.7861 36.701 67.0248C36.7855 67.1477 36.7434 67.3094 36.6075 67.387C36.4713 67.4641 36.2926 67.4252 36.2085 67.302C36.0482 67.0671 35.8816 66.8313 35.7068 66.5932C33.2865 63.2738 31.3103 61.8019 30.976 61.9647C30.6685 62.1745 31.3936 64.3985 33.821 67.7254C33.9529 67.9069 34.0861 68.0841 34.2176 68.2568C34.3087 68.3751 34.276 68.5397 34.1448 68.622C34.0942 68.6538 34.0366 68.6689 33.9801 68.6689Z" fill="#FAAE2B"/>
<path d="M37.2007 67.1567C37.0843 67.1567 36.9753 67.0928 36.9302 66.9886C36.7713 66.6182 36.6153 66.2311 36.4634 65.8332C35.5196 63.3581 34.7402 60.249 35.2626 59.2766C35.3538 59.1067 35.4826 58.9944 35.6464 58.9446C36.1712 58.7783 36.8193 59.3072 37.6242 60.5584C38.3299 61.6521 39.0652 63.1656 39.695 64.82C39.8736 65.2872 40.0372 65.7466 40.1823 66.1923C40.2279 66.3315 40.1403 66.478 39.9869 66.5197C39.8308 66.5575 39.6728 66.4815 39.6268 66.3413C39.4836 65.9049 39.3229 65.4518 39.1477 64.991C37.7168 61.2347 36.2058 59.3676 35.8356 59.44C35.4822 59.5792 35.5768 61.9018 37.0111 65.6616C37.1602 66.0532 37.3136 66.4328 37.4705 66.799C37.5285 66.9346 37.4545 67.0864 37.3053 67.1387C37.2708 67.1514 37.2349 67.1567 37.2007 67.1567Z" fill="#FAAE2B"/>
<path d="M31.4618 70.7686C31.394 70.7686 31.3255 70.7467 31.2706 70.7032C31.0997 70.5659 30.9276 70.4274 30.7553 70.2854C29.3294 69.1049 28.0877 67.8937 27.2595 66.8749C26.3105 65.7078 26.0322 64.9602 26.407 64.5877C26.7799 64.2133 27.6269 64.3977 28.9959 65.147C30.1905 65.8017 31.6334 66.8113 33.06 67.9911C33.2795 68.1737 33.4928 68.3538 33.7003 68.5346C33.8163 68.6338 33.8202 68.8012 33.7096 68.905C33.5983 69.0092 33.4146 69.0139 33.2997 68.9142C33.0954 68.737 32.8856 68.558 32.6696 68.3789C29.4303 65.7004 27.1166 64.7077 26.8352 64.9412C26.5958 65.2141 27.9002 67.2111 31.1457 69.897C31.3146 70.0368 31.4855 70.1752 31.6537 70.3084C31.7735 70.4041 31.7848 70.5704 31.6793 70.6789C31.6221 70.7385 31.542 70.7686 31.4618 70.7686Z" fill="#FAAE2B"/>
<path d="M42.3414 56.6118C42.329 56.6118 42.3162 56.6111 42.3037 56.61C42.1445 56.5892 42.0336 56.4582 42.0542 56.3145C42.1955 55.3381 42.1892 54.3175 42.1835 53.3323C42.1799 52.7499 42.1764 52.168 42.2009 51.5875C42.2675 50.0136 42.3617 48.3005 42.4886 46.3488C42.5668 45.1301 42.6509 43.9114 42.7361 42.6927C42.7471 42.5473 42.9012 42.4459 43.0436 42.4459C43.2033 42.4551 43.3243 42.5808 43.3142 42.7246C43.2286 43.9439 43.1449 45.1619 43.0666 46.3794C42.9405 48.3284 42.8467 50.0379 42.7802 51.6073C42.7556 52.1786 42.7595 52.7545 42.7622 53.3288C42.7689 54.3338 42.7751 55.3727 42.6279 56.3834C42.6085 56.5154 42.4847 56.6118 42.3414 56.6118Z" fill="#FAAE2B"/>
<path d="M41.4417 56.6836C41.307 56.6836 41.1864 56.5978 41.1579 56.4728C40.432 53.2077 40.1716 49.9186 40.0252 47.4191C39.9478 46.066 39.8921 44.71 39.8369 43.3539L39.8108 42.7182C39.8045 42.5735 39.9295 42.4516 40.0891 42.446C40.2537 42.4396 40.3837 42.5544 40.3892 42.6993L40.4156 43.3338C40.4705 44.6874 40.5262 46.0405 40.6045 47.3909C40.7485 49.8734 41.0069 53.137 41.7259 56.3689C41.7578 56.5109 41.6561 56.6501 41.4997 56.6779C41.4802 56.6818 41.4607 56.6836 41.4417 56.6836Z" fill="#FAAE2B"/>
<path d="M43.53 57.3489C43.53 58.1227 42.838 58.752 41.9839 58.752C41.1299 58.752 40.4375 58.1227 40.4375 57.3489C40.4375 56.5742 41.1299 55.946 41.9839 55.946C42.838 55.946 43.53 56.5742 43.53 57.3489Z" fill="#FAAE2B"/>
</svg>
