<svg width="33" height="34" viewBox="0 0 33 34" fill="none" xmlns="http://www.w3.org/2000/svg">
<rect width="32.5" height="32.5" transform="translate(0 0.75)" fill="#F0F0F0"/>
<path d="M21.8214 1.8335C22.334 1.8335 22.75 2.2296 22.75 2.72026C22.75 3.54636 22.8856 4.89524 23.6266 6.01395C24.323 7.06308 25.6379 8.04084 28.3214 8.04084C28.834 8.04084 29.25 8.43694 29.25 8.92761C29.2485 9.16328 29.15 9.38882 28.9761 9.55497C28.8021 9.72112 28.5667 9.81437 28.3214 9.81437C27.6361 9.81437 26.2043 10.2123 24.9414 11.1383C23.7101 12.0393 22.75 13.3525 22.75 15.135C22.748 15.3703 22.6493 15.5954 22.4754 15.7612C22.3015 15.9269 22.0664 16.0199 21.8214 16.0199C21.5761 16.0199 21.3408 15.9267 21.1668 15.7605C20.9928 15.5944 20.8943 15.3688 20.8929 15.1332C20.8929 14.2411 20.605 12.8833 19.7674 11.7717C18.9651 10.7083 17.6187 9.81437 15.3214 9.81437C15.0761 9.81437 14.8408 9.72112 14.6668 9.55497C14.4928 9.38882 14.3943 9.16328 14.3929 8.92761C14.3929 8.43694 14.8089 8.04084 15.3214 8.04084C16.2723 8.04084 17.6521 8.023 18.7999 7.38603C19.8473 6.80258 20.8929 5.58039 20.8929 2.72026C20.8929 2.2296 21.3089 1.8335 21.8214 1.8335ZM21.8957 6.70445C21.3646 7.73197 20.4985 8.56463 19.4294 9.0757C20.189 9.52889 20.7963 10.1034 21.2754 10.735C21.5156 11.0574 21.7224 11.3869 21.8957 11.7235C22.4019 10.953 23.0501 10.2776 23.8086 9.73051C24.102 9.5164 24.4022 9.32311 24.7093 9.15063C23.5209 8.65046 22.534 7.79251 21.8976 6.70624M8.424 18.839C7.39487 18.0983 6.55937 17.1376 5.98366 16.033C5.40796 14.9283 5.10786 13.7101 5.10714 12.4747C5.10714 8.06761 8.84929 4.49557 13.4643 4.49557C15.1357 4.49557 16.6939 4.96482 17.9994 5.7713C18.2037 5.63391 18.408 5.43229 18.5844 5.10399C18.6959 4.88989 18.811 4.60441 18.8946 4.21188C17.2662 3.23484 15.3841 2.71849 13.4643 2.72204C7.82229 2.72204 3.25 7.08806 3.25 12.4747C3.25 15.4472 4.64286 18.1075 6.83614 19.8971L4.57414 27.8173C4.25843 28.9235 4.71714 30.2171 5.94843 30.7434C8.98857 32.0406 14.5841 33.1539 20.7499 30.7595C22.0684 30.2456 22.6441 28.8611 22.2616 27.6371L19.9253 20.2004L19.8733 20.0701C20.7134 19.4229 21.4418 18.6521 22.0313 17.7863C21.3588 17.8361 20.6903 17.6497 20.15 17.2618C19.3696 18.2557 18.3594 19.0616 17.199 19.6159C16.0387 20.1702 14.7601 20.4576 13.4643 20.4555C11.6455 20.4588 9.87518 19.8918 8.42214 18.8408M18.265 21.0889L20.4824 28.1509C20.618 28.5791 20.4007 28.9824 20.0479 29.118C14.4523 31.2947 9.38971 30.2724 6.70614 29.1251C6.44057 29.0127 6.25114 28.688 6.36629 28.2865L8.45371 20.9783C9.98457 21.8011 11.7102 22.2312 13.4643 22.2273C15.1989 22.2273 16.8331 21.8133 18.265 21.0854" fill="#00473E"/>
</svg>
