<svg width="22" height="22" viewBox="0 0 22 22" fill="none" xmlns="http://www.w3.org/2000/svg">
<path fill-rule="evenodd" clip-rule="evenodd" d="M19.4608 13.1727C19.2828 12.8977 19.0299 12.6227 18.702 12.4485C18.4397 12.3202 18.2711 12.1093 18.1212 11.8618C17.6434 11.0735 17.9244 10.0377 18.7207 9.57016C19.6575 9.04766 19.9573 7.8835 19.4139 6.976L18.7863 5.89433C18.2523 4.98683 17.0813 4.666 16.1539 5.19766C15.3295 5.63766 14.271 5.34433 13.7932 4.56516C13.6433 4.3085 13.559 4.0335 13.5777 3.7585C13.6058 3.401 13.4934 3.06183 13.3248 2.78683C12.9782 2.2185 12.3505 1.8335 11.6573 1.8335H10.3364C9.65255 1.85183 9.0249 2.2185 8.67829 2.78683C8.5003 3.06183 8.39725 3.401 8.41599 3.7585C8.43472 4.0335 8.35041 4.3085 8.20052 4.56516C7.72276 5.34433 6.66418 5.63766 5.84917 5.19766C4.91238 4.666 3.75075 4.98683 3.20741 5.89433L2.57976 6.976C2.04579 7.8835 2.34556 9.04766 3.27299 9.57016C4.06926 10.0377 4.3503 11.0735 3.8819 11.8618C3.72265 12.1093 3.55402 12.3202 3.29172 12.4485C2.97321 12.6227 2.69217 12.8977 2.54229 13.1727C2.19567 13.741 2.21441 14.456 2.56102 15.0518L3.20741 16.1518C3.55402 16.7385 4.20041 17.1052 4.8749 17.1052C5.19341 17.1052 5.56813 17.0135 5.86791 16.8302C6.1021 16.6743 6.38314 16.6193 6.69228 16.6193C7.61971 16.6193 8.39725 17.3802 8.41599 18.2877C8.41599 19.3418 9.27784 20.1668 10.3645 20.1668H11.6386C12.7159 20.1668 13.5777 19.3418 13.5777 18.2877C13.6058 17.3802 14.3834 16.6193 15.3108 16.6193C15.6106 16.6193 15.8916 16.6743 16.1352 16.8302C16.4349 17.0135 16.8003 17.1052 17.1282 17.1052C17.7933 17.1052 18.4397 16.7385 18.7863 16.1518L19.4421 15.0518C19.7793 14.4377 19.8074 13.741 19.4608 13.1727Z" fill="#FAAE2B"/>
<path fill-rule="evenodd" clip-rule="evenodd" d="M11.0111 13.5942C9.54031 13.5942 8.35059 12.4484 8.35059 11.0092C8.35059 9.57004 9.54031 8.41504 11.0111 8.41504C12.4818 8.41504 13.6435 9.57004 13.6435 11.0092C13.6435 12.4484 12.4818 13.5942 11.0111 13.5942Z" fill="#00473E"/>
</svg>
