<svg width="16" height="14" viewBox="0 0 16 14" fill="none" xmlns="http://www.w3.org/2000/svg">
<path d="M15.8678 10.6585C15.8871 10.7165 15.8871 10.7791 15.8678 10.8371C15.8566 10.8948 15.8292 10.9482 15.7886 10.9908L13.1709 13.7434C13.1132 13.8029 13.0442 13.8501 12.968 13.8823C12.8916 13.9159 12.809 13.9328 12.7256 13.9319H0.309982C0.252484 13.9324 0.195969 13.917 0.146685 13.8873C0.0974336 13.8537 0.0581183 13.8074 0.0328714 13.7534C0.015435 13.6985 0.015435 13.6396 0.0328714 13.5847C0.0431328 13.5276 0.0688042 13.4745 0.107097 13.431L2.72976 10.6783C2.78744 10.6189 2.85643 10.5717 2.93264 10.5395C3.00891 10.5055 3.09166 10.4885 3.17512 10.4899H15.5709C15.6307 10.4887 15.6895 10.506 15.7391 10.5395C15.7948 10.5625 15.8405 10.6047 15.8678 10.6585ZM13.1759 5.43096C13.1169 5.37309 13.0482 5.32608 12.973 5.29209C12.8958 5.26089 12.8137 5.24409 12.7305 5.24249H0.309982C0.251765 5.24335 0.194951 5.26053 0.145975 5.29208C0.0969987 5.32364 0.057818 5.36832 0.0328714 5.42104C0.0157557 5.47594 0.0157557 5.53477 0.0328714 5.58967C0.0412052 5.64737 0.0671307 5.70107 0.107097 5.74342L2.72976 8.50103C2.78873 8.5589 2.8574 8.60591 2.93264 8.6399C3.00965 8.67153 3.0919 8.68836 3.17512 8.68949H15.5709C15.6307 8.69063 15.6895 8.67332 15.7391 8.6399C15.7891 8.61069 15.8275 8.56516 15.848 8.51095C15.8734 8.45818 15.8818 8.39882 15.872 8.34107C15.8623 8.28332 15.8349 8.23003 15.7936 8.18856L13.1759 5.43096ZM0.146685 3.39748C0.195969 3.42717 0.252484 3.44262 0.309982 3.44212H12.7305C12.8139 3.44298 12.8966 3.42608 12.973 3.39252C13.0492 3.36029 13.1182 3.31307 13.1759 3.25365L15.7936 0.501005C15.8341 0.458406 15.8616 0.405043 15.8728 0.347254C15.8899 0.292352 15.8899 0.233524 15.8728 0.178623C15.8523 0.124406 15.8138 0.0788812 15.7639 0.0496705C15.7142 0.0162477 15.6555 -0.00106613 15.5956 7.31745e-05H3.15532C3.07186 -0.00126105 2.98912 0.0156648 2.91285 0.0496705C2.83664 0.0818988 2.76765 0.129121 2.70997 0.188543L0.0922528 2.9511C0.0507444 2.993 0.0231013 3.04668 0.0130773 3.10486C-0.00435908 3.15971 -0.00435908 3.21863 0.0130773 3.27349C0.0451946 3.3265 0.0914761 3.36946 0.146685 3.39748Z" fill="white"/>
</svg>
