<svg width="80" height="80" viewBox="0 0 80 80" fill="none" xmlns="http://www.w3.org/2000/svg">
<path d="M30 56.6663C32.8333 54.5663 36.2833 53.333 40 53.333C43.7167 53.333 47.1667 54.5663 50 56.6663" stroke="#FAAE2B" stroke-width="1.5" stroke-linecap="round"/>
<path d="M50.0003 40C51.8413 40 53.3337 37.7614 53.3337 35C53.3337 32.2386 51.8413 30 50.0003 30C48.1594 30 46.667 32.2386 46.667 35C46.667 37.7614 48.1594 40 50.0003 40Z" fill="#FAAE2B"/>
<path d="M30.0003 40C31.8413 40 33.3337 37.7614 33.3337 35C33.3337 32.2386 31.8413 30 30.0003 30C28.1594 30 26.667 32.2386 26.667 35C26.667 37.7614 28.1594 40 30.0003 40Z" fill="#FAAE2B"/>
<path d="M23.3337 11.1265C28.3985 8.19563 34.1486 6.6569 40.0003 6.66655C58.4103 6.66655 73.3337 21.5899 73.3337 39.9999C73.3337 58.4099 58.4103 73.3332 40.0003 73.3332C21.5903 73.3332 6.66699 58.4099 6.66699 39.9999C6.66699 33.9299 8.29033 28.2332 11.127 23.3332" stroke="#FAAE2B" stroke-width="1.5" stroke-linecap="round"/>
</svg>
