<svg width="20" height="20" viewBox="0 0 20 20" fill="none" xmlns="http://www.w3.org/2000/svg">
<path d="M9.99995 14.826L6.20072 17.0748C6.08908 17.1288 5.98546 17.1507 5.88987 17.1404C5.79498 17.1295 5.70253 17.0974 5.61252 17.044C5.52181 16.9893 5.45343 16.912 5.40738 16.8122C5.36133 16.7123 5.35714 16.6032 5.39482 16.4849L6.40586 12.2683L3.06191 9.42651C2.96771 9.35128 2.90561 9.26134 2.87561 9.15669C2.84561 9.05205 2.85223 8.95185 2.89549 8.8561C2.93875 8.76035 2.99632 8.68169 3.06819 8.62014C3.14075 8.56063 3.23844 8.52028 3.36124 8.49908L7.77379 8.12154L9.49443 4.12863C9.54188 4.01578 9.61026 3.93439 9.69957 3.88446C9.78888 3.83453 9.889 3.80957 9.99995 3.80957C10.1109 3.80957 10.2114 3.83453 10.3014 3.88446C10.3914 3.93439 10.4594 4.01578 10.5055 4.12863L12.2261 8.12154L16.6376 8.49908C16.7611 8.5196 16.8591 8.56029 16.9317 8.62116C17.0043 8.68135 17.0622 8.75966 17.1054 8.8561C17.148 8.95185 17.1543 9.05205 17.1243 9.15669C17.0943 9.26134 17.0322 9.35128 16.938 9.42651L13.594 12.2683L14.6051 16.4849C14.6441 16.6018 14.6403 16.7106 14.5936 16.8111C14.5468 16.9117 14.4781 16.989 14.3874 17.043C14.2981 17.0977 14.2056 17.1302 14.11 17.1404C14.0151 17.1507 13.9119 17.1288 13.8002 17.0748L9.99995 14.826Z" fill="#FAAE2B"/>
</svg>
