<svg width="21" height="21" viewBox="0 0 21 21" fill="none" xmlns="http://www.w3.org/2000/svg">
<path d="M10.4999 14.0891L7.3236 16.0071C7.23027 16.0532 7.14365 16.0719 7.06373 16.0631C6.9844 16.0538 6.9071 16.0264 6.83185 15.9809C6.75602 15.9342 6.69885 15.8683 6.66035 15.7831C6.62185 15.6979 6.61835 15.6049 6.64985 15.504L7.4951 11.9077L4.69948 9.48398C4.62073 9.41982 4.56881 9.34311 4.54373 9.25386C4.51865 9.16461 4.52419 9.07915 4.56035 8.99748C4.59652 8.91582 4.64465 8.84873 4.70473 8.79623C4.7654 8.74548 4.84706 8.71107 4.94973 8.69298L8.63873 8.37098L10.0772 4.96548C10.1169 4.86923 10.1741 4.79982 10.2487 4.75723C10.3234 4.71465 10.4071 4.69336 10.4999 4.69336C10.5926 4.69336 10.6766 4.71465 10.7519 4.75723C10.8271 4.79982 10.884 4.86923 10.9225 4.96548L12.361 8.37098L16.0491 8.69298C16.1524 8.71048 16.2343 8.74519 16.295 8.79711C16.3556 8.84844 16.4041 8.91523 16.4402 8.99748C16.4758 9.07915 16.4811 9.16461 16.456 9.25386C16.4309 9.34311 16.379 9.41982 16.3002 9.48398L13.5046 11.9077L14.3499 15.504C14.3825 15.6037 14.3793 15.6965 14.3402 15.7822C14.3011 15.868 14.2437 15.9339 14.1679 15.98C14.0932 16.0267 14.0159 16.0544 13.936 16.0631C13.8566 16.0719 13.7703 16.0532 13.677 16.0071L10.4999 14.0891Z" fill="#FFAA00"/>
</svg>
