<svg width="238" height="136" viewBox="0 0 238 136" fill="none" xmlns="http://www.w3.org/2000/svg">
<path d="M132.258 32.7818L168.074 93.7185L189.792 69.9029L189.073 45.9444L160.722 19.5913L132.258 32.7818ZM167.884 94.7995L131.265 32.4968L160.937 18.7459L161.039 18.8393L189.296 45.1046L194.85 30.8089L195.056 30.7871L229.252 27.2376L220.086 44.2444L219.628 43.9227L228.154 28.1032L195.162 31.5278L189.662 45.6846L190.397 70.112L167.884 94.7995Z" fill="#F0F0F0"/>
<path d="M192.93 41.7803L191.46 44.9376L193.06 46.9905L190.468 47.5706L189.494 50.9009L188.372 48.3244L185.798 49.6018L187.267 46.4452L185.668 44.3916L188.259 43.8122L189.234 40.4813L190.356 43.0584L192.93 41.7803Z" fill="#F0F0F0"/>
<path d="M223.702 39.8671L222.233 43.0237L223.832 45.0773L221.24 45.656L220.266 48.9877L219.144 46.4105L216.569 47.6886L218.04 44.5313L216.44 42.4784L219.032 41.8983L220.006 38.568L221.128 41.1445L223.702 39.8671Z" fill="#F0F0F0"/>
<path d="M136.054 27.9316L134.585 31.0878L136.184 33.1407L133.593 33.7208L132.618 37.0518L131.496 34.4746L128.922 35.7523L130.392 32.5958L128.792 30.5428L131.384 29.9628L132.359 26.6318L133.48 29.209L136.054 27.9316Z" fill="#F0F0F0"/>
<path d="M161.524 17.6971C160.54 16.0221 158.068 18.7283 159.054 20.4061C160.038 22.081 162.51 19.3746 161.524 17.6971Z" fill="#F0F0F0"/>
<path d="M195.709 29.746C194.724 28.0708 192.252 30.7772 193.238 32.455C194.223 34.1301 196.695 31.4238 195.709 29.746Z" fill="#F0F0F0"/>
<path d="M191.251 68.995C190.267 67.3205 187.795 70.0268 188.781 71.704C189.766 73.3791 192.238 70.6728 191.251 68.995Z" fill="#F0F0F0"/>
<path d="M169.203 92.7272C168.219 91.052 165.747 93.7576 166.733 95.4355C167.718 97.1099 170.189 94.4043 169.203 92.7272Z" fill="#F0F0F0"/>
<path d="M91.6715 103.598L91.3835 104.093L80.0599 94.5379L63.8104 76.3964L63.6061 59.0314L64.1489 59.0898L64.3497 76.1732L80.3812 94.0764L91.6715 103.598Z" fill="#F0F0F0"/>
<path d="M80.4042 94.5253L70.1227 106.282L27.7797 135.342L16.9429 103.746L17.133 103.628L49.1209 83.8591L63.9461 75.9958L64.214 76.5726L49.4016 84.4289L17.617 104.072L28.0227 134.411L69.7856 105.749L80.0026 94.0551L80.4042 94.5253Z" fill="#F0F0F0"/>
<path d="M77.1803 91.6569L79.5421 92.3411L80.5824 89.9949L81.4668 92.6566L83.8473 92.7497L82.3693 94.7267L83.709 97.1656L81.3476 96.4808L80.3068 98.8276L79.4229 96.1653L77.0419 96.0727L78.5203 94.0952L77.1803 91.6569Z" fill="#F0F0F0"/>
<path d="M14.3541 101.904L16.7159 102.588L17.7563 100.242L18.6406 102.903L21.0206 102.996L19.5432 104.974L20.8828 107.412L18.521 106.728L17.4801 109.074L16.5963 106.413L14.2158 106.32L15.6938 104.343L14.3541 101.904Z" fill="#F0F0F0"/>
<path d="M60.6126 56.3056L62.9749 56.9904L64.0153 54.6441L64.8997 57.3058L67.2796 57.3985L65.8022 59.376L67.1418 61.8149L64.7801 61.1307L63.7391 63.4764L62.8557 60.8146L60.4748 60.722L61.9528 58.7451L60.6126 56.3056Z" fill="#F0F0F0"/>
<path d="M90.7076 102.867C89.7965 104.432 92.0565 106.342 92.9691 104.776C93.8802 103.212 91.6202 101.301 90.7076 102.867Z" fill="#F0F0F0"/>
<path d="M62.9931 75.1993C62.082 76.7634 64.3414 78.6736 65.254 77.107C66.1651 75.5428 63.9057 73.6326 62.9931 75.1993Z" fill="#F0F0F0"/>
<path d="M69.2806 105.447C68.3695 107.011 70.6295 108.922 71.5421 107.355C72.4532 105.791 70.1932 103.881 69.2806 105.447Z" fill="#F0F0F0"/>
<path d="M26.1356 134.045C25.2245 135.609 27.4844 137.519 28.397 135.953C29.3078 134.389 27.0482 132.478 26.1356 134.045Z" fill="#F0F0F0"/>
</svg>
