<svg width="20" height="20" viewBox="0 0 20 20" fill="none" xmlns="http://www.w3.org/2000/svg">
<path d="M10 20C15.5228 20 20 15.5228 20 10C20 4.47715 15.5228 0 10 0C4.47715 0 0 4.47715 0 10C0 15.5228 4.47715 20 10 20Z" fill="#54C5FD"/>
<path fill-rule="evenodd" clip-rule="evenodd" d="M14.0261 7.05799C13.9215 6.85876 13.7512 6.70187 13.5441 6.61399C13.3581 6.51927 13.1528 6.46863 12.9441 6.46599H7.10708C6.88677 6.45224 6.6673 6.50371 6.47608 6.61399C6.35513 6.65372 6.24331 6.71717 6.14715 6.80061C6.051 6.88406 5.97245 6.98583 5.91608 7.09999C5.7903 7.31347 5.73567 7.56142 5.76008 7.80799C5.77798 8.03566 5.85901 8.25383 5.99408 8.43799L9.61308 14.758C9.65821 14.8241 9.71855 14.8784 9.78902 14.9163C9.8595 14.9543 9.93805 14.9747 10.0181 14.976C10.1004 14.9828 10.183 14.966 10.256 14.9273C10.329 14.8887 10.3894 14.8299 10.4301 14.758L14.0651 8.43799C14.1928 8.239 14.2554 8.00517 14.2441 7.76899C14.2322 7.51745 14.1573 7.27293 14.0261 7.05799ZM9.55908 12.786L6.77208 7.92199C6.70008 7.77399 6.66308 7.69999 6.66308 7.69999C6.65263 7.63395 6.66572 7.56634 6.70008 7.50899C6.72798 7.44208 6.78117 7.38889 6.84808 7.36099H9.55908V12.786ZM13.2791 7.72699C13.2941 7.80157 13.2941 7.8784 13.2791 7.95299L10.4301 12.81V7.39299H12.9051C12.9926 7.38339 13.0811 7.39648 13.1621 7.43099L13.2011 7.46999C13.2401 7.46999 13.2401 7.53999 13.2791 7.53999C13.2971 7.60103 13.2971 7.66595 13.2791 7.72699Z" fill="white"/>
</svg>
