<svg width="30" height="30" viewBox="0 0 30 30" fill="none" xmlns="http://www.w3.org/2000/svg">
<path d="M26.25 5H13.75L12.5 1.25H3.75C2.375 1.25 1.25 2.375 1.25 3.75V22.5C1.25 23.875 2.375 25 3.75 25H13.75L15 28.75H26.25C27.625 28.75 28.75 27.625 28.75 26.25V7.5C28.75 6.125 27.625 5 26.25 5ZM8.75 20C5.3 20 2.5 17.2 2.5 13.75C2.5 10.3 5.3 7.5 8.75 7.5C10.4375 7.5 11.85 8.125 12.9375 9.125L11.2875 10.7125C10.8125 10.2625 9.9875 9.7375 8.75 9.7375C6.575 9.7375 4.8125 11.5375 4.8125 13.75C4.8125 15.9625 6.575 17.7625 8.75 17.7625C11.2625 17.7625 12.3 15.9625 12.4 14.75H8.75V12.6125H14.6C14.6875 13 14.75 13.375 14.75 13.8875C14.75 17.4625 12.3625 20 8.75 20ZM16.4625 13.225H21.0875C20.55 14.7875 19.7 16.2625 18.525 17.5625C18.1375 17.125 17.775 16.6625 17.45 16.1875L16.4625 13.225ZM26.875 25.625C26.875 26.3125 26.3125 26.875 25.625 26.875H17.5L20 23.75L18.7 19.875L22.575 23.75L23.725 22.6L19.6 18.5375L19.625 18.5125C21.0375 16.95 22.0375 15.15 22.625 13.2375H25V11.6125H19.3375V10H17.725V11.6125H15.925L14.325 6.875H25.625C26.3125 6.875 26.875 7.4375 26.875 8.125V25.625Z" fill="currentColor"/>
</svg>
