<svg width="32" height="32" viewBox="0 0 32 32" fill="none" xmlns="http://www.w3.org/2000/svg">
<rect width="30.3333" height="30.3333" transform="translate(0.833008 0.833984)" fill="#F0F0F0"/>
<path d="M14.0878 14.6765C15.4399 14.6765 16.7366 14.1185 17.6926 13.1253C18.6487 12.132 19.1858 10.7849 19.1858 9.38024C19.1858 7.97558 18.6487 6.62846 17.6926 5.63522C16.7366 4.64198 15.4399 4.08398 14.0878 4.08398C12.7357 4.08398 11.439 4.64198 10.4829 5.63522C9.52686 6.62846 8.98975 7.97558 8.98975 9.38024C8.98975 10.7849 9.52686 12.132 10.4829 13.1253C11.439 14.1185 12.7357 14.6765 14.0878 14.6765Z" stroke="#00473E" stroke-width="1.5" stroke-linecap="round" stroke-linejoin="round"/>
<path d="M26.8327 21.6675C26.8325 22.4642 26.5292 23.2285 25.9889 23.7939C24.745 25.0968 23.538 26.4553 22.247 27.7105C22.1028 27.8473 21.9134 27.9213 21.7182 27.9171C21.5229 27.9129 21.3367 27.8309 21.198 27.688L17.479 23.7952C16.9381 23.2297 16.6345 22.4648 16.6345 21.6675C16.6345 20.8702 16.9381 20.1053 17.479 19.5397C17.7488 19.2572 18.0697 19.033 18.4233 18.8799C18.777 18.7269 19.1562 18.6481 19.5393 18.6481C19.9223 18.6481 20.3016 18.7269 20.6552 18.8799C21.0088 19.033 21.3297 19.2572 21.5995 19.5397L21.7346 19.6814L21.8697 19.5397C22.2749 19.1152 22.7924 18.8253 23.3564 18.7071C23.9205 18.5888 24.5057 18.6474 25.0377 18.8755C25.5696 19.1035 26.0243 19.4907 26.3439 19.9879C26.6635 20.485 26.8336 21.0696 26.8327 21.6675Z" stroke="#00473E" stroke-width="1.5" stroke-linejoin="round"/>
<path d="M5.16626 25.2687V23.9447C5.16595 22.3809 5.54649 20.8425 6.27245 19.4726C6.99842 18.1028 8.0462 16.946 9.31827 16.11C10.5903 15.274 12.0453 14.786 13.5478 14.6913C15.0503 14.5967 16.5514 14.8985 17.9114 15.5686" stroke="#00473E" stroke-width="1.5" stroke-linecap="round" stroke-linejoin="round"/>
</svg>
