<svg width="24" height="24" viewBox="0 0 24 24" fill="none" xmlns="http://www.w3.org/2000/svg">
<path d="M9.30003 3.2999C9.30003 3.06121 9.20521 2.83229 9.03643 2.66351C8.86765 2.49472 8.63873 2.3999 8.40003 2.3999C8.16134 2.3999 7.93242 2.49472 7.76364 2.66351C7.59486 2.83229 7.50003 3.06121 7.50003 3.2999V4.8095C6.05543 4.84182 4.61367 4.95319 3.18123 5.1431C3.06407 5.1587 2.95112 5.19723 2.84885 5.25648C2.74657 5.31573 2.65697 5.39455 2.58515 5.48843C2.51333 5.58231 2.46071 5.68941 2.43029 5.80363C2.39986 5.91785 2.39223 6.03694 2.40783 6.1541C2.42344 6.27127 2.46196 6.38421 2.52121 6.48649C2.58046 6.58877 2.65928 6.67837 2.75316 6.75019C2.84704 6.822 2.95414 6.87463 3.06836 6.90505C3.18258 6.93547 3.30167 6.9431 3.41883 6.9275C5.74572 6.61919 8.09621 6.5276 10.44 6.6539C9.94324 8.33146 9.25892 9.94766 8.40003 11.4719C7.95031 10.6767 7.54879 9.85525 7.19763 9.0119C7.10162 8.79794 6.92589 8.6299 6.70784 8.54356C6.48979 8.45723 6.24665 8.45941 6.03019 8.54966C5.81373 8.6399 5.64104 8.81108 5.5489 9.02673C5.45675 9.24239 5.45242 9.4855 5.53683 9.7043C6.04196 10.9131 6.64057 12.0806 7.32723 13.1963C6.04476 15.071 4.4975 16.75 2.73363 18.1811C2.63782 18.2542 2.55766 18.3457 2.4979 18.4504C2.43813 18.555 2.39999 18.6705 2.38572 18.7902C2.37146 18.9098 2.38136 19.0311 2.41485 19.1469C2.44834 19.2626 2.50473 19.3705 2.58067 19.464C2.65662 19.5576 2.75057 19.6349 2.85697 19.6915C2.96336 19.748 3.08003 19.7826 3.20006 19.7932C3.32008 19.8039 3.44101 19.7903 3.55569 19.7533C3.67036 19.7163 3.77644 19.6567 3.86763 19.5779C5.58112 18.1895 7.10494 16.5822 8.40003 14.7971C8.51443 14.9555 8.63043 15.1119 8.74803 15.2663C8.89284 15.4563 9.1072 15.581 9.34394 15.613C9.58069 15.6449 9.82043 15.5815 10.0104 15.4367C10.2004 15.2919 10.3251 15.0775 10.3571 14.8408C10.389 14.604 10.3256 14.3643 10.1808 14.1743C9.93603 13.8543 9.70003 13.5283 9.47283 13.1963C10.6985 11.2038 11.6407 9.05031 12.2724 6.7979C12.6444 6.8355 13.014 6.8787 13.3812 6.9275C13.6179 6.95901 13.8573 6.89523 14.0469 6.75019C14.2365 6.60515 14.3607 6.39073 14.3922 6.1541C14.4237 5.91748 14.36 5.67803 14.2149 5.48843C14.0699 5.29883 13.8555 5.17461 13.6188 5.1431C12.1864 4.95319 10.7446 4.84182 9.30003 4.8095V3.2999Z" fill="#00473E"/>
<path fill-rule="evenodd" clip-rule="evenodd" d="M15.5998 9.59985C15.767 9.59986 15.931 9.64646 16.0732 9.73442C16.2154 9.82238 16.3303 9.94823 16.405 10.0979L21.505 20.2979C21.5589 20.4037 21.5913 20.5192 21.6003 20.6376C21.6094 20.7561 21.5949 20.8751 21.5577 20.9879C21.5205 21.1007 21.4613 21.205 21.3836 21.2949C21.3059 21.3847 21.2112 21.4583 21.1049 21.5113C20.9987 21.5644 20.883 21.5959 20.7645 21.604C20.6459 21.6121 20.527 21.5967 20.4145 21.5586C20.302 21.5206 20.1981 21.4606 20.1089 21.3822C20.0197 21.3038 19.9468 21.2085 19.8946 21.1019L18.9442 19.1999H12.2566L11.305 21.1019C11.2528 21.2085 11.1799 21.3038 11.0907 21.3822C11.0015 21.4606 10.8976 21.5206 10.7851 21.5586C10.6726 21.5967 10.5537 21.6121 10.4352 21.604C10.3167 21.5959 10.2009 21.5644 10.0947 21.5113C9.9884 21.4583 9.89368 21.3847 9.81598 21.2949C9.73827 21.205 9.67912 21.1007 9.64193 20.9879C9.60474 20.8751 9.59025 20.7561 9.59929 20.6376C9.60833 20.5192 9.64073 20.4037 9.69461 20.2979L14.7946 10.0979C14.8693 9.94823 14.9842 9.82238 15.1264 9.73442C15.2687 9.64646 15.4326 9.59986 15.5998 9.59985ZM18.0442 17.3999L15.5998 12.5123L13.1566 17.3999H18.0442Z" fill="#00473E"/>
</svg>
